<?xml version="1.0" encoding="UTF-8" standalone="no"?>
<svg
   width="32"
   height="32"
   viewBox="0 0 32 32"
   version="1.1"
   id="svg9"
   xmlns="http://www.w3.org/2000/svg"
   xmlns:svg="http://www.w3.org/2000/svg"
   xmlns:rdf="http://www.w3.org/1999/02/22-rdf-syntax-ns#"
   xmlns:cc="http://creativecommons.org/ns#"
   xmlns:dc="http://purl.org/dc/elements/1.1/">
  <defs
     id="defs2">
    <style
       id="style1">.cls-1 {
        fill: none;
      }

      .cls-2, .cls-6 {
        fill: #66ccff;
      }

      .cls-3 {
        fill: #66ccff;
      }

      .cls-4, .cls-7 {
        fill: #fff;
      }

      .cls-5 {
        fill: #fff
      }

      .cls-6, .cls-7 {
        fill-rule: evenodd;
      }</style>
    <linearGradient
       id="Nepojmenovaný_přechod_28"
       x1="-73.82"
       x2="-73.82"
       y1="-30.08"
       y2="-31.08"
       data-name="Nepojmenovaný přechod 28"
       gradientTransform="matrix(25 0 0 -25 1861.5 -748.5)"
       gradientUnits="userSpaceOnUse">
      <stop
         stop-color="#dbdee3"
         offset="0"
         id="stop1" />
      <stop
         stop-color="#fdfdfd"
         offset="1"
         id="stop2" />
    </linearGradient>
  </defs>
  <title
     id="title2">Datový zdroj 28</title>
  <path
     class="cls-1"
     d="M 0,0 H 32 V 32 H 0 Z"
     id="path2" />
  <path
     class="cls-2"
     d="M 31,16 A 15,15 0 1 1 16,1 15,15 0 0 1 31,16"
     id="path3" />
  <path
     class="cls-3"
     d="M 30,16 A 14,14 0 1 1 16,2 14,14 0 0 1 30,16"
     id="path4" />
  <path
     class="cls-5"
     d="M 28.5,16 A 12.5,12.5 0 1 1 16,3.5 12.5,12.5 0 0 1 28.5,16"
     id="path6" />
  <path
     class="cls-6"
     d="m 18.65,8 a 2.18,2.18 0 0 0 -2.22,2 1.62,1.62 0 0 0 1.73,1.65 2.22,2.22 0 0 0 2.34,-2 A 1.66,1.66 0 0 0 18.65,8 Z m -3.94,6.14 c 0.24,0 0.49,0.22 0.24,0.65 l -2,4.28 a 13.87,13.87 0 0 0 -1.11,3.61 c 0,0.88 0.74,1.32 1.73,1.32 2.83,0 6,-3.07 6,-3.73 0,-0.22 -0.25,-0.32 -0.37,-0.32 C 18.9,20 17.42,22 16.55,22 16.31,22 16.18,21.89 16.18,21.67 a 2.27,2.27 0 0 1 0.62,-1.32 l 2,-4.82 c 1,-2.41 -0.24,-3.07 -1.48,-3.07 a 7,7 0 0 0 -4.19,1.65 c -0.37,0.33 -1.6,1.31 -1.6,1.75 a 0.37,0.37 0 0 0 0.37,0.33 c 0.46,0.03 1.82,-2.05 2.81,-2.05 z"
     id="path7" />
  <path
     class="cls-7"
     d="M 23.43,6.72 22.59,11.87 27,9.43 30.22,11.22 A 15.07,15.07 0 0 0 22.89,2.67 l -3,0.45 z"
     id="path8" />
  <path
     class="cls-2"
     d="M 27,8.29 30.09,10 29.5,6.38 32,3.82 28.55,3.29 27,0 25.45,3.29 22,3.82 24.5,6.38 23.91,10 Z"
     id="path9" />
  <metadata
     id="metadata9">
    <rdf:RDF>
      <cc:Work
         rdf:about="">
        <dc:title>Datový zdroj 28</dc:title>
      </cc:Work>
    </rdf:RDF>
  </metadata>
</svg>
