<?xml version="1.0" encoding="UTF-8"?>
<svg id="svg31" version="1.1" viewBox="0 0 32 32" xmlns="http://www.w3.org/2000/svg">
 <defs id="defs7">
  <linearGradient id="announce_read_locked_mine-a" x1="50%" x2="50%" y2="100%">
   <stop id="stop2" stop-color="#DBDEE3" offset="0"/>
   <stop id="stop4" stop-color="#FDFDFD" offset="1"/>
  </linearGradient>
 </defs>
 <g id="g29" fill="none" fill-rule="evenodd">
  <path id="path9" d="m0 0h32v32h-32z"/>
  <path id="path11" transform="translate(1 1)" d="m30 15c0 8.2838-6.7156 15-15 15s-15-6.7162-15-15c0-8.2844 6.7156-15 15-15s15 6.7156 15 15" fill="#2fb99d"/>
  <path id="path13" transform="translate(1 1)" d="m29 15c0 7.7315-6.2679 14-14 14-7.7321 0-14-6.2685-14-14 0-7.7321 6.2679-14 14-14 7.7321 0 14 6.2679 14 14" fill="#2fb99d"/>
  <path id="path15" transform="translate(1 1)" d="m28.5 15c0 7.4554-6.0441 13.5-13.5 13.5s-13.5-6.0446-13.5-13.5c0-7.4559 6.0441-13.5 13.5-13.5s13.5 6.0441 13.5 13.5" fill="#FFF"/>
  <path id="path17" transform="translate(1 1)" d="m27.5 15c0 6.9031-5.5964 12.5-12.5 12.5-6.9036 0-12.5-5.5969-12.5-12.5 0-6.9036 5.5964-12.5 12.5-12.5 6.9036 0 12.5 5.5964 12.5 12.5" fill="url(#announce_read_locked_mine-a)"/>
  <path id="path19" d="m14.952 14.795c0.24658-0.43836 0-0.65753-0.24658-0.65753-0.9863 0-2.3425 2.0822-2.8356 2.0822-0.24658 0-0.36986-0.21918-0.36986-0.32877 0-0.43836 1.2329-1.4247 1.6027-1.7534 1.1096-0.87671 2.589-1.6438 4.1918-1.6438 1.2329 0 2.4658 0.65753 1.4795 3.0685l-1.9726 4.8219c-0.24658 0.21918-0.61644 0.87671-0.61644 1.3151 0 0.21918 0.12329 0.32877 0.36986 0.32877 0.86301 0 2.3425-2.0822 2.7123-2.0822 0.12329 0 0.36986 0.10959 0.36986 0.32877 0 0.65753-3.2055 3.726-6.0411 3.726-0.9863 0-1.726-0.43836-1.726-1.3151 0-1.2055 0.9863-3.1781 1.1096-3.6164l1.9726-4.274zm1.4795-4.8219c0-1.0959 1.1096-1.9726 2.2192-1.9726 1.1096 0 1.8493 0.65753 1.8493 1.6438 0 1.0959-1.1096 1.9726-2.3425 1.9726-0.9863 0-1.726-0.65753-1.726-1.6438z" fill="#666"/>
  <path id="path21" transform="translate(19)" d="m11.221 11.215-3.2195-1.7806-4.4084 2.4366 0.83972-5.1519-3.5084-3.5946 2.9659-0.45213c3.4282 1.7759 6.0839 4.8356 7.3307 8.5427z" fill="#FFF"/>
  <path id="path23" transform="translate(19)" d="M8.001 8.292L11.089 10 10.499 6.382 13 3.82 9.545 3.29 7.999 0 6.455 3.293 3 3.82 5.501 6.382 4.911 10z" fill="#cb0033"/>
  <path id="path25" transform="translate(21 19)" d="m-6.6613e-15 11.146v-5.6919h1.1121v-2.2758c0-1.7643 1.4402-3.1788 3.2284-3.1788h3.32c0.71002 0 1.3679 0.22644 1.9021 0.61057-0.20401 0.82553-0.47639 1.6241-0.81078 2.3894h0.24821v8h-6v-1.3092c-0.93522 0.5908-1.9403 1.0811-3 1.4557h-6.6613e-15z" fill="#FFF"/>
  <path id="path27" transform="translate(21 19)" d="m3 9v-1h6v1h-6zm0 2v-1h6v1h-6zm1-8h4v3h-4v-3zm5.8889 3.4545v-3.2758c0-1.202-0.99794-2.1788-2.2284-2.1788h-3.32c-1.2449 0-2.2284 0.97576-2.2284 2.1788v3.2758h-1.1121v6.5455h10v-6.5455h-1.1111z" fill="#666"/>
 </g>
</svg>
