<?xml version="1.0" encoding="UTF-8" standalone="no"?>
<svg
   id="svg31"
   version="1.1"
   viewBox="0 0 32 32"
   xmlns="http://www.w3.org/2000/svg"
   xmlns:svg="http://www.w3.org/2000/svg">
  <defs
     id="defs7">
    <linearGradient
       id="announce_read_locked_mine-a"
       x1="15"
       x2="15"
       y2="27.5"
       y1="2.5"
       gradientUnits="userSpaceOnUse"
       gradientTransform="translate(1,1)">
      <stop
         id="stop2"
         stop-color="#DBDEE3"
         offset="0" />
      <stop
         id="stop4"
         stop-color="#FDFDFD"
         offset="1" />
    </linearGradient>
  </defs>
  <path
     id="path9"
     d="M 0,0 H 32 V 32 H 0 Z"
     style="fill:none;fill-rule:evenodd" />
  <path
     id="path11"
     d="M 31,16 C 31,24.2838 24.2844,31 16,31 7.7156,31 1,24.2838 1,16 1,7.7156 7.7156,1 16,1 24.2844,1 31,7.7156 31,16"
     fill="#0bde74"
     style="fill-rule:evenodd" />
  <path
     id="path13"
     d="M 30,16 C 30,23.7315 23.7321,30 16,30 8.2679,30 2,23.7315 2,16 2,8.2679 8.2679,2 16,2 23.7321,2 30,8.2679 30,16"
     fill="#0bde74"
     style="fill-rule:evenodd" />
  <path
     id="path17"
     d="M 28.5,16 C 28.5,22.9031 22.9036,28.5 16,28.5 9.0964,28.5 3.5,22.9031 3.5,16 3.5,9.0964 9.0964,3.5 16,3.5 22.9036,3.5 28.5,9.0964 28.5,16"
     fill="url(#announce_read_locked_mine-a)"
     style="fill:url(#announce_read_locked_mine-a);fill-rule:evenodd" />
  <path
     id="path19"
     d="m 14.952,14.795 c 0.24658,-0.43836 0,-0.65753 -0.24658,-0.65753 -0.9863,0 -2.3425,2.0822 -2.8356,2.0822 -0.24658,0 -0.36986,-0.21918 -0.36986,-0.32877 0,-0.43836 1.2329,-1.4247 1.6027,-1.7534 1.1096,-0.87671 2.589,-1.6438 4.1918,-1.6438 1.2329,0 2.4658,0.65753 1.4795,3.0685 l -1.9726,4.8219 c -0.24658,0.21918 -0.61644,0.87671 -0.61644,1.3151 0,0.21918 0.12329,0.32877 0.36986,0.32877 0.86301,0 2.3425,-2.0822 2.7123,-2.0822 0.12329,0 0.36986,0.10959 0.36986,0.32877 0,0.65753 -3.2055,3.726 -6.0411,3.726 -0.9863,0 -1.726,-0.43836 -1.726,-1.3151 0,-1.2055 0.9863,-3.1781 1.1096,-3.6164 l 1.9726,-4.274 z m 1.4795,-4.8219 c 0,-1.0959 1.1096,-1.9726 2.2192,-1.9726 1.1096,0 1.8493,0.65753 1.8493,1.6438 0,1.0959 -1.1096,1.9726 -2.3425,1.9726 -0.9863,0 -1.726,-0.65753 -1.726,-1.6438 z"
     fill="#666666"
     style="fill-rule:evenodd" />
  <path
     id="path21"
     d="m 30.221,11.215 -3.2195,-1.7806 -4.4084,2.4366 0.83972,-5.1519 -3.5084,-3.5946 2.9659,-0.45213 c 3.4282,1.7759 6.0839,4.8356 7.3307,8.5427 z"
     fill="#ffffff"
     style="fill-rule:evenodd" />
  <path
     id="path23"
     d="M 27.001,8.292 30.089,10 29.499,6.382 32,3.82 28.545,3.29 26.999,0 25.455,3.293 22,3.82 24.501,6.382 23.911,10 Z"
     fill="#e60026"
     style="fill-rule:evenodd" />
  <path
     id="path25"
     d="m 21,30.146 v -5.6919 h 1.1121 v -2.2758 c 0,-1.7643 1.4402,-3.1788 3.2284,-3.1788 h 3.32 c 0.71002,0 1.3679,0.22644 1.9021,0.61057 -0.20401,0.82553 -0.47639,1.6241 -0.81078,2.3894 h 0.24821 v 8 h -6 v -1.3092 c -0.93522,0.5908 -1.9403,1.0811 -3,1.4557 v 0 z"
     fill="#ffffff"
     style="fill-rule:evenodd" />
  <path
     id="path27"
     d="m 24,28 v -1 h 6 v 1 z m 0,2 v -1 h 6 v 1 z m 1,-8 h 4 v 3 h -4 z m 5.8889,3.4545 v -3.2758 c 0,-1.202 -0.99794,-2.1788 -2.2284,-2.1788 h -3.32 c -1.2449,0 -2.2284,0.97576 -2.2284,2.1788 v 3.2758 H 22 V 32 h 10 v -6.5455 z"
     fill="#666666"
     style="fill-rule:evenodd" />
</svg>
