<?xml version="1.0" encoding="UTF-8"?>
<svg width="32" height="32" viewBox="0 0 32 32" xmlns="http://www.w3.org/2000/svg">
 <defs>
  <style>.cls-1 {
        fill: none;
      }

      .cls-2, .cls-6 {
        fill: #cb0033;
      }

      .cls-3 {
        fill: #cb0033;
      }

      .cls-4 {
        fill: #fff;
      }

      .cls-5 {
        fill: url(#Nepojmenovaný_přechod_27);
      }

      .cls-6 {
        fill-rule: evenodd;
      }</style>
  <linearGradient id="Nepojmenovaný_přechod_27" x1="-50.78" x2="-50.78" y1="-62.08" y2="-63.08" data-name="Nepojmenovaný přechod 27" gradientTransform="matrix(25 0 0 -25 1285.5 -1548.5)" gradientUnits="userSpaceOnUse">
   <stop stop-color="#dbdee3" offset="0"/>
   <stop stop-color="#fdfdfd" offset="1"/>
  </linearGradient>
 </defs>
 <title>Datový zdroj 8</title>
 <g id="Vrstva_2" data-name="Vrstva 2">
  <g id="Vrstva_1-2" data-name="Vrstva 1">
   <g id="unread">
    <g id="announce_unread" data-name="announce unread">
     <path class="cls-1" d="M0,0H32V32H0Z"/>
     <path class="cls-2" d="M31,16A15,15,0,1,1,16,1,15,15,0,0,1,31,16"/>
     <path class="cls-3" d="M30,16A14,14,0,1,1,16,2,14,14,0,0,1,30,16"/>
     <path class="cls-4" d="M29.5,16A13.5,13.5,0,1,1,16,2.5,13.49,13.49,0,0,1,29.5,16"/>
     <path class="cls-5" d="M28.5,16A12.5,12.5,0,1,1,16,3.5,12.5,12.5,0,0,1,28.5,16"/>
     <path class="cls-6" d="M18.65,8a2.18,2.18,0,0,0-2.22,2,1.62,1.62,0,0,0,1.73,1.65,2.22,2.22,0,0,0,2.34-2A1.66,1.66,0,0,0,18.65,8Zm-3.94,6.14c.24,0,.49.22.24.65l-2,4.28a13.87,13.87,0,0,0-1.11,3.61c0,.88.74,1.32,1.73,1.32,2.83,0,6-3.07,6-3.73,0-.22-.25-.32-.37-.32C18.9,20,17.42,22,16.55,22c-.24,0-.37-.11-.37-.33a2.27,2.27,0,0,1,.62-1.32l2-4.82c1-2.41-.24-3.07-1.48-3.07a7,7,0,0,0-4.19,1.65c-.37.33-1.6,1.31-1.6,1.75a.37.37,0,0,0,.37.33C12.36,16.22,13.72,14.14,14.71,14.14Z"/>
    </g>
   </g>
  </g>
 </g>
</svg>
