<?xml version="1.0" encoding="UTF-8"?>
<svg width="32" height="32" viewBox="0 0 32 32" xmlns="http://www.w3.org/2000/svg">
 <defs>
  <style>.cls-1 {
        fill: none;
      }

      .cls-2, .cls-6 {
        fill: #cb0033;
      }

      .cls-3 {
        fill: #cb0033;
      }

      .cls-4 {
        fill: #fff;
      }

      .cls-5 {
        fill: url(#Nepojmenovaný_přechod_32);
      }

      .cls-6 {
        fill-rule: evenodd;
      }</style>
  <linearGradient id="Nepojmenovaný_přechod_32" x1="-82.78" x2="-82.78" y1="-30.08" y2="-31.08" data-name="Nepojmenovaný přechod 32" gradientTransform="matrix(25 0 0 -25 2085.5 -748.5)" gradientUnits="userSpaceOnUse">
   <stop stop-color="#dbdee3" offset="0"/>
   <stop stop-color="#fdfdfd" offset="1"/>
  </linearGradient>
 </defs>
 <title>Datový zdroj 4</title>
 <g id="Vrstva_2" data-name="Vrstva 2">
  <g id="Vrstva_1-2" data-name="Vrstva 1">
   <g id="unread">
    <g id="forum_unread_locked" data-name="forum unread locked">
     <path class="cls-1" d="M0,0H32V32H0Z"/>
     <path class="cls-2" d="M31,16A15,15,0,1,1,16,1,15,15,0,0,1,31,16"/>
     <path class="cls-3" d="M30,16A14,14,0,1,1,16,2,14,14,0,0,1,30,16"/>
     <path class="cls-4" d="M29.5,16A13.5,13.5,0,1,1,16,2.5,13.49,13.49,0,0,1,29.5,16"/>
     <path class="cls-5" d="M28.5,16A12.5,12.5,0,1,1,16,3.5,12.5,12.5,0,0,1,28.5,16"/>
     <path class="cls-6" d="M21.06,10.91v4.36H22.5V24H9.5V15.27H11V10.91A2.88,2.88,0,0,1,13.84,8h4.32A2.9,2.9,0,0,1,21.06,10.91Zm-7.23,0h4.34v4.36H13.83Zm-.72,6.54v1.46h5.78V17.45Zm0,2.91v1.46h5.78V20.36Z"/>
    </g>
   </g>
  </g>
 </g>
</svg>
