<?xml version="1.0" encoding="UTF-8" standalone="no"?>
<svg
   width="32"
   height="32"
   viewBox="0 0 32 32"
   version="1.1"
   id="svg7"
   xmlns="http://www.w3.org/2000/svg"
   xmlns:svg="http://www.w3.org/2000/svg"
   xmlns:rdf="http://www.w3.org/1999/02/22-rdf-syntax-ns#"
   xmlns:cc="http://creativecommons.org/ns#"
   xmlns:dc="http://purl.org/dc/elements/1.1/">
  <defs
     id="defs2">
    <style
       id="style1">.cls-1 {
        fill: none;
      }

      .cls-2, .cls-6 {
        fill: #66ccff;
      }

      .cls-3 {
        fill: #66ccff;
      }

      .cls-4 {
        fill: #fff;
      }

      .cls-5 {
        fill: #fff
      }

      .cls-6 {
        fill-rule: evenodd;
      }</style>
    <linearGradient
       id="Nepojmenovaný_přechod_32"
       x1="-82.78"
       x2="-82.78"
       y1="-30.08"
       y2="-31.08"
       data-name="Nepojmenovaný přechod 32"
       gradientTransform="matrix(25 0 0 -25 2085.5 -748.5)"
       gradientUnits="userSpaceOnUse">
      <stop
         stop-color="#dbdee3"
         offset="0"
         id="stop1" />
      <stop
         stop-color="#fdfdfd"
         offset="1"
         id="stop2" />
    </linearGradient>
  </defs>
  <title
     id="title2">Datový zdroj 4</title>
  <path
     class="cls-1"
     d="M 0,0 H 32 V 32 H 0 Z"
     id="path2" />
  <path
     class="cls-2"
     d="M 31,16 A 15,15 0 1 1 16,1 15,15 0 0 1 31,16"
     id="path3" />
  <path
     class="cls-3"
     d="M 30,16 A 14,14 0 1 1 16,2 14,14 0 0 1 30,16"
     id="path4" />
  <path
     class="cls-5"
     d="M 28.5,16 A 12.5,12.5 0 1 1 16,3.5 12.5,12.5 0 0 1 28.5,16"
     id="path6" />
  <path
     class="cls-6"
     d="m 21.06,10.91 v 4.36 H 22.5 V 24 H 9.5 V 15.27 H 11 V 10.91 A 2.88,2.88 0 0 1 13.84,8 h 4.32 a 2.9,2.9 0 0 1 2.9,2.91 z m -7.23,0 h 4.34 v 4.36 h -4.34 z m -0.72,6.54 v 1.46 h 5.78 v -1.46 z m 0,2.91 v 1.46 h 5.78 v -1.46 z"
     id="path7" />
  <metadata
     id="metadata7">
    <rdf:RDF>
      <cc:Work
         rdf:about="">
        <dc:title>Datový zdroj 4</dc:title>
      </cc:Work>
    </rdf:RDF>
  </metadata>
</svg>
