<?xml version="1.0" encoding="UTF-8"?>
<svg id="svg35" version="1.1" viewBox="0 0 32 32" xmlns="http://www.w3.org/2000/svg">
 <defs id="defs7">
  <linearGradient id="forum_read_subforum-a" x1="50%" x2="50%" y2="100%">
   <stop id="stop2" stop-color="#DBDEE3" offset="0"/>
   <stop id="stop4" stop-color="#FDFDFD" offset="1"/>
  </linearGradient>
 </defs>
 <g id="g33" fill="none" fill-rule="evenodd">
  <path id="path9" d="m0 0h32v32h-32z"/>
  <path id="path11" transform="translate(1 1)" d="m30 15c0 8.2838-6.7156 15-15 15s-15-6.7162-15-15c0-8.2844 6.7156-15 15-15s15 6.7156 15 15" fill="#2fb99d"/>
  <path id="path13" transform="translate(1 1)" d="m29 15c0 7.7315-6.2679 14-14 14-7.7321 0-14-6.2685-14-14 0-7.7321 6.2679-14 14-14 7.7321 0 14 6.2679 14 14" fill="#2fb99d"/>
  <path id="path15" transform="translate(1 1)" d="m28.5 15c0 7.4554-6.0441 13.5-13.5 13.5s-13.5-6.0446-13.5-13.5c0-7.4559 6.0441-13.5 13.5-13.5s13.5 6.0441 13.5 13.5" fill="#FFF"/>
  <path id="path17" transform="translate(1 1)" d="m27.5 15c0 6.9031-5.5964 12.5-12.5 12.5-6.9036 0-12.5-5.5969-12.5-12.5 0-6.9036 5.5964-12.5 12.5-12.5 6.9036 0 12.5 5.5964 12.5 12.5" fill="url(#forum_read_subforum-a)"/>
  <path id="path19" d="m8.3636 24h7.6364v-1h-8v1h0.36364zm0.045455-3h8.5909v-1h-9v1h0.40909zm0.25758-3h7.3333v-1h-8v1h0.66667zm0.060606-3h15.273v-1h-16v1h0.72727zm0-3h15.273v-1h-16v1h0.72727zm-0.060606-3h7.3333v-1h-8v1h0.66667z" fill="#666"/>
  <path id="path21" transform="translate(17 17)" d="m8 3.5527e-15c2.1965 0 4.1862 0.88514 5.6318 2.3182-1.2694 5.6199-5.6934 10.044-11.313 11.313-1.4334-1.4457-2.3185-3.4354-2.3185-5.6316 0-4.4183 3.5817-8 8-8z" fill="#FFF"/>
  <path id="path23" transform="translate(17 17)" d="m15 8c0 3.8658-3.134 7-7 7-3.866 0-7-3.1342-7-7 0-3.866 3.134-7 7-7 3.866 0 7 3.134 7 7" fill="#2fb99d"/>
  <path id="path25" transform="translate(17 17)" d="m14 8c0 3.3135-2.6862 6-6 6s-6-2.6865-6-6c0-3.3138 2.6862-6 6-6s6 2.6862 6 6" fill="#2fb99d"/>
  <path id="path27" transform="translate(17 17)" d="m13.5 8c0 3.0374-2.4624 5.5-5.5 5.5-3.0376 0-5.5-2.4626-5.5-5.5 0-3.0376 2.4624-5.5 5.5-5.5 3.0376 0 5.5 2.4624 5.5 5.5" fill="#FFF"/>
  <path id="path29" transform="translate(17 17)" d="m12.75 8c0 2.6232-2.1266 4.75-4.75 4.75-2.6234 0-4.75-2.1268-4.75-4.75 0-2.6234 2.1266-4.75 4.75-4.75 2.6234 0 4.75 2.1266 4.75 4.75" fill="url(#forum_read_subforum-a)"/>
  <path id="path31" d="m22.273 27.5h5.7273v-1h-6v1h0.27273zm0-2h5.7273v-1h-6v1h0.27273zm-0.022727-2h2.75v-1h-3v1h0.25z" fill="#666"/>
 </g>
</svg>
