<?xml version="1.0" encoding="UTF-8" standalone="no"?>
<svg
   id="svg23"
   version="1.1"
   viewBox="0 0 32 32"
   xmlns="http://www.w3.org/2000/svg"
   xmlns:svg="http://www.w3.org/2000/svg">
  <defs
     id="defs7">
    <linearGradient
       id="forum_read_locked-a"
       x1="15"
       x2="15"
       y2="27.5"
       y1="2.5"
       gradientUnits="userSpaceOnUse"
       gradientTransform="translate(1,1)">
      <stop
         id="stop2"
         stop-color="#DBDEE3"
         offset="0" />
      <stop
         id="stop4"
         stop-color="#FDFDFD"
         offset="1" />
    </linearGradient>
  </defs>
  <path
     id="path9"
     d="M 0,0 H 32 V 32 H 0 Z"
     style="fill:none;fill-rule:evenodd" />
  <path
     id="path11"
     d="M 31,16 C 31,24.2838 24.2844,31 16,31 7.7156,31 1,24.2838 1,16 1,7.7156 7.7156,1 16,1 24.2844,1 31,7.7156 31,16"
     fill="#808080"
     style="fill-rule:evenodd" />
  <path
     id="path13"
     d="M 30,16 C 30,23.7315 23.7321,30 16,30 8.2679,30 2,23.7315 2,16 2,8.2679 8.2679,2 16,2 23.7321,2 30,8.2679 30,16"
     fill="#808080"
     style="fill-rule:evenodd" />
  <path
     id="path17"
     d="M 28.5,16 C 28.5,22.9031 22.9036,28.5 16,28.5 9.0964,28.5 3.5,22.9031 3.5,16 3.5,9.0964 9.0964,3.5 16,3.5 22.9036,3.5 28.5,9.0964 28.5,16"
     fill="url(#forum_read_locked-a)"
     style="fill:url(#forum_read_locked-a);fill-rule:evenodd" />
  <path
     id="path19"
     d="m 13.111,18.909 v -1.4545 h 5.7778 v 1.4545 z m 0,2.9091 v -1.4545 h 5.7778 v 1.4545 z m 0.72222,-10.909 h 4.3333 v 4.3636 h -4.3333 z m 7.2222,4.3636 V 10.905 c 0,-1.6027 -1.2973,-2.9051 -2.8969,-2.9051 h -4.3159 c -1.6183,0 -2.8969,1.301 -2.8969,2.9051 v 4.3677 H 9.49992 V 24 h 13 v -8.7273 h -1.4444 z"
     fill="#666666"
     style="fill-rule:evenodd" />
</svg>
