<?xml version="1.0" encoding="UTF-8" standalone="no"?>
<svg
   width="32"
   height="32"
   viewBox="0 0 32 32"
   version="1.1"
   id="svg13"
   xmlns:xlink="http://www.w3.org/1999/xlink"
   xmlns="http://www.w3.org/2000/svg"
   xmlns:svg="http://www.w3.org/2000/svg"
   xmlns:rdf="http://www.w3.org/1999/02/22-rdf-syntax-ns#"
   xmlns:cc="http://creativecommons.org/ns#"
   xmlns:dc="http://purl.org/dc/elements/1.1/">
  <defs
     id="defs2">
    <style
       id="style1">.cls-1 {
        fill: none;
      }

      .cls-2, .cls-6 {
        fill: #69b53f;
      }

      .cls-3 {
        fill: #69b53f;
      }

      .cls-4, .cls-7 {
        fill: #fff;
      }

       .cls-5 {
        fill: #c1eeaa
      }

      .cls-6, .cls-7 {
        fill-rule: evenodd;
      }

      .cls-8 {
        fill: #fff
      }</style>
    <linearGradient
       id="Nepojmenovaný_přechod_34"
       x1="-82.78"
       x2="-82.78"
       y1="33.92"
       y2="32.92"
       data-name="Nepojmenovaný přechod 34"
       gradientTransform="matrix(25 0 0 -25 2085.5 851.5)"
       gradientUnits="userSpaceOnUse">
      <stop
         stop-color="#dbdee3"
         offset="0"
         id="stop1" />
      <stop
         stop-color="#fdfdfd"
         offset="1"
         id="stop2" />
    </linearGradient>
    <linearGradient
       id="Nepojmenovaný_přechod_34-2"
       x1="-94.66"
       x2="-94.66"
       y1="50.11"
       y2="49.11"
       gradientTransform="matrix(9.5 0 0 -9.5 924.25 496.25)"
       xlink:href="#Nepojmenovaný_přechod_34" />
  </defs>
  <title
     id="title2">Datový zdroj 10</title>
  <path
     class="cls-1"
     d="M 0,0 H 32 V 32 H 0 Z"
     id="path2" />
  <path
     class="cls-2"
     d="M 31,16 A 15,15 0 1 1 16,1 15,15 0 0 1 31,16"
     id="path3" />
  <path
     class="cls-3"
     d="M 30,16 A 14,14 0 1 1 16,2 14,14 0 0 1 30,16"
     id="path4" />
  <path
     class="cls-5"
     d="M 28.5,16 A 12.5,12.5 0 1 1 16,3.5 12.5,12.5 0 0 1 28.5,16"
     id="path6" />
  <path
     class="cls-6"
     d="M 16,9 H 8 V 8 h 8 z m -8,2 v 1 h 16 v -1 z m 16,3 v 1 H 8 V 14 Z M 8,18 h 8 V 17 H 8 Z m 9,3 H 8 v -1 h 9 z m -1,3 H 8 v -1 h 8 z"
     id="path7" />
  <path
     class="cls-7"
     d="M 19.32,30.63 A 8,8 0 0 1 30.63,19.32 15,15 0 0 1 19.32,30.63 Z"
     id="path8" />
  <path
     class="cls-2"
     d="m 32,25 a 7,7 0 1 1 -7,-7 7,7 0 0 1 7,7"
     id="path9" />
  <path
     class="cls-3"
     d="m 31,25 a 6,6 0 1 1 -6,-6 6,6 0 0 1 6,6"
     id="path10" />
  <path
     class="cls-4"
     d="M 30.5,25 A 5.5,5.5 0 1 1 25,19.5 5.5,5.5 0 0 1 30.5,25"
     id="path11" />
  <path
     class="cls-8"
     d="M 29.75,25 A 4.75,4.75 0 1 1 25,20.25 4.75,4.75 0 0 1 29.75,25"
     id="path12" />
  <path
     class="cls-6"
     d="m 25,23.5 h -3 v -1 h 3 z m -3,1 v 1 h 6 v -1 z m 0,2 v 1 h 6 v -1 z"
     id="path13" />
  <metadata
     id="metadata13">
    <rdf:RDF>
      <cc:Work
         rdf:about="">
        <dc:title>Datový zdroj 10</dc:title>
      </cc:Work>
    </rdf:RDF>
  </metadata>
</svg>
