<?xml version="1.0" encoding="UTF-8" standalone="no"?>
<svg
   id="svg35"
   version="1.1"
   viewBox="0 0 32 32"
   xmlns:xlink="http://www.w3.org/1999/xlink"
   xmlns="http://www.w3.org/2000/svg"
   xmlns:svg="http://www.w3.org/2000/svg">
  <defs
     id="defs7">
    <linearGradient
       id="forum_read_subforum-a"
       x1="50%"
       x2="50%"
       y2="100%">
      <stop
         id="stop2"
         stop-color="#DBDEE3"
         offset="0" />
      <stop
         id="stop4"
         stop-color="#FDFDFD"
         offset="1" />
    </linearGradient>
    <linearGradient
       xlink:href="#forum_read_subforum-a"
       id="linearGradient1"
       x1="15"
       x2="15"
       y2="27.5"
       y1="2.5"
       gradientUnits="userSpaceOnUse"
       gradientTransform="translate(1,1)" />
    <linearGradient
       xlink:href="#forum_read_subforum-a"
       id="linearGradient2"
       x1="8"
       x2="8"
       y2="12.75"
       y1="3.25"
       gradientUnits="userSpaceOnUse"
       gradientTransform="translate(17,17)" />
  </defs>
  <path
     id="path9"
     d="M 0,0 H 32 V 32 H 0 Z"
     style="fill:none;fill-rule:evenodd" />
  <path
     id="path11"
     d="M 31,16 C 31,24.2838 24.2844,31 16,31 7.7156,31 1,24.2838 1,16 1,7.7156 7.7156,1 16,1 24.2844,1 31,7.7156 31,16"
     fill="#0bde74"
     style="fill-rule:evenodd" />
  <path
     id="path13"
     d="M 30,16 C 30,23.7315 23.7321,30 16,30 8.2679,30 2,23.7315 2,16 2,8.2679 8.2679,2 16,2 23.7321,2 30,8.2679 30,16"
     fill="#0bde74"
     style="fill-rule:evenodd" />
  <path
     id="path17"
     d="M 28.5,16 C 28.5,22.9031 22.9036,28.5 16,28.5 9.0964,28.5 3.5,22.9031 3.5,16 3.5,9.0964 9.0964,3.5 16,3.5 22.9036,3.5 28.5,9.0964 28.5,16"
     fill="url(#forum_read_subforum-a)"
     style="fill:url(#linearGradient1);fill-rule:evenodd" />
  <path
     id="path19"
     d="M 8.3636,24 H 16 V 23 H 8 v 1 h 0.36364 z m 0.045455,-3 h 8.5909 v -1 h -9 v 1 h 0.40909 z m 0.25758,-3 h 7.3333 v -1 h -8 v 1 h 0.66667 z m 0.060606,-3 h 15.273 v -1 h -16 v 1 h 0.72727 z m 0,-3 h 15.273 v -1 h -16 v 1 h 0.72727 z M 8.666635,9 h 7.3333 V 8 h -8 v 1 h 0.66667 z"
     fill="#666666"
     style="fill-rule:evenodd" />
  <path
     id="path21"
     d="m 25,17 c 2.1965,0 4.1862,0.88514 5.6318,2.3182 -1.2694,5.6199 -5.6934,10.044 -11.313,11.313 -1.4334,-1.4457 -2.3185,-3.4354 -2.3185,-5.6316 0,-4.4183 3.5817,-8 8,-8 z"
     fill="#ffffff"
     style="fill-rule:evenodd" />
  <path
     id="path23"
     d="m 32,25 c 0,3.8658 -3.134,7 -7,7 -3.866,0 -7,-3.1342 -7,-7 0,-3.866 3.134,-7 7,-7 3.866,0 7,3.134 7,7"
     fill="#0bde74"
     style="fill-rule:evenodd" />
  <path
     id="path25"
     d="m 31,25 c 0,3.3135 -2.6862,6 -6,6 -3.3138,0 -6,-2.6865 -6,-6 0,-3.3138 2.6862,-6 6,-6 3.3138,0 6,2.6862 6,6"
     fill="#0bde74"
     style="fill-rule:evenodd" />
  <path
     id="path27"
     d="m 30.5,25 c 0,3.0374 -2.4624,5.5 -5.5,5.5 -3.0376,0 -5.5,-2.4626 -5.5,-5.5 0,-3.0376 2.4624,-5.5 5.5,-5.5 3.0376,0 5.5,2.4624 5.5,5.5"
     fill="#ffffff"
     style="fill-rule:evenodd" />
  <path
     id="path29"
     d="m 29.75,25 c 0,2.6232 -2.1266,4.75 -4.75,4.75 -2.6234,0 -4.75,-2.1268 -4.75,-4.75 0,-2.6234 2.1266,-4.75 4.75,-4.75 2.6234,0 4.75,2.1266 4.75,4.75"
     fill="url(#forum_read_subforum-a)"
     style="fill:url(#linearGradient2);fill-rule:evenodd" />
  <path
     id="path31"
     d="m 22.273,27.5 h 5.7273 v -1 h -6 v 1 h 0.27273 z m 0,-2 h 5.7273 v -1 h -6 v 1 h 0.27273 z m -0.02273,-2 h 2.75 v -1 h -3 v 1 z"
     fill="#666666"
     style="fill-rule:evenodd" />
</svg>
