<?xml version="1.0" encoding="UTF-8" standalone="no"?>
<svg
   id="svg25"
   version="1.1"
   viewBox="0 0 32 32"
   xmlns="http://www.w3.org/2000/svg"
   xmlns:svg="http://www.w3.org/2000/svg">
  <defs
     id="defs7">
    <linearGradient
       id="forum_link-a"
       x1="15"
       x2="15"
       y2="27.5"
       y1="2.5"
       gradientUnits="userSpaceOnUse"
       gradientTransform="translate(1,1)">
      <stop
         id="stop2"
         stop-color="#DBDEE3"
         offset="0" />
      <stop
         id="stop4"
         stop-color="#FDFDFD"
         offset="1" />
    </linearGradient>
  </defs>
  <path
     id="path9"
     d="M 0,0 H 32 V 32 H 0 Z"
     style="fill:none;fill-rule:evenodd" />
  <path
     id="path11"
     d="M 31,16 C 31,24.2838 24.2844,31 16,31 7.7156,31 1,24.2838 1,16 1,7.7156 7.7156,1 16,1 24.2844,1 31,7.7156 31,16"
     fill="#2fb99d"
     style="fill-rule:evenodd" />
  <path
     id="path13"
     d="M 30,16 C 30,23.7315 23.7321,30 16,30 8.2679,30 2,23.7315 2,16 2,8.2679 8.2679,2 16,2 23.7321,2 30,8.2679 30,16"
     fill="#2fb99d"
     style="fill-rule:evenodd" />
  <path
     id="path15"
     d="M 29.5,16 C 29.5,23.4554 23.4559,29.5 16,29.5 8.5441,29.5 2.5,23.4554 2.5,16 2.5,8.5441 8.5441,2.5 16,2.5 23.4559,2.5 29.5,8.5441 29.5,16"
     fill="#ffffff"
     style="fill-rule:evenodd" />
  <path
     id="path17"
     d="M 28.5,16 C 28.5,22.9031 22.9036,28.5 16,28.5 9.0964,28.5 3.5,22.9031 3.5,16 3.5,9.0964 9.0964,3.5 16,3.5 22.9036,3.5 28.5,9.0964 28.5,16"
     fill="url(#forum_link-a)"
     style="fill:url(#forum_link-a);fill-rule:evenodd" />
  <path
     id="path19"
     d="m 24,23 v 1 H 8 v -1 z m 0,-3 v 1 H 8 v -1 z m -8,-3 v 1 H 8 v -1 z"
     fill="#666666"
     style="fill-rule:evenodd" />
  <path
     id="path21"
     d="M 12.601,9.992 H 8.035 V 8 H 16 v 7.965 H 14.008 V 11.399 L 9.407,16 8,14.593 Z"
     fill="#2fb99d"
     style="fill-rule:evenodd" />
</svg>
