<?xml version="1.0" encoding="UTF-8" standalone="no"?>
<svg
   id="svg39"
   version="1.1"
   viewBox="0 0 32 32"
   xmlns="http://www.w3.org/2000/svg"
   xmlns:svg="http://www.w3.org/2000/svg">
  <defs
     id="defs7">
    <linearGradient
       id="sticky_read_locked_mine-a"
       x1="13.833607"
       x2="13.833607"
       y2="24.071823"
       gradientTransform="matrix(0.86745308,0,0,1.1528001,4,1)"
       y1="2.1686327"
       gradientUnits="userSpaceOnUse">
      <stop
         id="stop2"
         stop-color="#DBDEE3"
         offset="0" />
      <stop
         id="stop4"
         stop-color="#FDFDFD"
         offset="1" />
    </linearGradient>
  </defs>
  <path
     id="path9"
     d="M 0,0 H 32 V 32 H 0 Z"
     style="fill:none;fill-rule:evenodd" />
  <path
     id="path11"
     d="M 28,13 C 28,19.627 22.6275,25 16,25 9.3725,25 4,19.627 4,13 4,6.3725 9.3725,1 16,1 22.6275,1 28,6.3725 28,13"
     fill="#9f9f9f"
     style="fill-rule:evenodd" />
  <path
     id="path13"
     d="m 23,24 c 0,3.8658 -3.134,7 -7,7 -3.866,0 -7,-3.1342 -7,-7 0,-3.866 3.134,-7 7,-7 3.866,0 7,3.134 7,7"
     fill="#9f9f9f"
     style="fill-rule:evenodd" />
  <path
     id="path15"
     d="M 27,13 C 27,19.0748 22.0752,24 16,24 9.9248,24 5,19.0748 5,13 5,6.9248 9.9248,2 16,2 22.0752,2 27,6.9248 27,13"
     fill="#9f9f9f"
     style="fill-rule:evenodd" />
  <path
     id="path17"
     d="m 22,24 c 0,3.3135 -2.6862,6 -6,6 -3.3138,0 -6,-2.6865 -6,-6 0,-3.3138 2.6862,-6 6,-6 3.3138,0 6,2.6862 6,6"
     fill="#9f9f9f"
     style="fill-rule:evenodd" />
  <path
     id="path23"
     d="m 16,3.5 c 5.2468,0 9.5,4.2532 9.5,9.5 0,3.7833 -2.2118,7.0503 -5.4129,8.5783 0.42116,0.70904 0.66294,1.5371 0.66294,2.4217 0,2.6232 -2.1266,4.75 -4.75,4.75 -2.6234,0 -4.75,-2.1268 -4.75,-4.75 0,-0.88457 0.24179,-1.7127 0.66287,-2.4218 C 8.71181,20.0503 6.50001,16.7833 6.50001,13 c 0,-5.2468 4.2532,-9.5 9.5,-9.5 z"
     fill="url(#sticky_read_locked_mine-a)"
     style="fill:url(#sticky_read_locked_mine-a);fill-rule:evenodd" />
  <path
     id="path25"
     d="m 16,25.688 c 1.0356,0 1.875,-0.74614 1.875,-1.6667 0,-0.92056 -0.83941,-1.6667 -1.875,-1.6667 -1.03559,0 -1.875,0.74614 -1.875,1.6667 0,0.92056 0.83941,1.6667 1.875,1.6667 z m 0,-4.6667 c 0,0 -2.625,-4.6667 -2.625,-7 0,-2.3333 2.625,-2.3333 2.625,-2.3333 0,0 2.625,0 2.625,2.3333 0,2.3333 -2.625,7 -2.625,7 z"
     fill="#666666"
     style="fill-rule:evenodd" />
  <path
     id="path27"
     d="M 10.545,10 H 22 V 9 H 10 v 1 h 0.54545 z M 10.49955,8 h 5.5 V 7 h -6 v 1 z"
     fill="#666666"
     style="fill-rule:evenodd" />
  <path
     id="path29"
     d="m 27.5513,9.738 -0.55016,-0.30339 -4.4084,2.4366 0.83972,-5.1519 -3.5084,-3.5946 2.3469,-0.35773 c 2.5392,1.5594 4.4535,4.0373 5.2803,6.9711 z"
     fill="#ffffff"
     style="fill-rule:evenodd" />
  <path
     id="path31"
     d="M 27.001,8.292 30.089,10 29.499,6.382 32,3.82 28.545,3.29 26.999,0 25.455,3.293 22,3.82 24.501,6.382 23.911,10 Z"
     fill="#1dcb73"
     style="fill-rule:evenodd" />
  <path
     id="path33"
     d="m 26.3945,19 c 0.53714,-0.92853 0.95344,-1.9357 1.2274,-3 h -2.2814 c -1.7882,0 -3.2284,1.4145 -3.2284,3.1788 v 2.2758 H 21 v 7.4444 c 1.2372,-1.2626 2,-2.9917 2,-4.8989 0,-0.40269 -0.034,-0.79743 -0.09929,-1.1815 0.38357,-0.27009 0.75061,-0.56209 1.0993,-0.87417 v 5.0557 h 6 v -8 h -3.6055 z"
     fill="#ffffff"
     style="fill-rule:evenodd" />
  <path
     id="path35"
     d="m 24,25 v -1 h 6 v 1 z m 0,2 v -1 h 6 v 1 z m 1,-8 h 4 v 3 h -4 z m 5.8889,3.4545 v -3.2758 c 0,-1.202 -0.99794,-2.1788 -2.2284,-2.1788 h -3.32 c -1.2449,0 -2.2284,0.97576 -2.2284,2.1788 v 3.2758 H 22 V 29 h 10 v -6.5455 z"
     fill="#666666"
     style="fill-rule:evenodd" />
</svg>
