<?xml version="1.0" encoding="UTF-8"?>
<svg id="svg39" version="1.1" viewBox="0 0 32 32" xmlns="http://www.w3.org/2000/svg">
 <defs id="defs7">
  <linearGradient id="sticky_read_locked_mine-a" x1="50%" x2="50%" y2="100%">
   <stop id="stop2" stop-color="#DBDEE3" offset="0"/>
   <stop id="stop4" stop-color="#FDFDFD" offset="1"/>
  </linearGradient>
 </defs>
 <g id="g37" fill="none" fill-rule="evenodd">
  <path id="path9" d="m0 0h32v32h-32z"/>
  <path id="path11" transform="translate(4 1)" d="m24 12c0 6.627-5.3725 12-12 12s-12-5.373-12-12c0-6.6275 5.3725-12 12-12s12 5.3725 12 12" fill="#2fb99d"/>
  <path id="path13" transform="translate(4 1)" d="m19 23c0 3.8658-3.134 7-7 7-3.866 0-7-3.1342-7-7 0-3.866 3.134-7 7-7 3.866 0 7 3.134 7 7" fill="#2fb99d"/>
  <path id="path15" transform="translate(4 1)" d="m23 12c0 6.0748-4.9248 11-11 11-6.0752 0-11-4.9252-11-11 0-6.0752 4.9248-11 11-11 6.0752 0 11 4.9248 11 11" fill="#2fb99d"/>
  <path id="path17" transform="translate(4 1)" d="m18 23c0 3.3135-2.6862 6-6 6s-6-2.6865-6-6c0-3.3138 2.6862-6 6-6s6 2.6862 6 6" fill="#2fb99d"/>
  <path id="path19" transform="translate(4 1)" d="m22.5 12c0 5.7986-4.7009 10.5-10.5 10.5s-10.5-4.7014-10.5-10.5c0-5.7991 4.7009-10.5 10.5-10.5s10.5 4.7009 10.5 10.5" fill="#FFF"/>
  <path id="path21" transform="translate(4 1)" d="m17.5 23c0 3.0374-2.4624 5.5-5.5 5.5-3.0376 0-5.5-2.4626-5.5-5.5 0-3.0376 2.4624-5.5 5.5-5.5 3.0376 0 5.5 2.4624 5.5 5.5" fill="#FFF"/>
  <path id="path23" transform="translate(4 1)" d="m12 2.5c5.2468 0 9.5 4.2532 9.5 9.5 0 3.7833-2.2118 7.0503-5.4129 8.5783 0.42116 0.70904 0.66294 1.5371 0.66294 2.4217 0 2.6232-2.1266 4.75-4.75 4.75-2.6234 0-4.75-2.1268-4.75-4.75 0-0.88457 0.24179-1.7127 0.66287-2.4218-3.2011-1.5279-5.4129-4.7949-5.4129-8.5782 0-5.2468 4.2532-9.5 9.5-9.5z" fill="url(#sticky_read_locked_mine-a)"/>
  <path id="path25" transform="translate(13 11)" d="m3 14.688c1.0356 0 1.875-0.74614 1.875-1.6667s-0.83941-1.6667-1.875-1.6667-1.875 0.74614-1.875 1.6667 0.83941 1.6667 1.875 1.6667zm0-4.6667s-2.625-4.6667-2.625-7c0-2.3333 2.625-2.3333 2.625-2.3333s2.625 0 2.625 2.3333c0 2.3333-2.625 7-2.625 7z" fill="#666"/>
  <path id="path27" d="m10.545 10h11.455v-1h-12v1h0.54545zm-0.045454-2h5.5v-1h-6v1h0.5z" fill="#666"/>
  <path id="path29" transform="translate(19)" d="m8.5513 9.738-0.55016-0.30339-4.4084 2.4366 0.83972-5.1519-3.5084-3.5946 2.3469-0.35773c2.5392 1.5594 4.4535 4.0373 5.2803 6.9711z" fill="#FFF"/>
  <path id="path31" transform="translate(19)" d="M8.001 8.292L11.089 10 10.499 6.382 13 3.82 9.545 3.29 7.999 0 6.455 3.293 3 3.82 5.501 6.382 4.911 10z" fill="#cb0033"/>
  <path id="path33" transform="translate(21 16)" d="m5.3945 3c0.53714-0.92853 0.95344-1.9357 1.2274-3l-2.2814-2.5091e-14c-1.7882 0-3.2284 1.4145-3.2284 3.1788v2.2758h-1.1121v7.4444c1.2372-1.2626 2-2.9917 2-4.8989 0-0.40269-0.034001-0.79743-0.099289-1.1815 0.38357-0.27009 0.75061-0.56209 1.0993-0.87417v5.0557h6v-8h-3.6055z" fill="#FFF"/>
  <path id="path35" transform="translate(21 16)" d="m3 9v-1h6v1h-6zm0 2v-1h6v1h-6zm1-8h4v3h-4v-3zm5.8889 3.4545v-3.2758c0-1.202-0.99794-2.1788-2.2284-2.1788h-3.32c-1.2449 0-2.2284 0.97576-2.2284 2.1788v3.2758h-1.1121v6.5455h10v-6.5455h-1.1111z" fill="#666"/>
 </g>
</svg>
