<?xml version="1.0" encoding="UTF-8"?>
<svg width="32" height="32" viewBox="0 0 32 32" xmlns="http://www.w3.org/2000/svg">
 <defs>
  <style>.cls-1 {
        fill: none;
      }

      .cls-2, .cls-6 {
        fill: #cb0033;
      }

      .cls-3 {
        fill: #cb0033;
      }

      .cls-4 {
        fill: #fff;
      }

      .cls-5, .cls-6 {
        fill-rule: evenodd;
      }

      .cls-5 {
        fill: url(#Nepojmenovaný_přechod_35);
      }</style>
  <linearGradient id="Nepojmenovaný_přechod_35" x1="-117.08" x2="-117.08" y1="-62.18" y2="-63.18" data-name="Nepojmenovaný přechod 35" gradientTransform="matrix(19 0 0 -25.25 2240.5 -1566.5)" gradientUnits="userSpaceOnUse">
   <stop stop-color="#dbdee3" offset="0"/>
   <stop stop-color="#fdfdfd" offset="1"/>
  </linearGradient>
 </defs>
 <title>Datový zdroj 15</title>
 <g id="Vrstva_2" data-name="Vrstva 2">
  <g id="Vrstva_1-2" data-name="Vrstva 1">
   <g id="unread">
    <g id="sticky_unread" data-name="sticky unread">
     <path class="cls-1" d="M0,0H32V32H0Z"/>
     <path class="cls-2" d="M28,13A12,12,0,1,1,16,1,12,12,0,0,1,28,13"/>
     <path class="cls-2" d="m23 24a7 7 0 1 1-7-7 7 7 0 0 1 7 7"/>
     <path class="cls-3" d="M27,13A11,11,0,1,1,16,2,11,11,0,0,1,27,13"/>
     <path class="cls-3" d="m22 24a6 6 0 1 1-6-6 6 6 0 0 1 6 6"/>
     <path class="cls-4" d="M26.5,13A10.5,10.5,0,1,1,16,2.5,10.5,10.5,0,0,1,26.5,13"/>
     <path class="cls-4" d="m21.5 24a5.5 5.5 0 1 1-5.5-5.5 5.5 5.5 0 0 1 5.5 5.5"/>
     <path class="cls-5" d="m20.09 21.58a9.5 9.5 0 1 0-8.18 0 4.75 4.75 0 1 0 8.18 0z"/>
     <path class="cls-6" d="m13.38 14c0 2.33 2.62 7 2.62 7s2.63-4.67 2.63-7-2.63-2.31-2.63-2.31-2.62 0-2.62 2.31zm4.5 10a1.78 1.78 0 0 1-1.88 1.69 1.68 1.68 0 1 1 0-3.34 1.78 1.78 0 0 1 1.88 1.65z"/>
     <path class="cls-6" d="M16,8H10V7h6Zm6,2H10V9H22Z"/>
    </g>
   </g>
  </g>
 </g>
</svg>
