<?xml version="1.0" encoding="UTF-8"?>
<svg id="svg31" version="1.1" viewBox="0 0 32 32" xmlns="http://www.w3.org/2000/svg">
 <defs id="defs7">
  <linearGradient id="sticky_read-a" x1="50%" x2="50%" y2="100%">
   <stop id="stop2" stop-color="#DBDEE3" offset="0"/>
   <stop id="stop4" stop-color="#FDFDFD" offset="1"/>
  </linearGradient>
 </defs>
 <g id="g29" fill="none" fill-rule="evenodd">
  <path id="path9" d="m0 0h32v32h-32z"/>
  <path id="path11" transform="translate(4 1)" d="m24 12c0 6.627-5.3725 12-12 12s-12-5.373-12-12c0-6.6275 5.3725-12 12-12s12 5.3725 12 12" fill="#2fb99d"/>
  <path id="path13" transform="translate(4 1)" d="m19 23c0 3.8658-3.134 7-7 7-3.866 0-7-3.1342-7-7 0-3.866 3.134-7 7-7 3.866 0 7 3.134 7 7" fill="#2fb99d"/>
  <path id="path15" transform="translate(4 1)" d="m23 12c0 6.0748-4.9248 11-11 11-6.0752 0-11-4.9252-11-11 0-6.0752 4.9248-11 11-11 6.0752 0 11 4.9248 11 11" fill="#2fb99d"/>
  <path id="path17" transform="translate(4 1)" d="m18 23c0 3.3135-2.6862 6-6 6s-6-2.6865-6-6c0-3.3138 2.6862-6 6-6s6 2.6862 6 6" fill="#2fb99d"/>
  <path id="path19" transform="translate(4 1)" d="m22.5 12c0 5.7986-4.7009 10.5-10.5 10.5s-10.5-4.7014-10.5-10.5c0-5.7991 4.7009-10.5 10.5-10.5s10.5 4.7009 10.5 10.5" fill="#FFF"/>
  <path id="path21" transform="translate(4 1)" d="m17.5 23c0 3.0374-2.4624 5.5-5.5 5.5-3.0376 0-5.5-2.4626-5.5-5.5 0-3.0376 2.4624-5.5 5.5-5.5 3.0376 0 5.5 2.4624 5.5 5.5" fill="#FFF"/>
  <path id="path23" transform="translate(4 1)" d="m12 2.5c5.2468 0 9.5 4.2532 9.5 9.5 0 3.7833-2.2118 7.0503-5.4129 8.5783 0.42116 0.70904 0.66294 1.5371 0.66294 2.4217 0 2.6232-2.1266 4.75-4.75 4.75-2.6234 0-4.75-2.1268-4.75-4.75 0-0.88457 0.24179-1.7127 0.66287-2.4218-3.2011-1.5279-5.4129-4.7949-5.4129-8.5782 0-5.2468 4.2532-9.5 9.5-9.5z" fill="url(#sticky_read-a)"/>
  <path id="path25" transform="translate(13 11)" d="m3 14.688c1.0356 0 1.875-0.74614 1.875-1.6667s-0.83941-1.6667-1.875-1.6667-1.875 0.74614-1.875 1.6667 0.83941 1.6667 1.875 1.6667zm0-4.6667s-2.625-4.6667-2.625-7c0-2.3333 2.625-2.3333 2.625-2.3333s2.625 0 2.625 2.3333c0 2.3333-2.625 7-2.625 7z" fill="#666"/>
  <path id="path27" d="m10.545 10h11.455v-1h-12v1h0.54545zm-0.045454-2h5.5v-1h-6v1h0.5z" fill="#666"/>
 </g>
</svg>
