<?xml version="1.0" encoding="UTF-8"?>
<svg width="32" height="32" viewBox="0 0 32 32" xmlns="http://www.w3.org/2000/svg">
 <defs>
  <style>.cls-1 {
        fill: none;
      }

      .cls-2 {
        fill: #cb0033;
      }

      .cls-3 {
        fill: #cb0033;
      }

      .cls-4 {
        fill: #fff;
      }

      .cls-5 {
        fill: url(#Nepojmenovaný_přechod_25);
      }</style>
  <linearGradient id="Nepojmenovaný_přechod_25" x1="-18.78" x2="-18.78" y1="65.92" y2="64.92" data-name="Nepojmenovaný přechod 25" gradientTransform="matrix(25 0 0 -25 485.5 1651.5)" gradientUnits="userSpaceOnUse">
   <stop stop-color="#dbdee3" offset="0"/>
   <stop stop-color="#fdfdfd" offset="1"/>
  </linearGradient>
 </defs>
 <title>Datový zdroj 18</title>
 <g id="Vrstva_2" data-name="Vrstva 2">
  <g id="Vrstva_1-2" data-name="Vrstva 1">
   <g id="unread">
    <g id="topic_unread_hot" data-name="topic unread hot">
     <path class="cls-1" d="M0,0H32V32H0Z"/>
     <path class="cls-2" d="M31,16A15,15,0,1,1,16,1,15,15,0,0,1,31,16"/>
     <path class="cls-3" d="M30,16A14,14,0,1,1,16,2,14,14,0,0,1,30,16"/>
     <path class="cls-4" d="M29.5,16A13.5,13.5,0,1,1,16,2.5,13.49,13.49,0,0,1,29.5,16"/>
     <path class="cls-5" d="M28.5,16A12.5,12.5,0,1,1,16,3.5,12.5,12.5,0,0,1,28.5,16"/>
     <path class="cls-2" d="M15,8c.89,2.27.43,3.51-.56,4.49s-2.76,1.9-3.94,3.49c-1.58,2.11-1.84,6.77,3.83,8-2.39-1.21-2.9-4.7-.32-6.88-.68,2.11.56,3.47,2.1,3a1.75,1.75,0,0,1,2.46,1.73,2,2,0,0,1-1.23,1.89,5.93,5.93,0,0,0,5.18-5.8c0-3-2.75-3.36-1.37-5.83-1.64.14-2.21,1.16-2.05,2.86a1.39,1.39,0,0,1-2,1.36A1.09,1.09,0,0,1,17,14.47c1.36-1.29,1.89-4.25-2-6.47Z"/>
    </g>
   </g>
  </g>
 </g>
</svg>
