<?xml version="1.0" encoding="UTF-8" standalone="no"?>
<svg
   width="32"
   height="32"
   viewBox="0 0 32 32"
   version="1.1"
   id="svg7"
   xmlns="http://www.w3.org/2000/svg"
   xmlns:svg="http://www.w3.org/2000/svg"
   xmlns:rdf="http://www.w3.org/1999/02/22-rdf-syntax-ns#"
   xmlns:cc="http://creativecommons.org/ns#"
   xmlns:dc="http://purl.org/dc/elements/1.1/">
  <defs
     id="defs2">
    <style
       id="style1">.cls-1 {
        fill: none;
      }

      .cls-2, .cls-6 {
        fill: #cb0033;
      }

      .cls-3 {
        fill: #cb0033;
      }

      .cls-4 {
        fill: #fff;
      }

      .cls-5 {
        fill: #fff
      }

      .cls-6 {
        fill-rule: evenodd;
      }</style>
    <linearGradient
       id="Nepojmenovaný_přechod_21"
       x1="-30.3"
       x2="-30.3"
       y1="-69.36"
       y2="-70.36"
       data-name="Nepojmenovaný přechod 21"
       gradientTransform="matrix(25 0 0 -25 773.5 -1730.5)"
       gradientUnits="userSpaceOnUse">
      <stop
         stop-color="#dbdee3"
         offset="0"
         id="stop1" />
      <stop
         stop-color="#fdfdfd"
         offset="1"
         id="stop2" />
    </linearGradient>
  </defs>
  <title
     id="title2">Datový zdroj 1</title>
  <path
     class="cls-1"
     d="M 0,0 H 32 V 32 H 0 Z"
     id="path2" />
  <path
     class="cls-2"
     d="M 31,16 A 15,15 0 1 1 16,1 15,15 0 0 1 31,16"
     id="path3" />
  <path
     class="cls-3"
     d="M 30,16 A 14,14 0 1 1 16,2 14,14 0 0 1 30,16"
     id="path4" />
  <path
     class="cls-4"
     d="M 29.5,16 A 13.5,13.5 0 1 1 16,2.5 13.49,13.49 0 0 1 29.5,16"
     id="path5" />
  <path
     class="cls-5"
     d="M 28.5,16 A 12.5,12.5 0 1 1 16,3.5 12.5,12.5 0 0 1 28.5,16"
     id="path6" />
  <path
     class="cls-6"
     d="M 17,9 H 8 V 8 h 9 z M 8,12 H 24 V 11 H 8 Z m 16,3 H 8 V 14 H 24 Z M 8,18 H 24 V 17 H 8 Z m 16,3 H 8 v -1 h 16 z m -8,3 H 8 v -1 h 8 z"
     id="path7" />
  <metadata
     id="metadata7">
    <rdf:RDF>
      <cc:Work
         rdf:about="">
        <dc:title>Datový zdroj 1</dc:title>
      </cc:Work>
    </rdf:RDF>
  </metadata>
</svg>
