<?xml version="1.0" encoding="UTF-8" standalone="no"?>
<svg
   id="svg23"
   version="1.1"
   viewBox="0 0 32 32"
   xmlns="http://www.w3.org/2000/svg"
   xmlns:svg="http://www.w3.org/2000/svg">
  <defs
     id="defs7">
    <linearGradient
       id="topic_read_hot-a"
       x1="15"
       x2="15"
       y2="27.5"
       y1="2.5"
       gradientUnits="userSpaceOnUse"
       gradientTransform="translate(1,1)">
      <stop
         id="stop2"
         stop-color="#DBDEE3"
         offset="0" />
      <stop
         id="stop4"
         stop-color="#FDFDFD"
         offset="1" />
    </linearGradient>
  </defs>
  <path
     id="path9"
     d="M 0,0 H 32 V 32 H 0 Z"
     style="fill:none;fill-rule:evenodd" />
  <path
     id="path11"
     d="M 31,16 C 31,24.2838 24.2844,31 16,31 7.7156,31 1,24.2838 1,16 1,7.7156 7.7156,1 16,1 24.2844,1 31,7.7156 31,16"
     fill="#2fb99d"
     style="fill-rule:evenodd" />
  <path
     id="path13"
     d="M 30,16 C 30,23.7315 23.7321,30 16,30 8.2679,30 2,23.7315 2,16 2,8.2679 8.2679,2 16,2 23.7321,2 30,8.2679 30,16"
     fill="#2fb99d"
     style="fill-rule:evenodd" />
  <path
     id="path15"
     d="M 29.5,16 C 29.5,23.4554 23.4559,29.5 16,29.5 8.5441,29.5 2.5,23.4554 2.5,16 2.5,8.5441 8.5441,2.5 16,2.5 23.4559,2.5 29.5,8.5441 29.5,16"
     fill="#ffffff"
     style="fill-rule:evenodd" />
  <path
     id="path17"
     d="M 28.5,16 C 28.5,22.9031 22.9036,28.5 16,28.5 9.0964,28.5 3.5,22.9031 3.5,16 3.5,9.0964 9.0964,3.5 16,3.5 22.9036,3.5 28.5,9.0964 28.5,16"
     fill="url(#topic_read_hot-a)"
     style="fill:url(#topic_read_hot-a);fill-rule:evenodd" />
  <path
     id="path19"
     d="m 14.984,8.033 c 0.88368,2.269 0.42377,3.5053 -0.56503,4.4868 -1.0841,1.0839 -2.7594,1.8959 -3.9421,3.4882 -1.5768,2.1154 -1.8396,6.7728 3.8326,7.992 -2.3871,-1.2056 -2.9018,-4.6972 -0.31755,-6.8809 -0.67891,2.1154 0.55846,3.4689 2.1024,2.9798 1.5002,-0.48905 2.4857,0.53455 2.4528,1.7287 -0.0219,0.80751 -0.36136,1.5013 -1.2264,1.888 3.6902,-0.62553 5.1794,-3.5599 5.1794,-5.8004 0,-2.9457 -2.7485,-3.3551 -1.3688,-5.8231 -1.6425,0.13648 -2.2119,1.1601 -2.0477,2.8547 0.09855,1.1146 -1.1169,1.8766 -2.0148,1.3648 -0.72271,-0.42081 -0.71176,-1.2351 -0.07665,-1.8425 1.3578,-1.2852 1.8834,-4.2514 -2.0367,-6.4691 l 0.02847,0.032983 z"
     fill="#666666"
     style="fill-rule:evenodd" />
</svg>
