<?xml version="1.0" encoding="UTF-8" standalone="no"?>
<svg
   width="32"
   height="32"
   viewBox="0 0 32 32"
   version="1.1"
   id="svg9"
   xmlns="http://www.w3.org/2000/svg"
   xmlns:svg="http://www.w3.org/2000/svg"
   xmlns:rdf="http://www.w3.org/1999/02/22-rdf-syntax-ns#"
   xmlns:cc="http://creativecommons.org/ns#"
   xmlns:dc="http://purl.org/dc/elements/1.1/">
  <defs
     id="defs2">
    <style
       id="style1">.cls-1 {
        fill: none;
      }

      .cls-2, .cls-6 {
        fill: #69b53f;
      }

      .cls-3 {
        fill: #69b53f;
      }

      .cls-4, .cls-7 {
        fill: #fff;
      }

       .cls-5 {
        fill: #c1eeaa
      }

      .cls-6, .cls-7 {
        fill-rule: evenodd;
      }</style>
    <linearGradient
       id="Nepojmenovaný_přechod_22"
       x1="-29.34"
       x2="-29.34"
       y1="-30.08"
       y2="-31.08"
       data-name="Nepojmenovaný přechod 22"
       gradientTransform="matrix(25 0 0 -25 749.5 -748.5)"
       gradientUnits="userSpaceOnUse">
      <stop
         stop-color="#dbdee3"
         offset="0"
         id="stop1" />
      <stop
         stop-color="#fdfdfd"
         offset="1"
         id="stop2" />
    </linearGradient>
  </defs>
  <title
     id="title2">Datový zdroj 24</title>
  <path
     class="cls-1"
     d="M 0,0 H 32 V 32 H 0 Z"
     id="path2" />
  <path
     class="cls-2"
     d="M 31,16 A 15,15 0 1 1 16,1 15,15 0 0 1 31,16"
     id="path3" />
  <path
     class="cls-3"
     d="M 30,16 A 14,14 0 1 1 16,2 14,14 0 0 1 30,16"
     id="path4" />
  <path
     class="cls-5"
     d="M 28.5,16 A 12.5,12.5 0 1 1 16,3.5 12.5,12.5 0 0 1 28.5,16"
     id="path6" />
  <path
     class="cls-6"
     d="M 17,9 H 8 V 8 h 9 z M 8,12 H 21 V 11 H 8 Z m 16,3 H 8 V 14 H 24 Z M 8,18 H 24 V 17 H 8 Z m 16,3 H 8 v -1 h 16 z m -8,3 H 8 v -1 h 8 z"
     id="path7" />
  <path
     class="cls-7"
     d="M 23.43,6.72 22.59,11.87 27,9.43 30.22,11.22 A 15.07,15.07 0 0 0 22.89,2.67 l -3,0.45 z"
     id="path8" />
  <path
     class="cls-2"
     d="M 27,8.29 30.09,10 29.5,6.38 32,3.82 28.55,3.29 27,0 25.45,3.29 22,3.82 24.5,6.38 23.91,10 Z"
     id="path9" />
  <metadata
     id="metadata9">
    <rdf:RDF>
      <cc:Work
         rdf:about="">
        <dc:title>Datový zdroj 24</dc:title>
      </cc:Work>
    </rdf:RDF>
  </metadata>
</svg>
