<?xml version="1.0" encoding="UTF-8" standalone="no"?>
<svg
   width="32"
   height="32"
   viewBox="0 0 32 32"
   version="1.1"
   id="svg7"
   xmlns="http://www.w3.org/2000/svg"
   xmlns:svg="http://www.w3.org/2000/svg"
   xmlns:rdf="http://www.w3.org/1999/02/22-rdf-syntax-ns#"
   xmlns:cc="http://creativecommons.org/ns#"
   xmlns:dc="http://purl.org/dc/elements/1.1/">
  <defs
     id="defs2">
    <style
       id="style1">.cls-1 {
        fill: none;
      }

      .cls-2 {
        fill: #1dcb73;
      }

      .cls-3 {
        fill: #1dcb73;
      }

      .cls-4 {
        fill: #fff;
      }

      .cls-5 {
        fill: #fff
      }</style>
    <linearGradient
       id="Nepojmenovaný_přechod_25"
       x1="-18.78"
       x2="-18.78"
       y1="65.92"
       y2="64.92"
       data-name="Nepojmenovaný přechod 25"
       gradientTransform="matrix(25 0 0 -25 485.5 1651.5)"
       gradientUnits="userSpaceOnUse">
      <stop
         stop-color="#dbdee3"
         offset="0"
         id="stop1" />
      <stop
         stop-color="#fdfdfd"
         offset="1"
         id="stop2" />
    </linearGradient>
  </defs>
  <title
     id="title2">Datový zdroj 18</title>
  <path
     class="cls-1"
     d="M 0,0 H 32 V 32 H 0 Z"
     id="path2" />
  <path
     class="cls-2"
     d="M 31,16 A 15,15 0 1 1 16,1 15,15 0 0 1 31,16"
     id="path3" />
  <path
     class="cls-3"
     d="M 30,16 A 14,14 0 1 1 16,2 14,14 0 0 1 30,16"
     id="path4" />
  <path
     class="cls-5"
     d="M 28.5,16 A 12.5,12.5 0 1 1 16,3.5 12.5,12.5 0 0 1 28.5,16"
     id="path6" />
  <path
     class="cls-2"
     d="m 15,8 c 0.89,2.27 0.43,3.51 -0.56,4.49 -0.99,0.98 -2.76,1.9 -3.94,3.49 -1.58,2.11 -1.84,6.77 3.83,8 -2.39,-1.21 -2.9,-4.7 -0.32,-6.88 -0.68,2.11 0.56,3.47 2.1,3 a 1.75,1.75 0 0 1 2.46,1.73 2,2 0 0 1 -1.23,1.89 5.93,5.93 0 0 0 5.18,-5.8 c 0,-3 -2.75,-3.36 -1.37,-5.83 -1.64,0.14 -2.21,1.16 -2.05,2.86 a 1.39,1.39 0 0 1 -2,1.36 A 1.09,1.09 0 0 1 17,14.47 C 18.36,13.18 18.89,10.22 15,8 Z"
     id="path7" />
  <metadata
     id="metadata7">
    <rdf:RDF>
      <cc:Work
         rdf:about="">
        <dc:title>Datový zdroj 18</dc:title>
      </cc:Work>
    </rdf:RDF>
  </metadata>
</svg>
