<?xml version="1.0" encoding="UTF-8"?>
<svg id="svg27" version="1.1" viewBox="0 0 32 32" xmlns="http://www.w3.org/2000/svg">
 <defs id="defs7">
  <linearGradient id="topic_read_hot_mine-a" x1="50%" x2="50%" y2="100%">
   <stop id="stop2" stop-color="#DBDEE3" offset="0"/>
   <stop id="stop4" stop-color="#FDFDFD" offset="1"/>
  </linearGradient>
 </defs>
 <g id="g25" fill="none" fill-rule="evenodd">
  <path id="path9" d="m0 0h32v32h-32z"/>
  <path id="path11" transform="translate(1 1)" d="m30 15c0 8.2838-6.7156 15-15 15s-15-6.7162-15-15c0-8.2844 6.7156-15 15-15s15 6.7156 15 15" fill="#2fb99d"/>
  <path id="path13" transform="translate(1 1)" d="m29 15c0 7.7315-6.2679 14-14 14-7.7321 0-14-6.2685-14-14 0-7.7321 6.2679-14 14-14 7.7321 0 14 6.2679 14 14" fill="#2fb99d"/>
  <path id="path15" transform="translate(1 1)" d="m28.5 15c0 7.4554-6.0441 13.5-13.5 13.5s-13.5-6.0446-13.5-13.5c0-7.4559 6.0441-13.5 13.5-13.5s13.5 6.0441 13.5 13.5" fill="#FFF"/>
  <path id="path17" transform="translate(1 1)" d="m27.5 15c0 6.9031-5.5964 12.5-12.5 12.5-6.9036 0-12.5-5.5969-12.5-12.5 0-6.9036 5.5964-12.5 12.5-12.5 6.9036 0 12.5 5.5964 12.5 12.5" fill="url(#topic_read_hot_mine-a)"/>
  <path id="path19" d="m14.984 8.033c0.88368 2.269 0.42377 3.5053-0.56503 4.4868-1.0841 1.0839-2.7594 1.8959-3.9421 3.4882-1.5768 2.1154-1.8396 6.7728 3.8326 7.992-2.3871-1.2056-2.9018-4.6972-0.31755-6.8809-0.67891 2.1154 0.55846 3.4689 2.1024 2.9798 1.5002-0.48905 2.4857 0.53455 2.4528 1.7287-0.0219 0.80751-0.36136 1.5013-1.2264 1.888 3.6902-0.62553 5.1794-3.5599 5.1794-5.8004 0-2.9457-2.7485-3.3551-1.3688-5.8231-1.6425 0.13648-2.2119 1.1601-2.0477 2.8547 0.098551 1.1146-1.1169 1.8766-2.0148 1.3648-0.72271-0.42081-0.71176-1.2351-0.076651-1.8425 1.3578-1.2852 1.8834-4.2514-2.0367-6.4691l0.02847 0.032983z" fill="#666"/>
  <path id="path21" transform="translate(19)" d="m11.221 11.215-3.2195-1.7806-4.4084 2.4366 0.83972-5.1519-3.5084-3.5946 2.9659-0.45213c3.4282 1.7759 6.0839 4.8356 7.3307 8.5427z" fill="#FFF"/>
  <path id="path23" transform="translate(19)" d="M8.001 8.292L11.089 10 10.499 6.382 13 3.82 9.545 3.29 7.999 0 6.455 3.293 3 3.82 5.501 6.382 4.911 10z" fill="#cb0033"/>
 </g>
</svg>
