<?xml version="1.0" encoding="UTF-8" standalone="no"?>
<!-- Created with Inkscape (http://www.inkscape.org/) -->

<svg
   width="58"
   height="58"
   viewBox="0 0 58 58"
   version="1.1"
   id="svg5"
   inkscape:version="1.2.2 (1:1.2.2+202305151914+b0a8486541)"
   xml:space="preserve"
   sodipodi:docname="icon_user_online.svg"
   inkscape:export-filename="icon_user_online.png"
   inkscape:export-xdpi="96"
   inkscape:export-ydpi="96"
   xmlns:inkscape="http://www.inkscape.org/namespaces/inkscape"
   xmlns:sodipodi="http://sodipodi.sourceforge.net/DTD/sodipodi-0.dtd"
   xmlns="http://www.w3.org/2000/svg"
   xmlns:svg="http://www.w3.org/2000/svg"><sodipodi:namedview
     id="namedview7"
     pagecolor="#ffffff"
     bordercolor="#000000"
     borderopacity="0.25"
     inkscape:showpageshadow="2"
     inkscape:pageopacity="0.0"
     inkscape:pagecheckerboard="0"
     inkscape:deskcolor="#d1d1d1"
     inkscape:document-units="px"
     showgrid="false"
     inkscape:zoom="1"
     inkscape:cx="-11.5"
     inkscape:cy="29"
     inkscape:window-width="1920"
     inkscape:window-height="1020"
     inkscape:window-x="0"
     inkscape:window-y="0"
     inkscape:window-maximized="1"
     inkscape:current-layer="layer1" /><defs
     id="defs2" /><g
     inkscape:label="Layer 1"
     inkscape:groupmode="layer"
     id="layer1"><path
       id="path1001"
       style="fill:#0aba7f;stroke:none;stroke-width:0;stroke-dasharray:none;stroke-opacity:1;fill-opacity:1"
       d="M 0 0 L 58 58 L 58 40 L 18 0 L 0 0 z " /><g
       aria-label="ONLINE"
       transform="rotate(45)"
       id="text1908"
       style="font-size:9px;fill:#0aba7f;stroke-width:0"><path
         d="m 26.029547,-8.5393305 q -0.773438,0 -1.199707,0.5712891 -0.42627,0.571289 -0.42627,1.6083984 0,1.0327149 0.42627,1.6040039 0.426269,0.5712891 1.199707,0.5712891 0.777832,0 1.204101,-0.5712891 0.42627,-0.571289 0.42627,-1.6040039 0,-1.0371094 -0.42627,-1.6083984 -0.426269,-0.5712891 -1.204101,-0.5712891 z m 0,-1.2260742 q 1.582031,0 2.478515,0.9052734 0.896485,0.9052735 0.896485,2.5004883 0,1.5908203 -0.896485,2.4960938 -0.896484,0.9052734 -2.478515,0.9052734 -1.577637,0 -2.478516,-0.9052734 -0.896484,-0.9052735 -0.896484,-2.4960938 0,-1.5952148 0.896484,-2.5004883 0.900879,-0.9052734 2.478516,-0.9052734 z"
         style="font-weight:bold;-inkscape-font-specification:'sans-serif Bold';fill:#ffffff"
         id="path2064" /><path
         d="m 30.683355,-9.6467524 h 1.889649 l 2.38623,4.5 v -4.5 h 1.604004 v 6.5610352 H 34.67359 l -2.386231,-4.5 v 4.5 h -1.604004 z"
         style="font-weight:bold;-inkscape-font-specification:'sans-serif Bold';fill:#ffffff"
         id="path2066" /><path
         d="m 38.215582,-9.6467524 h 1.691894 v 5.2822266 h 2.970704 v 1.2788086 h -4.662598 z"
         style="font-weight:bold;-inkscape-font-specification:'sans-serif Bold';fill:#ffffff"
         id="path2068" /><path
         d="m 43.950445,-9.6467524 h 1.691895 v 6.5610352 h -1.691895 z"
         style="font-weight:bold;-inkscape-font-specification:'sans-serif Bold';fill:#ffffff"
         id="path2070" /><path
         d="m 47.299078,-9.6467524 h 1.889648 l 2.386231,4.5 v -4.5 h 1.604004 v 6.5610352 h -1.889649 l -2.38623,-4.5 v 4.5 h -1.604004 z"
         style="font-weight:bold;-inkscape-font-specification:'sans-serif Bold';fill:#ffffff"
         id="path2072" /><path
         d="m 54.831305,-9.6467524 h 4.565918 v 1.2788086 h -2.874024 v 1.2216797 h 2.702637 v 1.2788086 h -2.702637 v 1.5029297 h 2.970703 v 1.2788086 h -4.662597 z"
         style="font-weight:bold;-inkscape-font-specification:'sans-serif Bold';fill:#ffffff"
         id="path2074" /></g></g></svg>
