<?xml version="1.0" encoding="UTF-8" standalone="no"?>
<!-- Created with Inkscape (http://www.inkscape.org/) -->

<svg
   width="480"
   height="70"
   viewBox="0 0 480.00001 70"
   version="1.1"
   id="svg5"
   xml:space="preserve"
   sodipodi:docname="logo-Exo2-src-01.svg"
   inkscape:version="1.3.2 (091e20ef0f, 2023-11-25)"
   inkscape:export-filename="badge-name-paths.png"
   inkscape:export-xdpi="96"
   inkscape:export-ydpi="96"
   xmlns:inkscape="http://www.inkscape.org/namespaces/inkscape"
   xmlns:sodipodi="http://sodipodi.sourceforge.net/DTD/sodipodi-0.dtd"
   xmlns="http://www.w3.org/2000/svg"
   xmlns:svg="http://www.w3.org/2000/svg"><sodipodi:namedview
     id="namedview16"
     pagecolor="#1dc973"
     bordercolor="#000000"
     borderopacity="0.25"
     inkscape:showpageshadow="2"
     inkscape:pageopacity="1"
     inkscape:pagecheckerboard="0"
     inkscape:deskcolor="#d1d1d1"
     showgrid="false"
     inkscape:zoom="2.8083333"
     inkscape:cx="240"
     inkscape:cy="34.896143"
     inkscape:current-layer="layer2"
     showguides="true" /><defs
     id="defs2" /><g
     inkscape:groupmode="layer"
     id="layer2"
     inkscape:label="logo+name"
     style="display:inline"
     transform="translate(-52,-372)"><path
       id="name"
       style="font-size:185px;font-family:'Exo 2';-inkscape-font-specification:'Exo 2, @wght=550';font-variation-settings:'wght' 550;fill:#ffffff;fill-opacity:1;stroke:none;stroke-width:0;stroke-dasharray:none"
       d="m 340.92742,392.2512 v 7.3215 l -4.47103,0.23275 v 3.75163 h 4.47103 v 14.74826 c 0,2.22685 0.58214,3.93982 1.74694,5.13889 1.16484,1.16482 2.84378,1.74751 5.03636,1.74751 0.47964,0 1.09634,-0.0346 1.85006,-0.10309 0.75369,-0.0685 1.52431,-0.17112 2.31228,-0.30815 0.78794,-0.10278 1.47325,-0.23995 2.05566,-0.41125 l -0.61686,-4.00824 h -3.59702 c -1.16481,0 -1.98728,-0.22249 -2.46689,-0.66786 -0.47964,-0.47963 -0.71942,-1.26753 -0.71942,-2.36383 v -13.77224 h 7.65681 v -4.00825 h -7.65681 v -7.29763 z m -16.18761,6.62923 c -1.85,0 -3.73417,0.42824 -5.65268,1.28472 -1.81683,0.77864 -3.61808,1.8686 -5.40419,3.26172 l -0.4541,-3.87804 h -4.62511 v 25.12912 h 5.60113 v -17.79242 c 1.70813,-0.97122 3.20689,-1.7459 4.47103,-2.30089 1.40463,-0.65092 2.79195,-0.97656 4.16233,-0.97656 1.16481,0 1.98728,0.29161 2.46689,0.87402 0.51389,0.54815 0.77095,1.55854 0.77095,3.03168 v 17.16417 h 5.60114 v -18.86013 c 0,-4.62499 -2.31239,-6.93739 -6.93739,-6.93739 z m -23.69022,0.66819 v 25.12917 h -5.55 v -25.12917 z m -1.49028,-10.89445 q 1.69583,0 1.69583,1.69584 v 2.87777 q 0,1.69584 -1.69583,1.69584 h -2.51806 q -1.69583,0 -1.69583,-1.69584 v -2.87777 q 0,-1.69584 1.69583,-1.69584 z m -34.43051,10.22626 c -1.81574,0 -3.56273,0.4115 -5.24143,1.23372 -1.54662,0.74109 -3.13949,1.85029 -4.77702,3.31869 l -0.41341,-3.88401 h -4.52203 v 25.12912 h 5.60113 v -17.89822 c 1.00141,-0.688 1.88022,-1.25394 2.62099,-1.68131 0.89074,-0.51389 1.67864,-0.89029 2.36382,-1.1301 0.71945,-0.23981 1.45604,-0.36024 2.20975,-0.36024 1.16481,0 2.03857,0.29161 2.62098,0.87402 0.58241,0.58241 0.87348,1.5928 0.87348,3.03168 v 17.16417 h 5.39551 v -17.82009 c 0.99977,-0.68395 1.89327,-1.27127 2.62098,-1.7079 0.85648,-0.54815 1.64438,-0.94183 2.36383,-1.18164 0.71944,-0.23981 1.47332,-0.36024 2.26128,-0.36024 1.26759,0 2.1581,0.30835 2.67199,0.92502 0.51388,0.61667 0.77094,1.61032 0.77094,2.98068 v 17.16417 h 5.55013 v -18.86013 c 0,-2.26111 -0.58269,-3.97407 -1.7475,-5.13889 -1.16482,-1.19907 -2.84322,-1.7985 -5.03581,-1.7985 -1.78148,0 -3.51173,0.4115 -5.19043,1.23372 -1.4794,0.70888 -3.01473,1.75284 -4.60504,3.12717 -0.29487,-1.0626 -0.78013,-1.93465 -1.45887,-2.61339 -1.13056,-1.16481 -2.77494,-1.7475 -4.93327,-1.7475 z m -44.96528,0.6684 7.60579,12.17882 -8.22265,12.9503 h 5.90983 l 6.73937,-11.10025 h 0.76389 l 6.78276,11.10025 h 5.85884 l -8.22266,-12.9503 7.60579,-12.17882 h -5.85828 l -6.06554,10.12316 h -0.97331 l -6.06554,-10.12316 z m -27.80111,0 v 18.85959 c 0,4.625 2.32968,6.9374 6.98894,6.9374 1.88425,0 3.73385,-0.39422 5.54958,-1.18219 1.66847,-0.72405 3.38093,-1.76997 5.13618,-3.13042 l 0.4655,3.64474 h 4.41948 v -25.12912 h -5.60167 v 18.00131 c -1.54511,0.94057 -2.88984,1.68069 -4.00824,2.19455 -1.23334,0.54815 -2.4835,0.82194 -3.75109,0.82194 -1.30185,0 -2.2442,-0.29108 -2.82661,-0.87348 -0.54814,-0.58241 -0.8052,-1.55878 -0.77094,-2.92915 v -17.21517 z m -13.97786,-0.6684 c -1.85,0 -3.73415,0.42824 -5.65267,1.28472 -1.81683,0.77864 -3.61808,1.8686 -5.40419,3.26172 l -0.4541,-3.87804 h -4.62511 v 25.12912 h 5.60113 v -17.79188 c 1.70833,-0.97135 3.20677,-1.74639 4.47103,-2.30143 1.40463,-0.65092 2.79195,-0.97656 4.16232,-0.97656 1.16482,0 1.98728,0.29161 2.46691,0.87402 0.51389,0.54815 0.77094,1.55854 0.77094,3.03168 v 17.16417 h 5.60113 v -18.86013 c 0,-4.62499 -2.31239,-6.93739 -6.93739,-6.93739 z m -23.69021,0.66819 v 25.12917 h -5.55 v -25.12917 z m -1.49027,-10.89445 q 1.69583,0 1.69583,1.69584 v 2.87777 q 0,1.69584 -1.69583,1.69584 h -2.51806 q -1.69583,0 -1.69583,-1.69584 v -2.87777 q 0,-1.69584 1.69583,-1.69584 z m -14.49157,0.0514 -0.0514,28.62361 q 0,1.49028 0.82222,2.26112 0.87361,0.77083 2.46667,0.77083 h 2.26111 l 0.66805,4.00833 q -0.51388,0.25695 -1.49027,0.41111 -0.925,0.20556 -1.95278,0.30834 -1.02778,0.10277 -1.69583,0.10277 -3.03195,0 -4.83056,-1.69583 -1.79861,-1.69583 -1.79861,-4.83055 v -29.95973 z"
       inkscape:label="name" /><path
       id="logo"
       style="color:#000000;fill:#ffffff;fill-opacity:1;stroke:none;stroke-width:0;stroke-dasharray:none"
       d="m 87,377 c -16.601411,0 -30,13.39859 -30,30 0,16.60142 13.398589,30 30,30 16.60141,0 30,-13.39858 30,-30 0,-16.60141 -13.39859,-30 -30,-30 z m -19.444445,11.94445 h 5.555556 v 25 c 0,3.10114 2.454411,5.55555 5.555555,5.55555 h 16.666667 c 3.101145,0 5.555557,-2.45441 5.555557,-5.55555 v -13.88889 c 0,-1.56702 -1.21076,-2.77778 -2.777779,-2.77778 -1.567022,0 -2.777778,1.21076 -2.777778,2.77778 v 13.88889 h -5.555555 v -13.88889 c 0,-1.56702 -1.210756,-2.77778 -2.777778,-2.77778 -1.567022,0 -2.777778,1.21076 -2.777778,2.77778 v 13.88889 h -5.555556 v -13.88889 c 0,-4.56946 3.763873,-8.33333 8.333334,-8.33333 2.134664,0 4.074116,0.84355 5.555555,2.18478 1.481439,-1.34123 3.420892,-2.18478 5.555556,-2.18478 4.569459,0 8.333329,3.76387 8.333329,8.33333 v 13.88889 c 0,6.10358 -5.00752,11.11111 -11.111107,11.11111 H 78.666666 c -6.103586,0 -11.111111,-5.00753 -11.111111,-11.11111 z"
       inkscape:label="logo" /><text
       xml:space="preserve"
       style="font-style:normal;font-weight:normal;font-size:36.4px;line-height:1.25;font-family:sans-serif;fill:#ffffff;fill-opacity:1;stroke:none"
       x="369.06119"
       y="424.74875"
       id="forums"
       inkscape:label="forums"><tspan
         sodipodi:role="line"
         id="tspan1"
         x="369.06119"
         y="424.74875"
         style="font-style:normal;font-variant:normal;font-weight:bold;font-stretch:normal;font-size:36.4px;font-family:'Exo 2';-inkscape-font-specification:'Exo 2 Bold';fill:#ffffff;fill-opacity:1">FORUMS</tspan></text></g></svg>
