<?xml version="1.0" encoding="UTF-8" standalone="no"?>
<!-- Created with Inkscape (http://www.inkscape.org/) -->

<svg
   width="425"
   height="55"
   viewBox="0 0 425.00001 55"
   version="1.1"
   id="svg5"
   xml:space="preserve"
   sodipodi:docname="logo-Exo2-03-dark.svg"
   inkscape:version="1.3.2 (091e20ef0f, 2023-11-25)"
   xmlns:inkscape="http://www.inkscape.org/namespaces/inkscape"
   xmlns:sodipodi="http://sodipodi.sourceforge.net/DTD/sodipodi-0.dtd"
   xmlns="http://www.w3.org/2000/svg"
   xmlns:svg="http://www.w3.org/2000/svg"><sodipodi:namedview
     id="namedview1"
     pagecolor="#333333"
     bordercolor="#000000"
     borderopacity="0.25"
     inkscape:showpageshadow="2"
     inkscape:pageopacity="0.0"
     inkscape:pagecheckerboard="0"
     inkscape:deskcolor="#333333"
     inkscape:zoom="2.6258824"
     inkscape:cx="212.5"
     inkscape:cy="27.419355"
     inkscape:current-layer="svg5" /><defs
     id="defs2" /><g
     id="g1"
     transform="matrix(0.91666665,0,0,0.91666665,-4.5833329,-4.5833371)"
     style="stroke-width:1.09091"><path
       id="name"
       style="font-size:185px;font-family:'Exo 2';-inkscape-font-specification:'Exo 2, @wght=550';font-variation-settings:'wght' 550;fill:#99ddff;fill-opacity:1;stroke:none;stroke-width:0;stroke-dasharray:none"
       d="m 288.92742,20.251199 v 7.321505 l -4.47103,0.232748 v 3.751627 h 4.47103 v 14.748264 c 0,2.22685 0.58214,3.939817 1.74694,5.138889 1.16484,1.164814 2.84378,1.747503 5.03636,1.747503 0.47964,0 1.09634,-0.03456 1.85006,-0.10308 0.75369,-0.06852 1.52431,-0.171123 2.31228,-0.308159 0.78794,-0.102778 1.47325,-0.239947 2.05566,-0.411241 l -0.61686,-4.008248 h -3.59702 c -1.16481,0 -1.98728,-0.222491 -2.46689,-0.667861 -0.47964,-0.479628 -0.71942,-1.267528 -0.71942,-2.363822 V 31.557079 h 7.65681 v -4.008247 h -7.65681 v -7.297633 z m -16.18761,6.62923 c -1.85,0 -3.73417,0.428242 -5.65268,1.284723 -1.81683,0.778641 -3.61808,1.8686 -5.40419,3.261719 l -0.4541,-3.878039 h -4.62511 v 25.129123 h 5.60113 V 34.885529 c 1.70813,-0.971222 3.20689,-1.7459 4.47103,-2.300889 1.40463,-0.650925 2.79195,-0.976563 4.16233,-0.976563 1.16481,0 1.98728,0.291616 2.46689,0.874025 0.51389,0.548147 0.77095,1.558536 0.77095,3.031683 v 17.16417 h 5.60114 V 33.817821 c 0,-4.624994 -2.31239,-6.937392 -6.93739,-6.937392 z m -23.69022,0.668189 v 25.129167 h -5.55 V 27.548618 Z m -1.49028,-10.894444 q 1.69583,0 1.69583,1.695833 v 2.877778 q 0,1.695833 -1.69583,1.695833 h -2.51806 q -1.69583,0 -1.69583,-1.695833 v -2.877778 q 0,-1.695833 1.69583,-1.695833 z M 213.1288,26.880429 c -1.81574,0 -3.56273,0.411503 -5.24143,1.233725 -1.54662,0.741089 -3.13949,1.850289 -4.77702,3.318684 l -0.41341,-3.884006 h -4.52203 v 25.129123 h 5.60113 v -17.89822 c 1.00141,-0.688 1.88022,-1.253947 2.62099,-1.681314 0.89074,-0.513889 1.67864,-0.890286 2.36382,-1.1301 0.71945,-0.239814 1.45604,-0.360244 2.20975,-0.360244 1.16481,0 2.03857,0.291616 2.62098,0.874025 0.58241,0.582405 0.87348,1.592794 0.87348,3.031683 v 17.16417 h 5.39551 V 34.85786 c 0.99977,-0.683953 1.89327,-1.27127 2.62098,-1.7079 0.85648,-0.548147 1.64438,-0.941825 2.36383,-1.181639 0.71944,-0.239814 1.47332,-0.360244 2.26128,-0.360244 1.26759,0 2.1581,0.308355 2.67199,0.925022 0.51388,0.616666 0.77094,1.610317 0.77094,2.980686 v 17.16417 h 5.55013 V 33.817821 c 0,-2.261108 -0.58269,-3.974075 -1.7475,-5.138889 -1.16482,-1.199072 -2.84322,-1.798503 -5.03581,-1.798503 -1.78148,0 -3.51173,0.411503 -5.19043,1.233725 -1.4794,0.708878 -3.01473,1.752834 -4.60504,3.12717 -0.29487,-1.062609 -0.78013,-1.93465 -1.45887,-2.613389 -1.13056,-1.164814 -2.77494,-1.747506 -4.93327,-1.747506 z m -44.96528,0.668403 7.60579,12.17882 -8.22265,12.950303 h 5.90983 l 6.73937,-11.100259 h 0.76389 l 6.78276,11.100259 h 5.85884 l -8.22266,-12.950303 7.60579,-12.17882 h -5.85828 l -6.06554,10.123156 h -0.97331 l -6.06554,-10.123156 z m -27.80111,0 v 18.859592 c 0,4.624997 2.32968,6.937392 6.98894,6.937392 1.88425,0 3.73385,-0.39422 5.54958,-1.182184 1.66847,-0.724052 3.38093,-1.769972 5.13618,-3.130425 l 0.4655,3.644748 h 4.41948 V 27.548832 h -5.60167 v 18.001303 c -1.54511,0.940572 -2.88984,1.680692 -4.00824,2.194553 -1.23334,0.548147 -2.4835,0.821939 -3.75109,0.821939 -1.30185,0 -2.2442,-0.291072 -2.82661,-0.873481 -0.54814,-0.582405 -0.8052,-1.558775 -0.77094,-2.929144 v -17.21517 z m -13.97786,-0.668403 c -1.85,0 -3.73415,0.428242 -5.65267,1.284723 -1.81683,0.778641 -3.61808,1.8686 -5.40419,3.261719 l -0.4541,-3.878039 h -4.62511 v 25.129123 h 5.60113 V 34.886071 c 1.70833,-0.971353 3.20677,-1.746389 4.47103,-2.301431 1.40463,-0.650925 2.79195,-0.976563 4.16232,-0.976563 1.16482,0 1.98728,0.291616 2.46691,0.874025 0.51389,0.548147 0.77094,1.558536 0.77094,3.031683 v 17.16417 h 5.60113 V 33.817821 c 0,-4.624994 -2.31239,-6.937392 -6.93739,-6.937392 z m -23.69021,0.668189 V 52.677785 H 97.144345 V 27.548618 Z m -1.49027,-10.894444 q 1.69583,0 1.69583,1.695833 v 2.877778 q 0,1.695833 -1.69583,1.695833 h -2.518059 q -1.695833,0 -1.695833,-1.695833 v -2.877778 q 0,-1.695833 1.695833,-1.695833 z m -14.491573,0.05139 -0.05139,28.623611 q 0,1.490278 0.822222,2.261111 0.873611,0.770833 2.466666,0.770833 h 2.261112 l 0.668055,4.008334 q -0.513889,0.256944 -1.490278,0.411111 -0.925,0.205555 -1.952777,0.308333 -1.027778,0.102778 -1.695834,0.102778 -3.031944,0 -4.830555,-1.695833 -1.798611,-1.695834 -1.798611,-4.830556 V 16.705563 Z" /><path
       id="logo"
       style="color:#000000;fill:#99ddff;fill-opacity:1;stroke:none;stroke-width:0;stroke-dasharray:none"
       d="m 35,5.0000042 c -16.601411,0 -30.0000004,13.3985888 -30.0000004,29.9999998 0,16.601412 13.3985894,30.000001 30.0000004,30.000001 16.601411,0 30,-13.398589 30,-30.000001 C 65,18.398593 51.601411,5.0000042 35,5.0000042 Z M 15.555555,16.944449 h 5.555556 v 25 c 0,3.101144 2.454411,5.555555 5.555555,5.555555 h 16.666667 c 3.101145,0 5.555556,-2.454411 5.555556,-5.555555 V 28.05556 c 0,-1.56702 -1.210759,-2.777778 -2.777778,-2.777778 -1.567022,0 -2.777778,1.210756 -2.777778,2.777778 V 41.944449 H 37.777778 V 28.05556 c 0,-1.567022 -1.210756,-2.777778 -2.777778,-2.777778 -1.567022,0 -2.777778,1.210756 -2.777778,2.777778 V 41.944449 H 26.666666 V 28.05556 c 0,-4.569461 3.763873,-8.333334 8.333334,-8.333334 2.134664,0 4.074116,0.843556 5.555555,2.184787 1.481439,-1.341231 3.420892,-2.184787 5.555556,-2.184787 4.569461,0 8.333333,3.763873 8.333333,8.333334 v 13.888889 c 0,6.103583 -5.007527,11.111111 -11.111111,11.111111 H 26.666666 c -6.103586,0 -11.111111,-5.007528 -11.111111,-11.111111 z" /><path
       style="font-weight:bold;font-size:37px;line-height:1.25;font-family:'Exo 2';-inkscape-font-specification:'Exo 2 Bold';fill:#99ddff;stroke:none;stroke-width:0;stroke-dasharray:none;fill-opacity:1"
       d="m 325.013,27.057 q 1.961,0 3.996,0.037 2.072,0 4.033,0.111 1.998,0.074 3.7,0.259 l -0.296,4.07 h -9.25 q -0.999,0 -1.517,0.481 -0.518,0.481 -0.518,1.406 V 52.698 H 319.5 V 32.274 q 0,-2.368 1.517,-3.774 1.517,-1.443 3.996,-1.443 z m -4.847,10.804 h 14.911 v 3.996 H 320.166 Z M 350.22847,26.65 q 3.034,0 5.143,0.666 2.109,0.629 3.367,2.146 1.295,1.48 1.887,4.07 0.592,2.553 0.592,6.401 0,3.848 -0.592,6.438 -0.592,2.553 -1.887,4.07 -1.258,1.48 -3.367,2.146 -2.109,0.629 -5.143,0.629 -3.034,0 -5.143,-0.629 -2.109,-0.666 -3.404,-2.146 -1.295,-1.517 -1.887,-4.07 -0.592,-2.59 -0.592,-6.438 0,-3.848 0.592,-6.401 0.592,-2.59 1.887,-4.07 1.295,-1.517 3.404,-2.146 2.109,-0.666 5.143,-0.666 z m 0,4.477 q -1.961,0 -3.071,0.777 -1.073,0.777 -1.554,2.701 -0.444,1.887 -0.444,5.328 0,3.404 0.444,5.328 0.481,1.924 1.554,2.701 1.11,0.777 3.071,0.777 1.924,0 2.997,-0.777 1.11,-0.777 1.554,-2.701 0.481,-1.924 0.481,-5.328 0,-3.441 -0.481,-5.328 -0.444,-1.924 -1.554,-2.701 -1.073,-0.777 -2.997,-0.777 z m 25.12299,-4.329 q 3.367,0 5.439,0.703 2.109,0.666 3.071,2.331 0.999,1.628 0.999,4.551 0,1.776 -0.481,3.145 -0.444,1.332 -1.517,2.146 -1.073,0.814 -2.923,1.036 v 0.185 q 0.666,0.111 1.369,0.518 0.74,0.407 1.369,1.221 0.629,0.777 0.925,2.109 l 2.22,7.955 h -5.957 l -1.961,-7.77 q -0.333,-1.258 -0.999,-1.739 -0.629,-0.481 -1.776,-0.481 -2.516,0 -4.255,0 -1.702,-0.037 -2.886,-0.074 -1.147,-0.037 -2.072,-0.074 l 0.111,-4.107 h 9.213 q 1.48,0 2.331,-0.296 0.888,-0.333 1.221,-1.147 0.37,-0.814 0.37,-2.257 0,-1.48 -0.37,-2.257 -0.333,-0.814 -1.221,-1.11 -0.851,-0.333 -2.331,-0.333 -3.478,0 -5.883,0.037 -2.405,0.037 -3.293,0.111 l -0.555,-4.033 q 1.554,-0.185 2.923,-0.259 1.369,-0.074 2.997,-0.074 1.628,-0.037 3.922,-0.037 z m -4.255,0.37 v 25.53 h -5.587 v -25.53 z m 38.77597,0 v 15.355 q 0,3.885 -0.962,6.253 -0.962,2.331 -3.182,3.404 -2.183,1.036 -5.846,1.036 -3.885,0 -6.216,-1.036 -2.331,-1.073 -3.367,-3.404 -1.036,-2.368 -1.036,-6.253 V 27.168 h 5.661 v 15.355 q 0,2.405 0.407,3.774 0.444,1.332 1.48,1.887 1.036,0.555 2.775,0.555 1.739,0 2.738,-0.555 1.036,-0.555 1.443,-1.887 0.444,-1.369 0.444,-3.774 V 27.168 Z m 31.11704,0 q 1.998,0 2.072,2.072 l 0.962,23.458 h -5.217 l -0.851,-21.164 h -0.666 l -4.107,15.91 q -0.333,1.776 -2.22,1.776 h -3.552 q -1.887,0 -2.294,-1.776 l -4.107,-15.91 h -0.629 l -0.777,21.164 h -5.254 l 0.962,-23.458 q 0.074,-2.072 2.109,-2.072 h 5.291 q 1.813,0 2.22,1.813 l 3.293,12.839 q 0.222,0.888 0.37,1.813 0.148,0.888 0.333,1.813 h 0.481 q 0.185,-0.925 0.333,-1.813 0.185,-0.925 0.37,-1.85 l 3.256,-12.802 q 0.37,-1.813 2.22,-1.813 z m 16.13202,-0.481 q 1.887,0 4.107,0.222 2.22,0.185 4.329,0.814 l -0.37,3.737 q -1.628,-0.037 -3.811,-0.074 -2.183,-0.037 -4.292,-0.037 -1.036,0 -1.776,0.074 -0.703,0.037 -1.147,0.296 -0.444,0.222 -0.629,0.703 -0.185,0.481 -0.185,1.332 0,1.295 0.592,1.887 0.629,0.592 2.109,1.073 l 4.921,1.591 q 3.071,1.036 4.255,2.812 1.184,1.776 1.184,4.662 0,2.183 -0.518,3.626 -0.518,1.443 -1.628,2.257 -1.11,0.814 -2.923,1.147 -1.813,0.37 -4.44,0.37 -1.258,0 -3.589,-0.185 -2.331,-0.148 -5.328,-0.814 l 0.37,-3.996 q 2.183,0.037 3.774,0.111 1.628,0.037 2.775,0.074 1.147,0 1.998,0 1.48,0 2.294,-0.185 0.851,-0.185 1.184,-0.74 0.333,-0.555 0.333,-1.591 0,-0.888 -0.259,-1.406 -0.222,-0.555 -0.777,-0.851 -0.518,-0.333 -1.443,-0.592 l -5.18,-1.776 q -2.923,-1.073 -4.144,-2.812 -1.221,-1.739 -1.221,-4.588 0,-2.22 0.518,-3.589 0.555,-1.406 1.665,-2.183 1.147,-0.777 2.923,-1.073 1.813,-0.296 4.329,-0.296 z"
       id="forums"
       aria-label="FORUMS" /></g></svg>
