<?xml version="1.0" encoding="UTF-8" standalone="no"?>
<!-- Created with Inkscape (http://www.inkscape.org/) -->

<svg
   width="480"
   height="70"
   viewBox="0 0 480.00001 70"
   version="1.1"
   id="svg5"
   xml:space="preserve"
   xmlns="http://www.w3.org/2000/svg"
   xmlns:svg="http://www.w3.org/2000/svg"><defs
     id="defs2" /><g
     id="layer2"
     style="display:inline"
     transform="translate(-52,-372)"><g
       id="logo_name"
       transform="matrix(0.27777778,0,0,0.27777778,42.555555,273.66667)"><path
         id="name"
         style="font-size:185px;font-family:'Exo 2';-inkscape-font-specification:'Exo 2, @wght=550';font-variation-settings:'wght' 550;fill:#ffffff;fill-opacity:1;stroke:none;stroke-width:0;stroke-dasharray:none"
         d="m 1074.1387,426.9043 v 26.35742 l -16.0957,0.83789 v 13.50586 h 16.0957 v 53.09375 c 0,8.01666 2.0957,14.18334 6.289,18.5 4.1934,4.19333 10.2376,6.29101 18.1309,6.29101 1.7267,0 3.9468,-0.12442 6.6602,-0.37109 2.7133,-0.24667 5.4875,-0.61604 8.3242,-1.10937 2.8366,-0.37 5.3037,-0.86381 7.4004,-1.48047 l -2.2207,-14.42969 h -12.9493 c -4.1933,0 -7.1542,-0.80097 -8.8808,-2.4043 -1.7267,-1.72666 -2.5899,-4.5631 -2.5899,-8.50976 v -49.58008 h 27.5645 v -14.42969 h -27.5645 V 426.9043 Z m -58.2754,23.86523 c -6.66,0 -13.443,1.54167 -20.34963,4.625 -6.54059,2.80311 -13.02509,6.72696 -19.45508,11.74219 l -1.63476,-13.96094 h -16.65039 v 90.46484 h 20.16406 v -64.05273 c 6.14925,-3.4964 11.54479,-6.28524 16.0957,-8.2832 5.05666,-2.34333 10.051,-3.51563 14.9844,-3.51563 4.1933,0 7.1542,1.04982 8.8808,3.14649 1.85,1.97333 2.7754,5.61073 2.7754,10.91406 v 61.79101 h 20.1641 v -67.89648 c 0,-16.64998 -8.3246,-24.97461 -24.9746,-24.97461 z m -85.28479,2.40548 v 90.465 h -19.98 v -90.465 z m -5.365,-39.22 q 6.105,0 6.105,6.105 v 10.36 q 0,6.105 -6.105,6.105 h -9.065 q -6.105,0 -6.105,-6.105 v -10.36 q 0,-6.105 6.105,-6.105 z m -123.94984,36.81452 c -6.53666,0 -12.82581,1.48141 -18.86914,4.44141 -5.56783,2.66792 -11.30215,6.66104 -17.19726,11.94726 l -1.48829,-13.98242 h -16.27929 v 90.46484 h 20.16406 v -64.43359 c 3.60505,-2.4768 6.76878,-4.51421 9.43555,-6.05273 3.20666,-1.85 6.0431,-3.20503 8.50976,-4.06836 2.59,-0.86333 5.24175,-1.29688 7.95508,-1.29688 4.19333,0 7.33888,1.04982 9.43555,3.14649 2.09666,2.09666 3.14453,5.73406 3.14453,10.91406 v 61.79101 h 19.42383 v -64.15234 c 3.59917,-2.46223 6.81577,-4.57657 9.43554,-6.14844 3.08333,-1.97333 5.91977,-3.39057 8.50977,-4.2539 2.59,-0.86333 5.30396,-1.29688 8.14062,-1.29688 4.56333,0 7.76915,1.11008 9.61914,3.33008 1.85,2.22 2.7754,5.79714 2.7754,10.73047 v 61.79101 h 19.98046 v -67.89648 c 0,-8.13999 -2.09768,-14.30667 -6.29101,-18.5 -4.19333,-4.31666 -10.23558,-6.47461 -18.12891,-6.47461 -6.41332,0 -12.64222,1.48141 -18.68554,4.44141 -5.32583,2.55196 -10.85303,6.3102 -16.57813,11.25781 -1.06153,-3.82539 -2.80849,-6.96474 -5.25195,-9.4082 -4.07,-4.19333 -9.98978,-6.29102 -17.75977,-6.29102 z m -161.875,2.40625 27.38086,43.84375 -29.60156,46.62109 h 21.27539 l 24.26172,-39.96093 h 2.75 l 24.41797,39.96093 h 21.09179 l -29.60156,-46.62109 27.38086,-43.84375 H 707.6543 l -21.83594,36.44336 h -3.50391 l -21.83593,-36.44336 z m -100.08398,0 v 67.89453 c 0,16.64999 8.38684,24.97461 25.16015,24.97461 6.78333,0 13.44186,-1.41919 19.97852,-4.25586 6.00649,-2.60659 12.17133,-6.3719 18.49023,-11.26953 l 1.67579,13.12109 h 15.91015 v -90.46484 h -20.16601 v 64.80469 c -5.56241,3.38606 -10.40344,6.05049 -14.42969,7.90039 -4.44,1.97333 -8.94058,2.95898 -13.50391,2.95898 -4.68666,0 -8.07911,-1.04786 -10.17578,-3.14453 -1.97333,-2.09666 -2.89872,-5.61159 -2.77539,-10.54492 v -61.97461 z m -50.32031,-2.40625 c -6.66,0 -13.44295,1.54167 -20.34961,4.625 -6.5406,2.80311 -13.0251,6.72696 -19.45508,11.74219 l -1.63477,-13.96094 h -16.65039 v 90.46484 h 20.16406 v -64.05078 c 6.14999,-3.49687 11.54437,-6.287 16.09571,-8.28515 5.05666,-2.34333 10.05104,-3.51563 14.98437,-3.51563 4.19333,0 7.1542,1.04982 8.88086,3.14649 1.85,1.97333 2.77539,5.61073 2.77539,10.91406 v 61.79101 h 20.16406 v -67.89648 c 0,-16.64998 -8.32462,-24.97461 -24.9746,-24.97461 z m -85.28474,2.40548 v 90.465 h -19.98 v -90.465 z m -5.365,-39.22 q 6.105,0 6.105,6.105 v 10.36 q 0,6.105 -6.105,6.105 h -9.065 q -6.105,0 -6.105,-6.105 v -10.36 q 0,-6.105 6.105,-6.105 z m -52.16965,0.185 -0.185,103.045 q 0,5.365 2.96,8.14 3.145,2.775 8.88,2.775 h 8.14 l 2.405,14.43 q -1.85,0.925 -5.365,1.48 -3.33,0.74 -7.03,1.11 -3.7,0.37 -6.105,0.37 -10.915,0 -17.39,-6.105 -6.475,-6.105 -6.475,-17.39 v -107.855 z" /><path
         id="logo"
         style="color:#000000;fill:#ffffff;fill-opacity:1;stroke:none;stroke-width:0;stroke-dasharray:none"
         d="m 160,372 c -59.76508,0 -108,48.23492 -108,108 0,59.76508 48.23492,108 108,108 59.76508,0 108,-48.23492 108,-108 0,-59.76508 -48.23492,-108 -108,-108 z m -70,43 h 20 v 90 c 0,11.16412 8.83588,20 20,20 h 60 c 11.16412,0 20,-8.83588 20,-20 v -50 c 0,-5.64127 -4.35873,-10 -10,-10 -5.64128,0 -10,4.35872 -10,10 v 50 h -20 v -50 c 0,-5.64128 -4.35872,-10 -10,-10 -5.64128,0 -10,4.35872 -10,10 v 50 h -20 v -50 c 0,-16.45006 13.54994,-30 30,-30 7.68479,0 14.66682,3.0368 20,7.86523 C 185.33318,428.0368 192.31521,425 200,425 c 16.45006,0 30,13.54994 30,30 v 50 c 0,21.9729 -18.0271,40 -40,40 h -60 c -21.97291,0 -40,-18.0271 -40,-40 z" /></g><path
       style="font-weight:bold;font-size:37px;line-height:1.25;font-family:'Exo 2';-inkscape-font-specification:'Exo 2 Bold';fill:#ffffff;stroke:none;stroke-width:0;stroke-dasharray:none"
       d="m 377.013,399.057 q 1.961,0 3.996,0.037 2.072,0 4.033,0.111 1.998,0.074 3.7,0.259 l -0.296,4.07 h -9.25 q -0.999,0 -1.517,0.481 -0.518,0.481 -0.518,1.406 v 19.277 H 371.5 v -20.424 q 0,-2.368 1.517,-3.774 1.517,-1.443 3.996,-1.443 z m -4.847,10.804 h 14.911 v 3.996 h -14.911 z m 30.06247,-11.211 q 3.034,0 5.143,0.666 2.109,0.629 3.367,2.146 1.295,1.48 1.887,4.07 0.592,2.553 0.592,6.401 0,3.848 -0.592,6.438 -0.592,2.553 -1.887,4.07 -1.258,1.48 -3.367,2.146 -2.109,0.629 -5.143,0.629 -3.034,0 -5.143,-0.629 -2.109,-0.666 -3.404,-2.146 -1.295,-1.517 -1.887,-4.07 -0.592,-2.59 -0.592,-6.438 0,-3.848 0.592,-6.401 0.592,-2.59 1.887,-4.07 1.295,-1.517 3.404,-2.146 2.109,-0.666 5.143,-0.666 z m 0,4.477 q -1.961,0 -3.071,0.777 -1.073,0.777 -1.554,2.701 -0.444,1.887 -0.444,5.328 0,3.404 0.444,5.328 0.481,1.924 1.554,2.701 1.11,0.777 3.071,0.777 1.924,0 2.997,-0.777 1.11,-0.777 1.554,-2.701 0.481,-1.924 0.481,-5.328 0,-3.441 -0.481,-5.328 -0.444,-1.924 -1.554,-2.701 -1.073,-0.777 -2.997,-0.777 z m 25.12299,-4.329 q 3.367,0 5.439,0.703 2.109,0.666 3.071,2.331 0.999,1.628 0.999,4.551 0,1.776 -0.481,3.145 -0.444,1.332 -1.517,2.146 -1.073,0.814 -2.923,1.036 v 0.185 q 0.666,0.111 1.369,0.518 0.74,0.407 1.369,1.221 0.629,0.777 0.925,2.109 l 2.22,7.955 h -5.957 l -1.961,-7.77 q -0.333,-1.258 -0.999,-1.739 -0.629,-0.481 -1.776,-0.481 -2.516,0 -4.255,0 -1.702,-0.037 -2.886,-0.074 -1.147,-0.037 -2.072,-0.074 l 0.111,-4.107 h 9.213 q 1.48,0 2.331,-0.296 0.888,-0.333 1.221,-1.147 0.37,-0.814 0.37,-2.257 0,-1.48 -0.37,-2.257 -0.333,-0.814 -1.221,-1.11 -0.851,-0.333 -2.331,-0.333 -3.478,0 -5.883,0.037 -2.405,0.037 -3.293,0.111 l -0.555,-4.033 q 1.554,-0.185 2.923,-0.259 1.369,-0.074 2.997,-0.074 1.628,-0.037 3.922,-0.037 z m -4.255,0.37 v 25.53 h -5.587 v -25.53 z m 38.77597,0 v 15.355 q 0,3.885 -0.962,6.253 -0.962,2.331 -3.182,3.404 -2.183,1.036 -5.846,1.036 -3.885,0 -6.216,-1.036 -2.331,-1.073 -3.367,-3.404 -1.036,-2.368 -1.036,-6.253 v -15.355 h 5.661 v 15.355 q 0,2.405 0.407,3.774 0.444,1.332 1.48,1.887 1.036,0.555 2.775,0.555 1.739,0 2.738,-0.555 1.036,-0.555 1.443,-1.887 0.444,-1.369 0.444,-3.774 v -15.355 z m 31.11704,0 q 1.998,0 2.072,2.072 l 0.962,23.458 h -5.217 l -0.851,-21.164 h -0.666 l -4.107,15.91 q -0.333,1.776 -2.22,1.776 h -3.552 q -1.887,0 -2.294,-1.776 l -4.107,-15.91 h -0.629 l -0.777,21.164 h -5.254 l 0.962,-23.458 q 0.074,-2.072 2.109,-2.072 h 5.291 q 1.813,0 2.22,1.813 l 3.293,12.839 q 0.222,0.888 0.37,1.813 0.148,0.888 0.333,1.813 h 0.481 q 0.185,-0.925 0.333,-1.813 0.185,-0.925 0.37,-1.85 l 3.256,-12.802 q 0.37,-1.813 2.22,-1.813 z m 16.13202,-0.481 q 1.887,0 4.107,0.222 2.22,0.185 4.329,0.814 l -0.37,3.737 q -1.628,-0.037 -3.811,-0.074 -2.183,-0.037 -4.292,-0.037 -1.036,0 -1.776,0.074 -0.703,0.037 -1.147,0.296 -0.444,0.222 -0.629,0.703 -0.185,0.481 -0.185,1.332 0,1.295 0.592,1.887 0.629,0.592 2.109,1.073 l 4.921,1.591 q 3.071,1.036 4.255,2.812 1.184,1.776 1.184,4.662 0,2.183 -0.518,3.626 -0.518,1.443 -1.628,2.257 -1.11,0.814 -2.923,1.147 -1.813,0.37 -4.44,0.37 -1.258,0 -3.589,-0.185 -2.331,-0.148 -5.328,-0.814 l 0.37,-3.996 q 2.183,0.037 3.774,0.111 1.628,0.037 2.775,0.074 1.147,0 1.998,0 1.48,0 2.294,-0.185 0.851,-0.185 1.184,-0.74 0.333,-0.555 0.333,-1.591 0,-0.888 -0.259,-1.406 -0.222,-0.555 -0.777,-0.851 -0.518,-0.333 -1.443,-0.592 l -5.18,-1.776 q -2.923,-1.073 -4.144,-2.812 -1.221,-1.739 -1.221,-4.588 0,-2.22 0.518,-3.589 0.555,-1.406 1.665,-2.183 1.147,-0.777 2.923,-1.073 1.813,-0.296 4.329,-0.296 z"
       id="forums"
       aria-label="FORUMS" /></g></svg>
