<?xml version="1.0" encoding="UTF-8" standalone="no"?>
<!-- Created with Inkscape (http://www.inkscape.org/) -->

<svg
   width="480"
   height="70"
   viewBox="0 0 480.00001 70"
   version="1.1"
   id="svg5"
   xml:space="preserve"
   xmlns="http://www.w3.org/2000/svg"
   xmlns:svg="http://www.w3.org/2000/svg"><defs
     id="defs2" /><path
     id="name"
     style="font-size:185px;font-family:'Exo 2';-inkscape-font-specification:'Exo 2, @wght=550';font-variation-settings:'wght' 550;fill:#ffffff;fill-opacity:1;stroke:none;stroke-width:0;stroke-dasharray:none"
     d="m 288.92742,20.251199 v 7.321505 l -4.47103,0.232748 v 3.751627 h 4.47103 v 14.748264 c 0,2.22685 0.58214,3.939817 1.74694,5.138889 1.16484,1.164814 2.84378,1.747503 5.03636,1.747503 0.47964,0 1.09634,-0.03456 1.85006,-0.10308 0.75369,-0.06852 1.52431,-0.171123 2.31228,-0.308159 0.78794,-0.102778 1.47325,-0.239947 2.05566,-0.411241 l -0.61686,-4.008248 h -3.59702 c -1.16481,0 -1.98728,-0.222491 -2.46689,-0.667861 -0.47964,-0.479628 -0.71942,-1.267528 -0.71942,-2.363822 V 31.557079 h 7.65681 v -4.008247 h -7.65681 v -7.297633 z m -16.18761,6.62923 c -1.85,0 -3.73417,0.428242 -5.65268,1.284723 -1.81683,0.778641 -3.61808,1.8686 -5.40419,3.261719 l -0.4541,-3.878039 h -4.62511 v 25.129123 h 5.60113 V 34.885529 c 1.70813,-0.971222 3.20689,-1.7459 4.47103,-2.300889 1.40463,-0.650925 2.79195,-0.976563 4.16233,-0.976563 1.16481,0 1.98728,0.291616 2.46689,0.874025 0.51389,0.548147 0.77095,1.558536 0.77095,3.031683 v 17.16417 h 5.60114 V 33.817821 c 0,-4.624994 -2.31239,-6.937392 -6.93739,-6.937392 z m -23.69022,0.668189 v 25.129167 h -5.55 V 27.548618 Z m -1.49028,-10.894444 q 1.69583,0 1.69583,1.695833 v 2.877778 q 0,1.695833 -1.69583,1.695833 h -2.51806 q -1.69583,0 -1.69583,-1.695833 v -2.877778 q 0,-1.695833 1.69583,-1.695833 z M 213.1288,26.880429 c -1.81574,0 -3.56273,0.411503 -5.24143,1.233725 -1.54662,0.741089 -3.13949,1.850289 -4.77702,3.318684 l -0.41341,-3.884006 h -4.52203 v 25.129123 h 5.60113 v -17.89822 c 1.00141,-0.688 1.88022,-1.253947 2.62099,-1.681314 0.89074,-0.513889 1.67864,-0.890286 2.36382,-1.1301 0.71945,-0.239814 1.45604,-0.360244 2.20975,-0.360244 1.16481,0 2.03857,0.291616 2.62098,0.874025 0.58241,0.582405 0.87348,1.592794 0.87348,3.031683 v 17.16417 h 5.39551 V 34.85786 c 0.99977,-0.683953 1.89327,-1.27127 2.62098,-1.7079 0.85648,-0.548147 1.64438,-0.941825 2.36383,-1.181639 0.71944,-0.239814 1.47332,-0.360244 2.26128,-0.360244 1.26759,0 2.1581,0.308355 2.67199,0.925022 0.51388,0.616666 0.77094,1.610317 0.77094,2.980686 v 17.16417 h 5.55013 V 33.817821 c 0,-2.261108 -0.58269,-3.974075 -1.7475,-5.138889 -1.16482,-1.199072 -2.84322,-1.798503 -5.03581,-1.798503 -1.78148,0 -3.51173,0.411503 -5.19043,1.233725 -1.4794,0.708878 -3.01473,1.752834 -4.60504,3.12717 -0.29487,-1.062609 -0.78013,-1.93465 -1.45887,-2.613389 -1.13056,-1.164814 -2.77494,-1.747506 -4.93327,-1.747506 z m -44.96528,0.668403 7.60579,12.17882 -8.22265,12.950303 h 5.90983 l 6.73937,-11.100259 h 0.76389 l 6.78276,11.100259 h 5.85884 l -8.22266,-12.950303 7.60579,-12.17882 h -5.85828 l -6.06554,10.123156 h -0.97331 l -6.06554,-10.123156 z m -27.80111,0 v 18.859592 c 0,4.624997 2.32968,6.937392 6.98894,6.937392 1.88425,0 3.73385,-0.39422 5.54958,-1.182184 1.66847,-0.724052 3.38093,-1.769972 5.13618,-3.130425 l 0.4655,3.644748 h 4.41948 V 27.548832 h -5.60167 v 18.001303 c -1.54511,0.940572 -2.88984,1.680692 -4.00824,2.194553 -1.23334,0.548147 -2.4835,0.821939 -3.75109,0.821939 -1.30185,0 -2.2442,-0.291072 -2.82661,-0.873481 -0.54814,-0.582405 -0.8052,-1.558775 -0.77094,-2.929144 v -17.21517 z m -13.97786,-0.668403 c -1.85,0 -3.73415,0.428242 -5.65267,1.284723 -1.81683,0.778641 -3.61808,1.8686 -5.40419,3.261719 l -0.4541,-3.878039 h -4.62511 v 25.129123 h 5.60113 V 34.886071 c 1.70833,-0.971353 3.20677,-1.746389 4.47103,-2.301431 1.40463,-0.650925 2.79195,-0.976563 4.16232,-0.976563 1.16482,0 1.98728,0.291616 2.46691,0.874025 0.51389,0.548147 0.77094,1.558536 0.77094,3.031683 v 17.16417 h 5.60113 V 33.817821 c 0,-4.624994 -2.31239,-6.937392 -6.93739,-6.937392 z m -23.69021,0.668189 V 52.677785 H 97.144345 V 27.548618 Z m -1.49027,-10.894444 q 1.69583,0 1.69583,1.695833 v 2.877778 q 0,1.695833 -1.69583,1.695833 h -2.518059 q -1.695833,0 -1.695833,-1.695833 v -2.877778 q 0,-1.695833 1.695833,-1.695833 z m -14.491573,0.05139 -0.05139,28.623611 q 0,1.490278 0.822222,2.261111 0.873611,0.770833 2.466666,0.770833 h 2.261112 l 0.668055,4.008334 q -0.513889,0.256944 -1.490278,0.411111 -0.925,0.205555 -1.952777,0.308333 -1.027778,0.102778 -1.695834,0.102778 -3.031944,0 -4.830555,-1.695833 -1.798611,-1.695834 -1.798611,-4.830556 V 16.705563 Z" /><path
     id="logo"
     style="color:#000000;fill:#ffffff;fill-opacity:1;stroke:none;stroke-width:0;stroke-dasharray:none"
     d="m 35,5.0000042 c -16.601411,0 -30.0000004,13.3985888 -30.0000004,29.9999998 0,16.601412 13.3985894,30.000001 30.0000004,30.000001 16.601411,0 30,-13.398589 30,-30.000001 C 65,18.398593 51.601411,5.0000042 35,5.0000042 Z M 15.555555,16.944449 h 5.555556 v 25 c 0,3.101144 2.454411,5.555555 5.555555,5.555555 h 16.666667 c 3.101145,0 5.555556,-2.454411 5.555556,-5.555555 V 28.05556 c 0,-1.56702 -1.210759,-2.777778 -2.777778,-2.777778 -1.567022,0 -2.777778,1.210756 -2.777778,2.777778 V 41.944449 H 37.777778 V 28.05556 c 0,-1.567022 -1.210756,-2.777778 -2.777778,-2.777778 -1.567022,0 -2.777778,1.210756 -2.777778,2.777778 V 41.944449 H 26.666666 V 28.05556 c 0,-4.569461 3.763873,-8.333334 8.333334,-8.333334 2.134664,0 4.074116,0.843556 5.555555,2.184787 1.481439,-1.341231 3.420892,-2.184787 5.555556,-2.184787 4.569461,0 8.333333,3.763873 8.333333,8.333334 v 13.888889 c 0,6.103583 -5.007527,11.111111 -11.111111,11.111111 H 26.666666 c -6.103586,0 -11.111111,-5.007528 -11.111111,-11.111111 z" /><path
     style="font-weight:bold;font-size:36.4px;line-height:1.25;font-family:'Exo 2';-inkscape-font-specification:'Exo 2 Bold';fill:#ffffff"
     d="m 324.92359,27.52355 q 1.9292,0 3.9312,0.0364 2.0384,0 3.9676,0.1092 1.9656,0.0728 3.64,0.2548 l -0.2912,4.004 h -9.1 q -0.9828,0 -1.4924,0.4732 -0.5096,0.4732 -0.5096,1.3832 v 18.9644 h -5.5692 v -20.0928 q 0,-2.3296 1.4924,-3.7128 1.4924,-1.4196 3.9312,-1.4196 z m -4.7684,10.6288 h 14.6692 v 3.9312 h -14.6692 z m 29.57497,-11.0292 q 2.9848,0 5.0596,0.6552 2.0748,0.6188 3.3124,2.1112 1.274,1.456 1.8564,4.004 0.5824,2.5116 0.5824,6.2972 0,3.7856 -0.5824,6.3336 -0.5824,2.5116 -1.8564,4.004 -1.2376,1.456 -3.3124,2.1112 -2.0748,0.6188 -5.0596,0.6188 -2.9848,0 -5.0596,-0.6188 -2.0748,-0.6552 -3.3488,-2.1112 -1.274,-1.4924 -1.8564,-4.004 -0.5824,-2.548 -0.5824,-6.3336 0,-3.7856 0.5824,-6.2972 0.5824,-2.548 1.8564,-4.004 1.274,-1.4924 3.3488,-2.1112 2.0748,-0.6552 5.0596,-0.6552 z m 0,4.4044 q -1.9292,0 -3.0212,0.7644 -1.0556,0.7644 -1.5288,2.6572 -0.4368,1.8564 -0.4368,5.2416 0,3.3488 0.4368,5.2416 0.4732,1.8928 1.5288,2.6572 1.092,0.7644 3.0212,0.7644 1.8928,0 2.9484,-0.7644 1.092,-0.7644 1.5288,-2.6572 0.4732,-1.8928 0.4732,-5.2416 0,-3.3852 -0.4732,-5.2416 -0.4368,-1.8928 -1.5288,-2.6572 -1.0556,-0.7644 -2.9484,-0.7644 z m 24.7156,-4.2588 q 3.3124,0 5.3508,0.6916 2.0748,0.6552 3.0212,2.2932 0.9828,1.6016 0.9828,4.4772 0,1.7472 -0.4732,3.094 -0.4368,1.3104 -1.4924,2.1112 -1.0556,0.8008 -2.8756,1.0192 v 0.182 q 0.6552,0.1092 1.3468,0.5096 0.728,0.4004 1.3468,1.2012 0.6188,0.7644 0.91,2.0748 l 2.184,7.826 h -5.8604 l -1.9292,-7.644 q -0.3276,-1.2376 -0.9828,-1.7108 -0.6188,-0.4732 -1.7472,-0.4732 -2.4752,0 -4.186,0 -1.6744,-0.0364 -2.83921,-0.0728 -1.1284,-0.0364 -2.0384,-0.0728 l 0.1092,-4.0404 h 9.06361 q 1.456,0 2.2932,-0.2912 0.8736,-0.3276 1.2012,-1.1284 0.364,-0.8008 0.364,-2.2204 0,-1.456 -0.364,-2.2204 -0.3276,-0.8008 -1.2012,-1.092 -0.8372,-0.3276 -2.2932,-0.3276 -3.4216,0 -5.7876,0.0364 -2.36601,0.0364 -3.23961,0.1092 l -0.546,-3.9676 q 1.5288,-0.182 2.8756,-0.2548 1.34681,-0.0728 2.94841,-0.0728 1.6016,-0.0364 3.8584,-0.0364 z m -4.186,0.364 v 25.116 h -5.49641 v -25.116 z m 38.14717,0 v 15.106 q 0,3.822 -0.9464,6.1516 -0.9464,2.2932 -3.1304,3.3488 -2.1476,1.0192 -5.7512,1.0192 -3.822,0 -6.1152,-1.0192 -2.2932,-1.0556 -3.3124,-3.3488 -1.0192,-2.3296 -1.0192,-6.1516 v -15.106 h 5.5692 v 15.106 q 0,2.366 0.4004,3.7128 0.4368,1.3104 1.456,1.8564 1.0192,0.546 2.73,0.546 1.7108,0 2.6936,-0.546 1.0192,-0.546 1.4196,-1.8564 0.4368,-1.3468 0.4368,-3.7128 v -15.106 z m 30.61244,0 q 1.9656,0 2.0384,2.0384 l 0.9464,23.0776 h -5.1324 l -0.8372,-20.8208 h -0.6552 l -4.0404,15.652 q -0.3276,1.7472 -2.184,1.7472 h -3.4944 q -1.8564,0 -2.2568,-1.7472 l -4.04041,-15.652 h -0.6188 l -0.7644,20.8208 h -5.1688 l 0.9464,-23.0776 q 0.0728,-2.0384 2.0748,-2.0384 h 5.2052 q 1.7836,0 2.184,1.7836 l 3.23961,12.6308 q 0.2184,0.8736 0.364,1.7836 0.1456,0.8736 0.3276,1.7836 h 0.4732 q 0.182,-0.91 0.3276,-1.7836 0.182,-0.91 0.364,-1.82 l 3.2032,-12.5944 q 0.364,-1.7836 2.184,-1.7836 z m 15.87043,-0.4732 q 1.8564,0 4.0404,0.2184 2.184,0.182 4.2588,0.8008 l -0.364,3.6764 q -1.6016,-0.0364 -3.7492,-0.0728 -2.1476,-0.0364 -4.2224,-0.0364 -1.0192,0 -1.7472,0.0728 -0.6916,0.0364 -1.1284,0.2912 -0.4368,0.2184 -0.6188,0.6916 -0.182,0.4732 -0.182,1.3104 0,1.274 0.5824,1.8564 0.6188,0.5824 2.0748,1.0556 l 4.8412,1.5652 q 3.0212,1.0192 4.186,2.7664 1.1648,1.7472 1.1648,4.5864 0,2.1476 -0.5096,3.5672 -0.5096,1.4196 -1.6016,2.2204 -1.092,0.8008 -2.8756,1.1284 -1.7836,0.364 -4.368,0.364 -1.2376,0 -3.5308,-0.182 -2.29321,-0.1456 -5.24161,-0.8008 l 0.364,-3.9312 q 2.1476,0.0364 3.7128,0.1092 1.60161,0.0364 2.73001,0.0728 1.1284,0 1.9656,0 1.456,0 2.2568,-0.182 0.8372,-0.182 1.1648,-0.728 0.3276,-0.546 0.3276,-1.5652 0,-0.8736 -0.2548,-1.3832 -0.2184,-0.546 -0.7644,-0.8372 -0.5096,-0.3276 -1.4196,-0.5824 l -5.096,-1.7472 q -2.87561,-1.0556 -4.07681,-2.7664 -1.2012,-1.7108 -1.2012,-4.5136 0,-2.184 0.5096,-3.5308 0.546,-1.3832 1.638,-2.1476 1.1284,-0.7644 2.87561,-1.0556 1.7836,-0.2912 4.2588,-0.2912 z"
     id="forums"
     aria-label="FORUMS" /></svg>
