<?xml version="1.0" encoding="UTF-8" standalone="no"?>
<!-- Created with Inkscape (http://www.inkscape.org/) -->

<svg
   width="480"
   height="70"
   viewBox="0 0 480.00001 70"
   version="1.1"
   id="svg5"
   xml:space="preserve"
   xmlns="http://www.w3.org/2000/svg"
   xmlns:svg="http://www.w3.org/2000/svg"><defs
     id="defs2" /><path
     id="name"
     style="font-size:185px;font-family:'Exo 2';-inkscape-font-specification:'Exo 2, @wght=550';font-variation-settings:'wght' 550;fill:#ffffff;fill-opacity:1;stroke:none;stroke-width:0;stroke-dasharray:none"
     d="m 288.92742,20.251199 v 7.321505 l -4.47103,0.232748 v 3.751627 h 4.47103 v 14.748264 c 0,2.22685 0.58214,3.939817 1.74694,5.138889 1.16484,1.164814 2.84378,1.747503 5.03636,1.747503 0.47964,0 1.09634,-0.03456 1.85006,-0.10308 0.75369,-0.06852 1.52431,-0.171123 2.31228,-0.308159 0.78794,-0.102778 1.47325,-0.239947 2.05566,-0.411241 l -0.61686,-4.008248 h -3.59702 c -1.16481,0 -1.98728,-0.222491 -2.46689,-0.667861 -0.47964,-0.479628 -0.71942,-1.267528 -0.71942,-2.363822 V 31.557079 h 7.65681 v -4.008247 h -7.65681 v -7.297633 z m -16.18761,6.62923 c -1.85,0 -3.73417,0.428242 -5.65268,1.284723 -1.81683,0.778641 -3.61808,1.8686 -5.40419,3.261719 l -0.4541,-3.878039 h -4.62511 v 25.129123 h 5.60113 V 34.885529 c 1.70813,-0.971222 3.20689,-1.7459 4.47103,-2.300889 1.40463,-0.650925 2.79195,-0.976563 4.16233,-0.976563 1.16481,0 1.98728,0.291616 2.46689,0.874025 0.51389,0.548147 0.77095,1.558536 0.77095,3.031683 v 17.16417 h 5.60114 V 33.817821 c 0,-4.624994 -2.31239,-6.937392 -6.93739,-6.937392 z m -23.69022,0.668189 v 25.129167 h -5.55 V 27.548618 Z m -1.49028,-10.894444 q 1.69583,0 1.69583,1.695833 v 2.877778 q 0,1.695833 -1.69583,1.695833 h -2.51806 q -1.69583,0 -1.69583,-1.695833 v -2.877778 q 0,-1.695833 1.69583,-1.695833 z M 213.1288,26.880429 c -1.81574,0 -3.56273,0.411503 -5.24143,1.233725 -1.54662,0.741089 -3.13949,1.850289 -4.77702,3.318684 l -0.41341,-3.884006 h -4.52203 v 25.129123 h 5.60113 v -17.89822 c 1.00141,-0.688 1.88022,-1.253947 2.62099,-1.681314 0.89074,-0.513889 1.67864,-0.890286 2.36382,-1.1301 0.71945,-0.239814 1.45604,-0.360244 2.20975,-0.360244 1.16481,0 2.03857,0.291616 2.62098,0.874025 0.58241,0.582405 0.87348,1.592794 0.87348,3.031683 v 17.16417 h 5.39551 V 34.85786 c 0.99977,-0.683953 1.89327,-1.27127 2.62098,-1.7079 0.85648,-0.548147 1.64438,-0.941825 2.36383,-1.181639 0.71944,-0.239814 1.47332,-0.360244 2.26128,-0.360244 1.26759,0 2.1581,0.308355 2.67199,0.925022 0.51388,0.616666 0.77094,1.610317 0.77094,2.980686 v 17.16417 h 5.55013 V 33.817821 c 0,-2.261108 -0.58269,-3.974075 -1.7475,-5.138889 -1.16482,-1.199072 -2.84322,-1.798503 -5.03581,-1.798503 -1.78148,0 -3.51173,0.411503 -5.19043,1.233725 -1.4794,0.708878 -3.01473,1.752834 -4.60504,3.12717 -0.29487,-1.062609 -0.78013,-1.93465 -1.45887,-2.613389 -1.13056,-1.164814 -2.77494,-1.747506 -4.93327,-1.747506 z m -44.96528,0.668403 7.60579,12.17882 -8.22265,12.950303 h 5.90983 l 6.73937,-11.100259 h 0.76389 l 6.78276,11.100259 h 5.85884 l -8.22266,-12.950303 7.60579,-12.17882 h -5.85828 l -6.06554,10.123156 h -0.97331 l -6.06554,-10.123156 z m -27.80111,0 v 18.859592 c 0,4.624997 2.32968,6.937392 6.98894,6.937392 1.88425,0 3.73385,-0.39422 5.54958,-1.182184 1.66847,-0.724052 3.38093,-1.769972 5.13618,-3.130425 l 0.4655,3.644748 h 4.41948 V 27.548832 h -5.60167 v 18.001303 c -1.54511,0.940572 -2.88984,1.680692 -4.00824,2.194553 -1.23334,0.548147 -2.4835,0.821939 -3.75109,0.821939 -1.30185,0 -2.2442,-0.291072 -2.82661,-0.873481 -0.54814,-0.582405 -0.8052,-1.558775 -0.77094,-2.929144 v -17.21517 z m -13.97786,-0.668403 c -1.85,0 -3.73415,0.428242 -5.65267,1.284723 -1.81683,0.778641 -3.61808,1.8686 -5.40419,3.261719 l -0.4541,-3.878039 h -4.62511 v 25.129123 h 5.60113 V 34.886071 c 1.70833,-0.971353 3.20677,-1.746389 4.47103,-2.301431 1.40463,-0.650925 2.79195,-0.976563 4.16232,-0.976563 1.16482,0 1.98728,0.291616 2.46691,0.874025 0.51389,0.548147 0.77094,1.558536 0.77094,3.031683 v 17.16417 h 5.60113 V 33.817821 c 0,-4.624994 -2.31239,-6.937392 -6.93739,-6.937392 z m -23.69021,0.668189 V 52.677785 H 97.144345 V 27.548618 Z m -1.49027,-10.894444 q 1.69583,0 1.69583,1.695833 v 2.877778 q 0,1.695833 -1.69583,1.695833 h -2.518059 q -1.695833,0 -1.695833,-1.695833 v -2.877778 q 0,-1.695833 1.695833,-1.695833 z m -14.491573,0.05139 -0.05139,28.623611 q 0,1.490278 0.822222,2.261111 0.873611,0.770833 2.466666,0.770833 h 2.261112 l 0.668055,4.008334 q -0.513889,0.256944 -1.490278,0.411111 -0.925,0.205555 -1.952777,0.308333 -1.027778,0.102778 -1.695834,0.102778 -3.031944,0 -4.830555,-1.695833 -1.798611,-1.695834 -1.798611,-4.830556 V 16.705563 Z" /><path
     id="logo"
     style="color:#000000;fill:#ffffff;fill-opacity:1;stroke:none;stroke-width:0;stroke-dasharray:none"
     d="m 35,5.0000042 c -16.601411,0 -30.0000004,13.3985888 -30.0000004,29.9999998 0,16.601412 13.3985894,30.000001 30.0000004,30.000001 16.601411,0 30,-13.398589 30,-30.000001 C 65,18.398593 51.601411,5.0000042 35,5.0000042 Z M 15.555555,16.944449 h 5.555556 v 25 c 0,3.101144 2.454411,5.555555 5.555555,5.555555 h 16.666667 c 3.101145,0 5.555556,-2.454411 5.555556,-5.555555 V 28.05556 c 0,-1.56702 -1.210759,-2.777778 -2.777778,-2.777778 -1.567022,0 -2.777778,1.210756 -2.777778,2.777778 V 41.944449 H 37.777778 V 28.05556 c 0,-1.567022 -1.210756,-2.777778 -2.777778,-2.777778 -1.567022,0 -2.777778,1.210756 -2.777778,2.777778 V 41.944449 H 26.666666 V 28.05556 c 0,-4.569461 3.763873,-8.333334 8.333334,-8.333334 2.134664,0 4.074116,0.843556 5.555555,2.184787 1.481439,-1.341231 3.420892,-2.184787 5.555556,-2.184787 4.569461,0 8.333333,3.763873 8.333333,8.333334 v 13.888889 c 0,6.103583 -5.007527,11.111111 -11.111111,11.111111 H 26.666666 c -6.103586,0 -11.111111,-5.007528 -11.111111,-11.111111 z" /><path
     style="font-weight:bold;font-size:36.4px;line-height:1.25;font-family:Ubuntu;-inkscape-font-specification:'Ubuntu Bold';fill:#ffffff;stroke:none"
     d="m 319.50001,52.74875 v -25.2252 h 16.8896 v 4.7684 h -11.2112 v 5.278 h 9.9736 v 4.7684 h -9.9736 v 10.4104 z m 25.3708,-12.6308 q 0,1.8564 0.4368,3.3488 0.4732,1.4924 1.3104,2.5844 0.8736,1.0556 2.1112,1.638 1.2376,0.5824 2.8392,0.5824 1.5652,0 2.8028,-0.5824 1.274,-0.5824 2.1112,-1.638 0.8736,-1.092 1.3104,-2.5844 0.4732,-1.4924 0.4732,-3.3488 0,-1.8564 -0.4732,-3.3488 -0.4368,-1.5288 -1.3104,-2.5844 -0.8372,-1.092 -2.1112,-1.6744 -1.2376,-0.5824 -2.8028,-0.5824 -1.6016,0 -2.8392,0.6188 -1.2376,0.5824 -2.1112,1.6744 -0.8372,1.0556 -1.3104,2.5844 -0.4368,1.4924 -0.4368,3.3124 z m 19.2556,0 q 0,3.2396 -0.9828,5.7148 -0.9464,2.4388 -2.6208,4.1132 -1.6744,1.638 -4.004,2.4752 -2.2932,0.8372 -4.9504,0.8372 -2.5844,0 -4.8776,-0.8372 -2.2932,-0.8372 -4.004,-2.4752 -1.7108,-1.6744 -2.6936,-4.1132 -0.9828,-2.4752 -0.9828,-5.7148 0,-3.2396 1.0192,-5.6784 1.0192,-2.4752 2.73,-4.1496 1.7472,-1.6744 4.004,-2.5116 2.2932,-0.8372 4.8048,-0.8372 2.5844,0 4.8776,0.8372 2.2932,0.8372 4.004,2.5116 1.7108,1.6744 2.6936,4.1496 0.9828,2.4388 0.9828,5.6784 z m 12.12124,-12.8856 q 5.6784,0 8.6996,2.0384 3.0212,2.002 3.0212,6.2608 0,2.6572 -1.2376,4.3316 -1.2012,1.638 -3.4944,2.5844 0.7644,0.9464 1.6016,2.184 0.8372,1.2012 1.638,2.548 0.8372,1.3104 1.6016,2.7664 0.7644,1.4196 1.4196,2.8028 h -6.37 q -0.6916,-1.2376 -1.4196,-2.5116 -0.6916,-1.274 -1.456,-2.4752 -0.728,-1.2012 -1.456,-2.2568 -0.728,-1.092 -1.456,-1.9656 h -2.8028 v 9.2092 h -5.6784 v -24.8612 q 1.8564,-0.364 3.822,-0.5096 2.002,-0.1456 3.5672,-0.1456 z m 0.3276,4.8412 q -0.6188,0 -1.1284,0.0364 -0.4732,0.0364 -0.91,0.0728 v 6.8432 h 1.6016 q 3.2032,0 4.5864,-0.8008 1.3832,-0.8008 1.3832,-2.73 0,-1.8564 -1.4196,-2.6208 -1.3832,-0.8008 -4.1132,-0.8008 z m 26.13522,21.1848 q -2.6572,0 -4.5864,-0.728 -1.9292,-0.7644 -3.2032,-2.0748 -1.2376,-1.3468 -1.8564,-3.1668 -0.5824,-1.8564 -0.5824,-4.0768 v -15.6884 h 5.6784 v 15.2152 q 0,1.5288 0.3276,2.6208 0.364,1.0556 0.9464,1.7472 0.6188,0.6552 1.456,0.9464 0.8736,0.2912 1.8928,0.2912 2.0748,0 3.3488,-1.274 1.3104,-1.274 1.3104,-4.3316 v -15.2152 h 5.6784 v 15.6884 q 0,2.2204 -0.6188,4.0768 -0.6188,1.8564 -1.8928,3.2032 -1.274,1.3104 -3.2396,2.0384 -1.9656,0.728 -4.6592,0.728 z m 22.56802,-25.7348 q 0.6552,1.2012 1.4924,2.9848 0.8736,1.7472 1.7836,3.822 0.9464,2.0384 1.8564,4.186 0.91,2.1476 1.7108,4.0404 0.8008,-1.8928 1.7108,-4.0404 0.91,-2.1476 1.82,-4.186 0.9464,-2.0748 1.7836,-3.822 0.8736,-1.7836 1.5288,-2.9848 h 5.1688 q 0.364,2.5116 0.6552,5.642 0.3276,3.094 0.546,6.4792 0.2548,3.3488 0.4368,6.734 0.2184,3.3852 0.364,6.37 h -5.5328 q -0.1092,-3.6764 -0.2912,-8.008 -0.182,-4.3316 -0.546,-8.736 -0.6552,1.5288 -1.456,3.3852 -0.8008,1.8564 -1.6016,3.7128 -0.7644,1.8564 -1.4924,3.5672 -0.728,1.6744 -1.2376,2.8756 h -3.9676 q -0.5096,-1.2012 -1.2376,-2.8756 -0.728,-1.7108 -1.5288,-3.5672 -0.7644,-1.8564 -1.5652,-3.7128 -0.8008,-1.8564 -1.456,-3.3852 -0.364,4.4044 -0.546,8.736 -0.182,4.3316 -0.2912,8.008 h -5.5328 q 0.1456,-2.9848 0.3276,-6.37 0.2184,-3.3852 0.4368,-6.734 0.2548,-3.3852 0.546,-6.4792 0.3276,-3.1304 0.6916,-5.642 z m 32.83278,20.8936 q 1.2012,0 1.9656,-0.182 0.8008,-0.2184 1.274,-0.546 0.4732,-0.364 0.6552,-0.8372 0.182,-0.4732 0.182,-1.0556 0,-1.2376 -1.1648,-2.0384 -1.1648,-0.8372 -4.004,-1.7836 -1.2376,-0.4368 -2.4752,-0.9828 -1.2376,-0.5824 -2.2204,-1.4196 -0.9828,-0.8736 -1.6016,-2.0748 -0.6188,-1.2376 -0.6188,-2.9848 0,-1.7472 0.6552,-3.1304 0.6552,-1.4196 1.8564,-2.4024 1.2012,-0.9828 2.912,-1.4924 1.7108,-0.546 3.8584,-0.546 2.548,0 4.4044,0.546 1.8564,0.546 3.0576,1.2012 l -1.638,4.4772 q -1.0556,-0.546 -2.366,-0.9464 -1.274,-0.4368 -3.094,-0.4368 -2.0384,0 -2.9484,0.5824 -0.8736,0.546 -0.8736,1.7108 0,0.6916 0.3276,1.1648 0.3276,0.4732 0.91,0.8736 0.6188,0.364 1.3832,0.6916 0.8008,0.2912 1.7472,0.6188 1.9656,0.728 3.4216,1.456 1.456,0.6916 2.4024,1.638 0.9828,0.9464 1.456,2.2204 0.4732,1.274 0.4732,3.094 0,3.5308 -2.4752,5.4964 -2.4752,1.9292 -7.462,1.9292 -1.6744,0 -3.0212,-0.2184 -1.3468,-0.182 -2.4024,-0.4732 -1.0192,-0.2912 -1.7836,-0.6188 -0.728,-0.3276 -1.2376,-0.6188 l 1.6016,-4.5136 q 1.1284,0.6188 2.7664,1.1284 1.6744,0.4732 4.0768,0.4732 z"
     id="forums"
     aria-label="FORUMS" /></svg>
