<?xml version="1.0" encoding="UTF-8" standalone="no"?>
<!-- Created with Inkscape (http://www.inkscape.org/) -->

<svg
   width="480"
   height="70"
   viewBox="0 0 480.00001 70"
   version="1.1"
   id="svg5"
   xml:space="preserve"
   xmlns="http://www.w3.org/2000/svg"
   xmlns:svg="http://www.w3.org/2000/svg"><defs
     id="defs2" /><g
     id="layer2"
     style="display:inline"
     transform="translate(-52,-372)"><g
       id="logo_name"
       transform="matrix(0.27777778,0,0,0.27777778,42.555555,273.66667)"><path
         id="name"
         style="font-size:185px;font-family:'Exo 2';-inkscape-font-specification:'Exo 2, @wght=550';font-variation-settings:'wght' 550;fill:#ffffff;fill-opacity:1;stroke:none;stroke-width:0;stroke-dasharray:none"
         d="m 1074.1387,426.9043 v 26.35742 l -16.0957,0.83789 v 13.50586 h 16.0957 v 53.09375 c 0,8.01666 2.0957,14.18334 6.289,18.5 4.1934,4.19333 10.2376,6.29101 18.1309,6.29101 1.7267,0 3.9468,-0.12442 6.6602,-0.37109 2.7133,-0.24667 5.4875,-0.61604 8.3242,-1.10937 2.8366,-0.37 5.3037,-0.86381 7.4004,-1.48047 l -2.2207,-14.42969 h -12.9493 c -4.1933,0 -7.1542,-0.80097 -8.8808,-2.4043 -1.7267,-1.72666 -2.5899,-4.5631 -2.5899,-8.50976 v -49.58008 h 27.5645 v -14.42969 h -27.5645 V 426.9043 Z m -58.2754,23.86523 c -6.66,0 -13.443,1.54167 -20.34963,4.625 -6.54059,2.80311 -13.02509,6.72696 -19.45508,11.74219 l -1.63476,-13.96094 h -16.65039 v 90.46484 h 20.16406 v -64.05273 c 6.14925,-3.4964 11.54479,-6.28524 16.0957,-8.2832 5.05666,-2.34333 10.051,-3.51563 14.9844,-3.51563 4.1933,0 7.1542,1.04982 8.8808,3.14649 1.85,1.97333 2.7754,5.61073 2.7754,10.91406 v 61.79101 h 20.1641 v -67.89648 c 0,-16.64998 -8.3246,-24.97461 -24.9746,-24.97461 z m -85.28479,2.40548 v 90.465 h -19.98 v -90.465 z m -5.365,-39.22 q 6.105,0 6.105,6.105 v 10.36 q 0,6.105 -6.105,6.105 h -9.065 q -6.105,0 -6.105,-6.105 v -10.36 q 0,-6.105 6.105,-6.105 z m -123.94984,36.81452 c -6.53666,0 -12.82581,1.48141 -18.86914,4.44141 -5.56783,2.66792 -11.30215,6.66104 -17.19726,11.94726 l -1.48829,-13.98242 h -16.27929 v 90.46484 h 20.16406 v -64.43359 c 3.60505,-2.4768 6.76878,-4.51421 9.43555,-6.05273 3.20666,-1.85 6.0431,-3.20503 8.50976,-4.06836 2.59,-0.86333 5.24175,-1.29688 7.95508,-1.29688 4.19333,0 7.33888,1.04982 9.43555,3.14649 2.09666,2.09666 3.14453,5.73406 3.14453,10.91406 v 61.79101 h 19.42383 v -64.15234 c 3.59917,-2.46223 6.81577,-4.57657 9.43554,-6.14844 3.08333,-1.97333 5.91977,-3.39057 8.50977,-4.2539 2.59,-0.86333 5.30396,-1.29688 8.14062,-1.29688 4.56333,0 7.76915,1.11008 9.61914,3.33008 1.85,2.22 2.7754,5.79714 2.7754,10.73047 v 61.79101 h 19.98046 v -67.89648 c 0,-8.13999 -2.09768,-14.30667 -6.29101,-18.5 -4.19333,-4.31666 -10.23558,-6.47461 -18.12891,-6.47461 -6.41332,0 -12.64222,1.48141 -18.68554,4.44141 -5.32583,2.55196 -10.85303,6.3102 -16.57813,11.25781 -1.06153,-3.82539 -2.80849,-6.96474 -5.25195,-9.4082 -4.07,-4.19333 -9.98978,-6.29102 -17.75977,-6.29102 z m -161.875,2.40625 27.38086,43.84375 -29.60156,46.62109 h 21.27539 l 24.26172,-39.96093 h 2.75 l 24.41797,39.96093 h 21.09179 l -29.60156,-46.62109 27.38086,-43.84375 H 707.6543 l -21.83594,36.44336 h -3.50391 l -21.83593,-36.44336 z m -100.08398,0 v 67.89453 c 0,16.64999 8.38684,24.97461 25.16015,24.97461 6.78333,0 13.44186,-1.41919 19.97852,-4.25586 6.00649,-2.60659 12.17133,-6.3719 18.49023,-11.26953 l 1.67579,13.12109 h 15.91015 v -90.46484 h -20.16601 v 64.80469 c -5.56241,3.38606 -10.40344,6.05049 -14.42969,7.90039 -4.44,1.97333 -8.94058,2.95898 -13.50391,2.95898 -4.68666,0 -8.07911,-1.04786 -10.17578,-3.14453 -1.97333,-2.09666 -2.89872,-5.61159 -2.77539,-10.54492 v -61.97461 z m -50.32031,-2.40625 c -6.66,0 -13.44295,1.54167 -20.34961,4.625 -6.5406,2.80311 -13.0251,6.72696 -19.45508,11.74219 l -1.63477,-13.96094 h -16.65039 v 90.46484 h 20.16406 v -64.05078 c 6.14999,-3.49687 11.54437,-6.287 16.09571,-8.28515 5.05666,-2.34333 10.05104,-3.51563 14.98437,-3.51563 4.19333,0 7.1542,1.04982 8.88086,3.14649 1.85,1.97333 2.77539,5.61073 2.77539,10.91406 v 61.79101 h 20.16406 v -67.89648 c 0,-16.64998 -8.32462,-24.97461 -24.9746,-24.97461 z m -85.28474,2.40548 v 90.465 h -19.98 v -90.465 z m -5.365,-39.22 q 6.105,0 6.105,6.105 v 10.36 q 0,6.105 -6.105,6.105 h -9.065 q -6.105,0 -6.105,-6.105 v -10.36 q 0,-6.105 6.105,-6.105 z m -52.16965,0.185 -0.185,103.045 q 0,5.365 2.96,8.14 3.145,2.775 8.88,2.775 h 8.14 l 2.405,14.43 q -1.85,0.925 -5.365,1.48 -3.33,0.74 -7.03,1.11 -3.7,0.37 -6.105,0.37 -10.915,0 -17.39,-6.105 -6.475,-6.105 -6.475,-17.39 v -107.855 z" /><path
         id="logo"
         style="color:#000000;fill:#ffffff;fill-opacity:1;stroke:none;stroke-width:0;stroke-dasharray:none"
         d="m 160,372 c -59.76508,0 -108,48.23492 -108,108 0,59.76508 48.23492,108 108,108 59.76508,0 108,-48.23492 108,-108 0,-59.76508 -48.23492,-108 -108,-108 z m -70,43 h 20 v 90 c 0,11.16412 8.83588,20 20,20 h 60 c 11.16412,0 20,-8.83588 20,-20 v -50 c 0,-5.64127 -4.35873,-10 -10,-10 -5.64128,0 -10,4.35872 -10,10 v 50 h -20 v -50 c 0,-5.64128 -4.35872,-10 -10,-10 -5.64128,0 -10,4.35872 -10,10 v 50 h -20 v -50 c 0,-16.45006 13.54994,-30 30,-30 7.68479,0 14.66682,3.0368 20,7.86523 C 185.33318,428.0368 192.31521,425 200,425 c 16.45006,0 30,13.54994 30,30 v 50 c 0,21.9729 -18.0271,40 -40,40 h -60 c -21.97291,0 -40,-18.0271 -40,-40 z" /></g><path
       style="font-weight:bold;font-size:36.4px;line-height:1.25;font-family:'Exo 2';-inkscape-font-specification:'Exo 2 Bold';fill:#ffffff"
       d="m 376.92359,399.52355 q 1.9292,0 3.9312,0.0364 2.0384,0 3.9676,0.1092 1.9656,0.0728 3.64,0.2548 l -0.2912,4.004 h -9.1 q -0.9828,0 -1.4924,0.4732 -0.5096,0.4732 -0.5096,1.3832 v 18.9644 h -5.5692 v -20.0928 q 0,-2.3296 1.4924,-3.7128 1.4924,-1.4196 3.9312,-1.4196 z m -4.7684,10.6288 h 14.6692 v 3.9312 h -14.6692 z m 29.57497,-11.0292 q 2.9848,0 5.0596,0.6552 2.0748,0.6188 3.3124,2.1112 1.274,1.456 1.8564,4.004 0.5824,2.5116 0.5824,6.2972 0,3.7856 -0.5824,6.3336 -0.5824,2.5116 -1.8564,4.004 -1.2376,1.456 -3.3124,2.1112 -2.0748,0.6188 -5.0596,0.6188 -2.9848,0 -5.0596,-0.6188 -2.0748,-0.6552 -3.3488,-2.1112 -1.274,-1.4924 -1.8564,-4.004 -0.5824,-2.548 -0.5824,-6.3336 0,-3.7856 0.5824,-6.2972 0.5824,-2.548 1.8564,-4.004 1.274,-1.4924 3.3488,-2.1112 2.0748,-0.6552 5.0596,-0.6552 z m 0,4.4044 q -1.9292,0 -3.0212,0.7644 -1.0556,0.7644 -1.5288,2.6572 -0.4368,1.8564 -0.4368,5.2416 0,3.3488 0.4368,5.2416 0.4732,1.8928 1.5288,2.6572 1.092,0.7644 3.0212,0.7644 1.8928,0 2.9484,-0.7644 1.092,-0.7644 1.5288,-2.6572 0.4732,-1.8928 0.4732,-5.2416 0,-3.3852 -0.4732,-5.2416 -0.4368,-1.8928 -1.5288,-2.6572 -1.0556,-0.7644 -2.9484,-0.7644 z m 24.7156,-4.2588 q 3.3124,0 5.3508,0.6916 2.0748,0.6552 3.0212,2.2932 0.9828,1.6016 0.9828,4.4772 0,1.7472 -0.4732,3.094 -0.4368,1.3104 -1.4924,2.1112 -1.0556,0.8008 -2.8756,1.0192 v 0.182 q 0.6552,0.1092 1.3468,0.5096 0.728,0.4004 1.3468,1.2012 0.6188,0.7644 0.91,2.0748 l 2.184,7.826 h -5.8604 l -1.9292,-7.644 q -0.3276,-1.2376 -0.9828,-1.7108 -0.6188,-0.4732 -1.7472,-0.4732 -2.4752,0 -4.186,0 -1.6744,-0.0364 -2.83921,-0.0728 -1.1284,-0.0364 -2.0384,-0.0728 l 0.1092,-4.0404 h 9.06361 q 1.456,0 2.2932,-0.2912 0.8736,-0.3276 1.2012,-1.1284 0.364,-0.8008 0.364,-2.2204 0,-1.456 -0.364,-2.2204 -0.3276,-0.8008 -1.2012,-1.092 -0.8372,-0.3276 -2.2932,-0.3276 -3.4216,0 -5.7876,0.0364 -2.36601,0.0364 -3.23961,0.1092 l -0.546,-3.9676 q 1.5288,-0.182 2.8756,-0.2548 1.34681,-0.0728 2.94841,-0.0728 1.6016,-0.0364 3.8584,-0.0364 z m -4.186,0.364 v 25.116 h -5.49641 v -25.116 z m 38.14717,0 v 15.106 q 0,3.822 -0.9464,6.1516 -0.9464,2.2932 -3.1304,3.3488 -2.1476,1.0192 -5.7512,1.0192 -3.822,0 -6.1152,-1.0192 -2.2932,-1.0556 -3.3124,-3.3488 -1.0192,-2.3296 -1.0192,-6.1516 v -15.106 h 5.5692 v 15.106 q 0,2.366 0.4004,3.7128 0.4368,1.3104 1.456,1.8564 1.0192,0.546 2.73,0.546 1.7108,0 2.6936,-0.546 1.0192,-0.546 1.4196,-1.8564 0.4368,-1.3468 0.4368,-3.7128 v -15.106 z m 30.61244,0 q 1.9656,0 2.0384,2.0384 l 0.9464,23.0776 h -5.1324 l -0.8372,-20.8208 h -0.6552 l -4.0404,15.652 q -0.3276,1.7472 -2.184,1.7472 h -3.4944 q -1.8564,0 -2.2568,-1.7472 l -4.04041,-15.652 h -0.6188 l -0.7644,20.8208 h -5.1688 l 0.9464,-23.0776 q 0.0728,-2.0384 2.0748,-2.0384 h 5.2052 q 1.7836,0 2.184,1.7836 l 3.23961,12.6308 q 0.2184,0.8736 0.364,1.7836 0.1456,0.8736 0.3276,1.7836 h 0.4732 q 0.182,-0.91 0.3276,-1.7836 0.182,-0.91 0.364,-1.82 l 3.2032,-12.5944 q 0.364,-1.7836 2.184,-1.7836 z m 15.87043,-0.4732 q 1.8564,0 4.0404,0.2184 2.184,0.182 4.2588,0.8008 l -0.364,3.6764 q -1.6016,-0.0364 -3.7492,-0.0728 -2.1476,-0.0364 -4.2224,-0.0364 -1.0192,0 -1.7472,0.0728 -0.6916,0.0364 -1.1284,0.2912 -0.4368,0.2184 -0.6188,0.6916 -0.182,0.4732 -0.182,1.3104 0,1.274 0.5824,1.8564 0.6188,0.5824 2.0748,1.0556 l 4.8412,1.5652 q 3.0212,1.0192 4.186,2.7664 1.1648,1.7472 1.1648,4.5864 0,2.1476 -0.5096,3.5672 -0.5096,1.4196 -1.6016,2.2204 -1.092,0.8008 -2.8756,1.1284 -1.7836,0.364 -4.368,0.364 -1.2376,0 -3.5308,-0.182 -2.29321,-0.1456 -5.24161,-0.8008 l 0.364,-3.9312 q 2.1476,0.0364 3.7128,0.1092 1.60161,0.0364 2.73001,0.0728 1.1284,0 1.9656,0 1.456,0 2.2568,-0.182 0.8372,-0.182 1.1648,-0.728 0.3276,-0.546 0.3276,-1.5652 0,-0.8736 -0.2548,-1.3832 -0.2184,-0.546 -0.7644,-0.8372 -0.5096,-0.3276 -1.4196,-0.5824 l -5.096,-1.7472 q -2.87561,-1.0556 -4.07681,-2.7664 -1.2012,-1.7108 -1.2012,-4.5136 0,-2.184 0.5096,-3.5308 0.546,-1.3832 1.638,-2.1476 1.1284,-0.7644 2.87561,-1.0556 1.7836,-0.2912 4.2588,-0.2912 z"
       id="forums"
       aria-label="FORUMS" /></g></svg>
