<?xml version="1.0" encoding="UTF-8" standalone="no"?>
<!-- Created with Inkscape (http://www.inkscape.org/) -->

<svg
   width="425"
   height="55"
   viewBox="0 0 425.00001 55"
   version="1.1"
   id="svg5"
   xml:space="preserve"
   sodipodi:docname="logo-Exo2-03-dark.svg"
   inkscape:version="1.3.2 (091e20ef0f, 2023-11-25)"
   xmlns:inkscape="http://www.inkscape.org/namespaces/inkscape"
   xmlns:sodipodi="http://sodipodi.sourceforge.net/DTD/sodipodi-0.dtd"
   xmlns="http://www.w3.org/2000/svg"
   xmlns:svg="http://www.w3.org/2000/svg"><sodipodi:namedview
     id="namedview1"
     pagecolor="#333333"
     bordercolor="#000000"
     borderopacity="0.25"
     inkscape:showpageshadow="2"
     inkscape:pageopacity="0.0"
     inkscape:pagecheckerboard="0"
     inkscape:deskcolor="#333333"
     inkscape:zoom="2.6258824"
     inkscape:cx="212.5"
     inkscape:cy="27.419355"
     inkscape:current-layer="svg5" /><defs
     id="defs2" /><path
     id="name"
     style="font-size:185px;font-family:'Exo 2';-inkscape-font-specification:'Exo 2, @wght=550';font-variation-settings:'wght' 550;fill:#e5e5e5;fill-opacity:1;stroke:none;stroke-width:0;stroke-dasharray:none"
     d="m 260.2668,13.980262 v 6.711379 l -4.09845,0.213352 v 3.438992 h 4.09845 v 13.519242 c 0,2.041279 0.53363,3.611498 1.60136,4.710648 1.06777,1.067746 2.6068,1.601877 4.61666,1.601877 0.43967,0 1.00498,-0.03168 1.69589,-0.09449 0.69088,-0.06281 1.39728,-0.156862 2.11959,-0.282479 0.72228,-0.09421 1.35048,-0.219951 1.88436,-0.376971 l -0.56546,-3.674227 h -3.29727 c -1.06774,0 -1.82167,-0.20395 -2.26131,-0.612206 -0.43967,-0.439659 -0.65947,-1.1619 -0.65947,-2.166837 V 24.343985 h 7.01874 v -3.674227 h -7.01874 v -6.689496 z m -14.83864,6.076794 c -1.69584,0 -3.42299,0.392555 -5.18163,1.177662 -1.66543,0.713755 -3.31657,1.712884 -4.95384,2.989909 l -0.41626,-3.554869 h -4.23968 v 23.035029 h 5.13437 V 27.395064 c 1.56578,-0.890287 2.93965,-1.600408 4.09844,-2.109148 1.28758,-0.596682 2.55929,-0.895183 3.81547,-0.895183 1.06774,0 1.82167,0.267315 2.26132,0.80119 0.47106,0.502468 0.7067,1.428657 0.7067,2.779042 v 15.733822 h 5.13438 V 26.416332 c 0,-4.239578 -2.11969,-6.359276 -6.35927,-6.359276 z m -21.71604,0.612506 v 23.03507 h -5.0875 v -23.03507 z m -1.36609,-9.986573 q 1.55451,0 1.55451,1.554513 v 2.637963 q 0,1.554514 -1.55451,1.554514 h -2.30822 q -1.55451,0 -1.55451,-1.554514 v -2.637963 q 0,-1.554513 1.55451,-1.554513 z m -31.5613,9.374067 c -1.66443,0 -3.26584,0.377211 -4.80464,1.130914 -1.41774,0.679332 -2.87787,1.696098 -4.37894,3.042127 l -0.37896,-3.560339 H 177.077 v 23.035029 h 5.13437 V 27.298086 c 0.91796,-0.630667 1.72353,-1.149451 2.40257,-1.541204 0.81651,-0.471065 1.53875,-0.816096 2.16684,-1.035925 0.65949,-0.21983 1.3347,-0.330224 2.0256,-0.330224 1.06774,0 1.86869,0.267315 2.40257,0.80119 0.53387,0.533871 0.80069,1.460061 0.80069,2.779042 v 15.733822 h 4.94588 V 27.369701 c 0.91646,-0.626957 1.7355,-1.165331 2.40256,-1.565575 0.78511,-0.502468 1.50735,-0.86334 2.16685,-1.083169 0.65949,-0.21983 1.35054,-0.330224 2.07284,-0.330224 1.16196,0 1.97826,0.282659 2.44932,0.847937 0.47106,0.565277 0.7067,1.476124 0.7067,2.732295 v 15.733822 h 5.08762 V 26.416332 c 0,-2.072683 -0.53414,-3.642902 -1.60188,-4.710649 -1.06775,-1.099149 -2.60628,-1.648627 -4.61616,-1.648627 -1.63302,0 -3.21908,0.377211 -4.75789,1.130914 -1.35612,0.649805 -2.7635,1.606765 -4.22129,2.866573 -0.2703,-0.974059 -0.71512,-1.773429 -1.3373,-2.395607 -1.03634,-1.067746 -2.54369,-1.60188 -4.52216,-1.60188 z m -41.21817,0.612702 6.97197,11.163919 -7.53743,11.87111 h 5.41735 L 160.5962,33.52955 h 0.70023 l 6.21753,10.175237 h 5.37061 l -7.53744,-11.87111 6.97197,-11.163919 h -5.37009 l -5.56007,9.27956 h -0.89221 l -5.56007,-9.27956 z m -25.48435,0 v 17.287959 c 0,4.239581 2.13554,6.359276 6.40653,6.359276 1.72722,0 3.42269,-0.361368 5.08711,-1.083668 1.52943,-0.663715 3.09919,-1.622475 4.70817,-2.869557 l 0.4267,3.341019 h 4.05119 V 20.669758 h -5.13486 v 16.501195 c -1.41635,0.862191 -2.64902,1.540634 -3.67422,2.011673 -1.13056,0.502468 -2.27654,0.753444 -3.4385,0.753444 -1.19336,0 -2.05718,-0.266816 -2.59106,-0.800691 -0.50246,-0.533871 -0.7381,-1.428877 -0.70669,-2.685048 V 20.669758 Z m -12.81304,-0.612702 c -1.69583,0 -3.42297,0.392555 -5.18161,1.177662 -1.66543,0.713755 -3.31658,1.712884 -4.95385,2.989909 l -0.41625,-3.554869 h -4.239688 v 23.035029 h 5.134368 V 27.395561 c 1.56597,-0.890407 2.93954,-1.600857 4.09845,-2.109645 1.28757,-0.596682 2.55928,-0.895183 3.81546,-0.895183 1.06775,0 1.82167,0.267315 2.26133,0.80119 0.47106,0.502468 0.70669,1.428657 0.70669,2.779042 v 15.733822 h 5.13437 V 26.416332 c 0,-4.239578 -2.11969,-6.359276 -6.35927,-6.359276 z m -21.716026,0.612506 v 23.03507 h -5.087496 v -23.03507 z m -1.366081,-9.986573 q 1.554511,0 1.554511,1.554513 v 2.637963 q 0,1.554514 -1.554511,1.554514 h -2.308221 q -1.554513,0 -1.554513,-1.554514 v -2.637963 q 0,-1.554513 1.554513,-1.554513 z m -13.283942,0.04711 -0.04711,26.23831 q 0,1.366088 0.753703,2.072685 0.80081,0.706597 2.261111,0.706597 h 2.072686 l 0.612383,3.674306 q -0.471065,0.235532 -1.366088,0.376852 -0.847916,0.188425 -1.790045,0.282638 -0.94213,0.09421 -1.554515,0.09421 -2.779282,0 -4.428008,-1.554513 -1.648727,-1.554515 -1.648727,-4.42801 V 10.730095 Z" /><path
     id="logo"
     style="color:#000000;fill:#e5e5e5;fill-opacity:1;stroke:none;stroke-width:0;stroke-dasharray:none"
     d="M 27.5,0 C 12.28204,0 -1.6666661e-8,12.28204 -1.6666661e-8,27.499999 -1.6666661e-8,42.71796 12.28204,55 27.5,55 42.71796,55 54.999999,42.71796 54.999999,27.499999 54.999999,12.28204 42.71796,0 27.5,0 Z M 9.6759256,10.949074 H 14.768518 V 33.86574 c 0,2.842716 2.249877,5.092592 5.092592,5.092592 h 15.277778 c 2.842716,0 5.092593,-2.249876 5.092593,-5.092592 V 21.134259 c 0,-1.436435 -1.109862,-2.546296 -2.546296,-2.546296 -1.436437,0 -2.546297,1.109859 -2.546297,2.546296 V 33.86574 H 30.046296 V 21.134259 c 0,-1.436437 -1.109859,-2.546296 -2.546296,-2.546296 -1.436437,0 -2.546297,1.109859 -2.546297,2.546296 V 33.86574 H 19.86111 V 21.134259 c 0,-4.188672 3.450217,-7.638889 7.63889,-7.638889 1.956775,0 3.734606,0.773259 5.092592,2.002721 1.357986,-1.229462 3.135817,-2.002721 5.092593,-2.002721 4.188672,0 7.638888,3.450217 7.638888,7.638889 V 33.86574 c 0,5.594951 -4.590233,10.185185 -10.185185,10.185185 H 19.86111 c -5.594953,0 -10.1851844,-4.590234 -10.1851844,-10.185185 z" /><path
     style="font-weight:bold;font-size:37px;line-height:1.25;font-family:'Exo 2';-inkscape-font-specification:'Exo 2 Bold';fill:#e5e5e5;fill-opacity:1;stroke:none;stroke-width:0;stroke-dasharray:none"
     d="m 293.34525,20.218912 q 1.79758,0 3.66299,0.03392 1.89934,0 3.69692,0.10175 1.8315,0.06783 3.39167,0.237417 l -0.27134,3.730833 h -8.47916 q -0.91575,0 -1.39058,0.440917 -0.47484,0.440916 -0.47484,1.288833 v 17.670583 h -5.18925 v -18.722 q 0,-2.170666 1.39059,-3.4595 1.39058,-1.32275 3.663,-1.32275 z m -4.44309,9.903667 h 13.66842 v 3.663 h -13.66842 z m 27.55727,-10.27675 q 2.78116,0 4.71441,0.6105 1.93325,0.576583 3.08642,1.967167 1.18708,1.356666 1.72975,3.730833 0.54267,2.34025 0.54267,5.867583 0,3.527334 -0.54267,5.9015 -0.54267,2.34025 -1.72975,3.730833 -1.15317,1.356667 -3.08642,1.967167 -1.93325,0.576583 -4.71441,0.576583 -2.78117,0 -4.71442,-0.576583 -1.93325,-0.6105 -3.12033,-1.967167 -1.18709,-1.390583 -1.72975,-3.730833 -0.54267,-2.374166 -0.54267,-5.9015 0,-3.527333 0.54267,-5.867583 0.54266,-2.374167 1.72975,-3.730833 1.18708,-1.390584 3.12033,-1.967167 1.93325,-0.6105 4.71442,-0.6105 z m 0,4.103917 q -1.79759,0 -2.81509,0.71225 -0.98358,0.71225 -1.4245,2.475916 -0.407,1.72975 -0.407,4.884 0,3.120334 0.407,4.884 0.44092,1.763667 1.4245,2.475917 1.0175,0.71225 2.81509,0.71225 1.76366,0 2.74725,-0.71225 1.0175,-0.71225 1.4245,-2.475917 0.44091,-1.763666 0.44091,-4.884 0,-3.15425 -0.44091,-4.884 -0.407,-1.763666 -1.4245,-2.475916 -0.98359,-0.71225 -2.74725,-0.71225 z m 23.0294,-3.96825 q 3.08642,0 4.98575,0.644416 1.93325,0.6105 2.81509,2.13675 0.91575,1.492334 0.91575,4.17175 0,1.628 -0.44092,2.882917 -0.407,1.221 -1.39058,1.967167 -0.98359,0.746166 -2.67942,0.949666 v 0.169584 q 0.6105,0.10175 1.25492,0.474833 0.67833,0.373083 1.25491,1.11925 0.57659,0.71225 0.84792,1.93325 l 2.035,7.292083 h -5.46058 l -1.79759,-7.1225 q -0.30525,-1.153166 -0.91575,-1.594083 -0.57658,-0.440917 -1.628,-0.440917 -2.30633,0 -3.90041,0 -1.56017,-0.03392 -2.6455,-0.06783 -1.05142,-0.03392 -1.89934,-0.06783 l 0.10175,-3.76475 h 8.44525 q 1.35667,0 2.13675,-0.271334 0.814,-0.30525 1.11925,-1.051416 0.33917,-0.746167 0.33917,-2.068917 0,-1.356667 -0.33917,-2.068917 -0.30525,-0.746166 -1.11925,-1.0175 -0.78008,-0.30525 -2.13675,-0.30525 -3.18816,0 -5.39275,0.03392 -2.20458,0.03392 -3.01858,0.10175 L 330.467,20.320662 q 1.4245,-0.169583 2.67942,-0.237416 1.25491,-0.06783 2.74725,-0.06783 1.49233,-0.03392 3.59516,-0.03392 z m -3.90041,0.339166 v 23.4025 H 330.467 v -23.4025 z m 35.54463,0 v 14.075417 q 0,3.56125 -0.88183,5.731916 -0.88183,2.13675 -2.91683,3.120334 -2.00109,0.949666 -5.35884,0.949666 -3.56125,0 -5.698,-0.949666 -2.13675,-0.983584 -3.08641,-3.120334 -0.94967,-2.170666 -0.94967,-5.731916 V 20.320662 h 5.18925 v 14.075417 q 0,2.204583 0.37308,3.4595 0.407,1.221 1.35667,1.72975 0.94967,0.50875 2.54375,0.50875 1.59408,0 2.50983,-0.50875 0.94967,-0.50875 1.32275,-1.72975 0.407,-1.254917 0.407,-3.4595 V 20.320662 Z m 28.52396,0 q 1.8315,0 1.89933,1.899334 l 0.88183,21.503166 h -4.78225 l -0.78008,-19.400333 h -0.6105 l -3.76475,14.584166 q -0.30525,1.628 -2.035,1.628 h -3.256 q -1.72975,0 -2.10283,-1.628 l -3.76475,-14.584166 h -0.57659 l -0.71225,19.400333 h -4.81616 l 0.88183,-21.503166 q 0.0678,-1.899334 1.93325,-1.899334 h 4.85008 q 1.66192,0 2.035,1.661917 l 3.01859,11.769083 q 0.2035,0.814 0.33916,1.661917 0.13567,0.814 0.30525,1.661916 h 0.44092 q 0.16958,-0.847916 0.30525,-1.661916 0.16958,-0.847917 0.33917,-1.695833 l 2.98466,-11.735167 q 0.33917,-1.661917 2.035,-1.661917 z m 14.78768,-0.440916 q 1.72975,0 3.76475,0.2035 2.035,0.169583 3.96825,0.746166 l -0.33916,3.425584 q -1.49234,-0.03392 -3.49342,-0.06783 -2.00108,-0.03392 -3.93433,-0.03392 -0.94967,0 -1.628,0.06783 -0.64442,0.03392 -1.05142,0.271333 -0.407,0.2035 -0.57658,0.644417 -0.16959,0.440917 -0.16959,1.221 0,1.187083 0.54267,1.72975 0.57658,0.542667 1.93325,0.983583 l 4.51092,1.458417 q 2.81508,0.949667 3.90041,2.577667 1.08534,1.628 1.08534,4.273499 0,2.001084 -0.47484,3.323834 -0.47483,1.32275 -1.49233,2.068916 -1.0175,0.746167 -2.67942,1.051417 -1.66191,0.339167 -4.07,0.339167 -1.15316,0 -3.28991,-0.169584 -2.13675,-0.135666 -4.884,-0.746166 l 0.33916,-3.663 q 2.00109,0.03392 3.4595,0.10175 1.49234,0.03392 2.54375,0.06783 1.05142,0 1.8315,0 1.35667,0 2.10284,-0.169583 0.78008,-0.169584 1.08533,-0.678334 0.30525,-0.50875 0.30525,-1.458416 0,-0.814 -0.23742,-1.288834 -0.2035,-0.508749 -0.71225,-0.780083 -0.47483,-0.30525 -1.32275,-0.542666 l -4.74833,-1.628 q -2.67942,-0.983584 -3.79867,-2.577667 -1.11925,-1.594083 -1.11925,-4.205667 0,-2.035 0.47484,-3.289916 0.50875,-1.288834 1.52625,-2.001084 1.05141,-0.71225 2.67941,-0.983583 1.66192,-0.271333 3.96825,-0.271333 z"
     id="forums"
     aria-label="FORUMS" /></svg>
