<?xml version="1.0" encoding="UTF-8" standalone="no"?>
<!-- Created with Inkscape (http://www.inkscape.org/) -->

<svg
   width="480"
   height="70"
   viewBox="0 0 480 70"
   version="1.1"
   id="SVGRoot"
   sodipodi:docname="site_logo3.svg"
   inkscape:version="1.3.2 (091e20ef0f, 2023-11-25)"
   xmlns:inkscape="http://www.inkscape.org/namespaces/inkscape"
   xmlns:sodipodi="http://sodipodi.sourceforge.net/DTD/sodipodi-0.dtd"
   xmlns="http://www.w3.org/2000/svg"
   xmlns:svg="http://www.w3.org/2000/svg">
  <sodipodi:namedview
     id="namedview137"
     pagecolor="#1dc973"
     bordercolor="#000000"
     borderopacity="0.25"
     inkscape:showpageshadow="2"
     inkscape:pageopacity="0"
     inkscape:pagecheckerboard="0"
     inkscape:deskcolor="#d1d1d1"
     inkscape:document-units="px"
     showgrid="false"
     inkscape:zoom="2.8083333"
     inkscape:cx="240"
     inkscape:cy="34.896142"
     inkscape:current-layer="layer1"
     showguides="true"
     inkscape:lockguides="false" />
  <defs
     id="defs132" />
  <g
     inkscape:label="Layer 1"
     inkscape:groupmode="layer"
     id="layer1">
    <path
       id="path1"
       style="color:#000000;fill:#ffffff;-inkscape-stroke:none"
       d="M 35 5.4316406 C 18.637377 5.4316406 5.4316406 18.637377 5.4316406 35 C 5.4316406 51.362623 18.637377 64.568359 35 64.568359 C 51.362623 64.568359 64.568359 51.362623 64.568359 35 C 64.568359 18.637377 51.362623 5.4316406 35 5.4316406 z M 15.992188 17.349609 L 21.421875 17.349609 L 21.421875 41.789062 C 21.421875 44.820695 23.821887 47.220703 26.853516 47.220703 L 43.146484 47.220703 C 46.178118 47.220703 48.578125 44.820695 48.578125 41.789062 L 48.578125 28.210938 C 48.578125 26.679043 47.393224 25.496094 45.861328 25.496094 C 44.329428 25.496094 43.146484 26.67904 43.146484 28.210938 L 43.146484 41.789062 L 37.714844 41.789062 L 37.714844 28.210938 C 37.714844 26.67904 36.531897 25.496094 35 25.496094 C 33.468101 25.496094 32.285156 26.67904 32.285156 28.210938 L 32.285156 41.789062 L 26.853516 41.789062 L 26.853516 28.210938 C 26.853516 23.743898 30.532958 20.064453 35 20.064453 C 37.086815 20.064453 38.983408 20.890005 40.431641 22.201172 C 41.879874 20.890005 43.77451 20.064453 45.861328 20.064453 C 50.328367 20.064453 54.007812 23.7439 54.007812 28.210938 L 54.007812 41.789062 C 54.007812 47.755835 49.113257 52.650391 43.146484 52.650391 L 26.853516 52.650391 C 20.886741 52.650391 15.992188 47.755835 15.992188 41.789062 L 15.992188 17.349609 z " />
    <g
       id="g2">
      <path
         id="path3535"
         style="font-size:185px;font-family:'Exo 2';-inkscape-font-specification:'Exo 2, @wght=550';font-variation-settings:'wght' 550;display:inline;fill:#ffffff;fill-opacity:1;stroke:none;stroke-width:0"
         d="m 289.13301,20.611588 v 7.156813 l -4.37046,0.227512 v 3.667238 h 4.37046 v 14.416513 c 0,2.176758 0.56904,3.851193 1.70765,5.023293 1.13863,1.138612 2.77981,1.708194 4.92307,1.708194 0.46885,0 1.07167,-0.03378 1.80844,-0.100762 0.73675,-0.06698 1.49002,-0.167273 2.26026,-0.301227 0.77023,-0.100468 1.44011,-0.234549 2.00943,-0.40199 l -0.60298,-3.918085 h -3.51611 c -1.13862,0 -1.94259,-0.217487 -2.4114,-0.652838 -0.46885,-0.468839 -0.70324,-1.239016 -0.70324,-2.31065 V 31.663151 h 7.48457 v -3.918084 h -7.48457 v -7.133479 z m -15.82349,6.480111 c -1.80837,0 -3.65016,0.418609 -5.5255,1.255823 -1.77597,0.761126 -3.5367,1.826567 -5.28264,3.18835 l -0.44389,-3.790805 h -4.52107 v 24.563861 h 5.47514 V 34.91673 c 1.66969,-0.949376 3.13475,-1.706627 4.37046,-2.249132 1.37303,-0.636283 2.72914,-0.954596 4.0687,-0.954596 1.1386,0 1.94258,0.285056 2.4114,0.854364 0.50232,0.535817 0.75359,1.523478 0.75359,2.963488 v 16.778074 h 5.47515 V 33.873039 c 0,-4.520959 -2.26037,-6.78134 -6.78134,-6.78134 z m -23.15732,0.653159 v 24.563904 h -5.42516 V 27.744858 Z m -1.45676,-10.649383 q 1.65769,0 1.65769,1.657687 v 2.813045 q 0,1.657686 -1.65769,1.657686 h -2.46141 q -1.65769,0 -1.65769,-1.657686 v -2.813045 q 0,-1.657687 1.65769,-1.657687 z m -33.65601,9.996224 c -1.7749,0 -3.48257,0.402247 -5.12354,1.205974 -1.51182,0.724418 -3.06885,1.808667 -4.66954,3.244031 l -0.40412,-3.796637 h -4.42031 v 24.563861 h 5.47514 V 34.813315 c 0.97887,-0.672523 1.83791,-1.22574 2.56203,-1.643494 0.87071,-0.502328 1.64087,-0.870259 2.31066,-1.104679 0.70325,-0.23442 1.42326,-0.35214 2.16001,-0.35214 1.13863,0 1.99272,0.285056 2.56204,0.854364 0.56932,0.569305 0.85382,1.556965 0.85382,2.963488 v 16.778074 h 5.27413 V 34.889683 c 0.9773,-0.668567 1.85069,-1.242673 2.56205,-1.669482 0.83721,-0.535817 1.6074,-0.920639 2.31066,-1.155059 0.70327,-0.23442 1.44016,-0.35214 2.21041,-0.35214 1.23908,0 2.10954,0.301419 2.61187,0.904213 0.50233,0.602796 0.7536,1.574095 0.7536,2.913639 v 16.778074 h 5.4253 V 33.873039 c 0,-2.210247 -0.56959,-3.884681 -1.7082,-5.023293 -1.13862,-1.1721 -2.77926,-1.758047 -4.92252,-1.758047 -1.74143,0 -3.43276,0.402247 -5.07369,1.205974 -1.44612,0.692931 -2.94691,1.713404 -4.50145,3.056825 -0.28823,-1.038706 -0.76258,-1.891131 -1.42607,-2.554603 -1.10512,-1.138612 -2.7125,-1.708196 -4.82228,-1.708196 z m -43.95381,0.653368 7.43468,11.904865 -8.03768,12.658996 h 5.77691 l 6.58776,-10.850566 h 0.7467 l 6.63019,10.850566 h 5.72704 l -8.03768,-12.658996 7.4347,-11.904865 h -5.72651 l -5.92909,9.895442 h -0.95141 l -5.92912,-9.895442 z m -27.17575,0 v 18.435358 c 0,4.520963 2.27727,6.781341 6.83172,6.781341 1.84186,0 3.64986,-0.385351 5.42476,-1.155591 1.63093,-0.707766 3.30486,-1.730158 5.02063,-3.060008 l 0.45503,3.562761 h 4.32007 V 27.745067 h -5.47567 v 17.596376 c -1.51035,0.919416 -2.82483,1.642886 -3.91808,2.145188 -1.20559,0.535818 -2.42763,0.80345 -3.66671,0.80345 -1.27256,0 -2.19371,-0.284525 -2.76302,-0.853832 -0.53581,-0.569305 -0.78708,-1.523711 -0.7536,-2.863256 V 27.745067 Z m -13.66345,-0.653368 c -1.80839,0 -3.65015,0.418609 -5.52551,1.255823 -1.77597,0.761126 -3.5367,1.826567 -5.28263,3.18835 l -0.44389,-3.790805 h -4.52107 v 24.563861 h 5.47514 V 34.91726 c 1.6699,-0.949503 3.13463,-1.707105 4.37046,-2.249662 1.37303,-0.636283 2.72915,-0.954596 4.0687,-0.954596 1.1386,0 1.94257,0.285056 2.41141,0.854364 0.50233,0.535817 0.7536,1.523478 0.7536,2.963488 v 16.778074 h 5.47513 V 33.873039 c 0,-4.520959 -2.26038,-6.78134 -6.78134,-6.78134 z m -23.15731,0.653159 v 24.563904 h -5.42515 V 27.744858 Z m -1.45675,-10.649383 q 1.65768,0 1.65768,1.657687 v 2.813045 q 0,1.657686 -1.65768,1.657686 h -2.46142 q -1.65768,0 -1.65768,-1.657686 v -2.813045 q 0,-1.657687 1.65768,-1.657687 z m -14.165595,0.05023 -0.05023,27.979744 q 0,1.456755 0.803727,2.210249 0.85396,0.753495 2.411181,0.753495 h 2.210249 l 0.653028,3.918168 q -0.50233,0.251165 -1.456755,0.401863 -0.904192,0.200932 -1.908852,0.301398 -1.004658,0.100468 -1.657686,0.100468 -2.963744,0 -4.721896,-1.657687 Q 85.99138,49.495716 85.99138,46.431506 V 17.145708 Z" />
      <path
         style="font-weight:500;font-size:37.3333px;line-height:1.25;font-family:Ubuntu;-inkscape-font-specification:'Ubuntu Medium';fill:#ffffff"
         d="M 318,52.369312 V 26.497334 h 16.35199 v 3.994664 H 322.704 v 6.607994 h 10.34132 v 3.994663 H 322.704 v 11.274657 z m 24.00535,-12.954655 q 0,2.127998 0.52266,3.882663 0.52267,1.717332 1.49334,2.949331 1.008,1.194665 2.42666,1.866665 1.41867,0.671999 3.21066,0.671999 1.75467,0 3.17334,-0.671999 1.41866,-0.672 2.38933,-1.866665 1.008,-1.231999 1.53066,-2.949331 0.52267,-1.754665 0.52267,-3.882663 0,-2.127999 -0.52267,-3.84533 -0.52266,-1.754666 -1.53066,-2.949331 -0.97067,-1.231999 -2.38933,-1.903999 -1.41867,-0.671999 -3.17334,-0.671999 -1.79199,0 -3.21066,0.671999 -1.41866,0.672 -2.42666,1.903999 -0.97067,1.231999 -1.49334,2.949331 -0.52266,1.717331 -0.52266,3.84533 z m 20.19731,0 q 0,3.322663 -1.008,5.861328 -0.97066,2.538664 -2.68799,4.255996 -1.68,1.679999 -3.95733,2.538665 -2.27733,0.858666 -4.85333,0.858666 -2.576,0 -4.89066,-0.858666 -2.27734,-0.858666 -3.99467,-2.538665 -1.68,-1.717332 -2.688,-4.255996 -1.00799,-2.538665 -1.00799,-5.861328 0,-3.322664 1.00799,-5.823995 1.008,-2.538665 2.72534,-4.255997 1.75466,-1.717332 4.03199,-2.575998 2.27733,-0.858666 4.816,-0.858666 2.53866,0 4.81599,0.858666 2.27734,0.858666 3.95733,2.575998 1.71734,1.717332 2.72533,4.255997 1.008,2.501331 1.008,5.823995 z m 12.28265,-13.178656 q 5.59999,0 8.54932,2.053332 2.98667,2.053331 2.98667,6.271994 0,5.263996 -5.18933,7.130661 0.70933,0.858666 1.60533,2.090665 0.896,1.231999 1.82933,2.687998 0.93333,1.418665 1.792,2.94933 0.85867,1.493333 1.53066,2.949331 h -5.26399 q -0.70933,-1.343999 -1.53067,-2.687997 -0.82133,-1.381333 -1.67999,-2.650665 -0.82134,-1.306665 -1.64267,-2.426664 -0.82133,-1.157333 -1.53067,-2.053332 -0.52266,0.03733 -0.89599,0.03733 -0.37334,0 -0.70934,0 h -2.27733 v 9.781325 h -4.70399 V 26.870667 q 1.71733,-0.373333 3.65866,-0.485333 1.94133,-0.149333 3.472,-0.149333 z m 0.336,4.06933 q -1.49334,0 -2.76267,0.112 v 8.36266 h 2.05333 q 1.71733,0 3.024,-0.186667 1.30667,-0.186666 2.16533,-0.671999 0.896,-0.485333 1.344,-1.306666 0.448,-0.821333 0.448,-2.090665 0,-1.194666 -0.448,-2.015998 -0.448,-0.821333 -1.30666,-1.306666 -0.82134,-0.485333 -1.97867,-0.671999 -1.15733,-0.224 -2.53866,-0.224 z m 26.39461,22.623981 q -2.65066,0 -4.55466,-0.746666 -1.904,-0.784 -3.17333,-2.165332 -1.232,-1.381332 -1.82933,-3.247997 -0.59733,-1.866665 -0.59733,-4.106663 v -16.16532 h 4.74133 v 15.71732 q 0,1.754665 0.37333,3.023998 0.41067,1.231999 1.12,2.015998 0.74666,0.783999 1.71733,1.157332 1.008,0.373333 2.24,0.373333 1.232,0 2.24,-0.373333 1.008,-0.373333 1.71733,-1.157332 0.74666,-0.783999 1.12,-2.015998 0.41066,-1.269333 0.41066,-3.023998 v -15.71732 h 4.74133 v 16.16532 q 0,2.239998 -0.63466,4.106663 -0.59734,1.866665 -1.86667,3.247997 -1.232,1.381332 -3.17333,2.165332 -1.94133,0.746666 -4.592,0.746666 z m 21.91462,-26.431978 q 0.82133,1.418666 1.82933,3.471997 1.008,2.053332 2.05333,4.330663 1.04533,2.239998 2.05333,4.591996 1.04534,2.314665 1.904,4.29333 0.85867,-1.978665 1.86667,-4.29333 1.008,-2.351998 2.05333,-4.591996 1.04533,-2.277331 2.05333,-4.330663 1.008,-2.053331 1.82933,-3.471997 h 4.256 q 0.336,2.837331 0.63466,6.047995 0.29867,3.173331 0.52267,6.533328 0.26133,3.322664 0.448,6.719994 0.224,3.359997 0.37333,6.570661 h -4.62933 q -0.14933,-4.517329 -0.37333,-9.295992 -0.18667,-4.778662 -0.59733,-9.258659 -0.41067,0.858666 -0.97067,2.053332 -0.56,1.194666 -1.19466,2.613331 -0.63467,1.381332 -1.30667,2.874664 -0.63466,1.493332 -1.26933,2.911998 -0.59733,1.381332 -1.12,2.613331 -0.52267,1.194666 -0.896,2.053332 h -3.50933 q -0.37333,-0.858666 -0.896,-2.090665 -0.52266,-1.231999 -1.15733,-2.613331 -0.59733,-1.418666 -1.26933,-2.911998 -0.63467,-1.493332 -1.26934,-2.874664 -0.63466,-1.381332 -1.19466,-2.575998 -0.56,-1.231999 -0.97067,-2.053332 -0.41066,4.479997 -0.63466,9.258659 -0.18667,4.778663 -0.336,9.295992 h -4.62933 q 0.14933,-3.210664 0.336,-6.645327 0.224,-3.434664 0.448,-6.794661 0.26133,-3.397331 0.56,-6.570661 0.29866,-3.173331 0.63466,-5.861329 z m 33.63734,22.362648 q 2.53866,0 3.69599,-0.858666 1.15733,-0.858666 1.15733,-2.426665 0,-0.933332 -0.41066,-1.605332 -0.37333,-0.671999 -1.12,-1.194665 -0.70933,-0.56 -1.75467,-1.007999 -1.04533,-0.485333 -2.38933,-0.933333 -1.344,-0.485333 -2.61333,-1.045332 -1.232,-0.597333 -2.20266,-1.455999 -0.93334,-0.858666 -1.53067,-2.053332 -0.56,-1.194665 -0.56,-2.874664 0,-3.50933 2.42667,-5.487995 2.42666,-2.015999 6.60799,-2.015999 2.42667,0 4.29333,0.56 1.904,0.522666 2.98666,1.157332 l -1.45599,3.807997 q -1.26934,-0.709333 -2.8,-1.082666 -1.49333,-0.373333 -3.09867,-0.373333 -1.90399,0 -2.98666,0.784 -1.04533,0.783999 -1.04533,2.202664 0,0.858666 0.336,1.493333 0.37333,0.597332 1.008,1.082665 0.672,0.485333 1.53066,0.896 0.896,0.410666 1.94133,0.783999 1.82934,0.671999 3.248,1.381332 1.456,0.671999 2.42667,1.642665 1.00799,0.933333 1.53066,2.239998 0.52267,1.269333 0.52267,3.098664 0,3.509331 -2.50133,5.450662 -2.464,1.903999 -7.24266,1.903999 -1.60534,0 -2.94934,-0.224 -1.30666,-0.186667 -2.35199,-0.485333 -1.008,-0.298666 -1.75467,-0.597333 -0.74666,-0.335999 -1.19466,-0.597333 l 1.38133,-3.84533 q 1.008,0.56 2.72533,1.119999 1.71733,0.56 4.144,0.56 z"
         id="text1"
         aria-label="FORUMS" />
    </g>
  </g>
</svg>
