<?xml version="1.0" encoding="UTF-8" standalone="no"?>
<!-- Created with Inkscape (http://www.inkscape.org/) -->

<svg
   width="300"
   height="37"
   viewBox="0 0 300 37"
   version="1.1"
   id="SVGRoot"
   sodipodi:docname="site_logo-responsive-700.svg"
   inkscape:version="1.2.2 (1:1.2.2+202212051552+b0a8486541)"
   xml:space="preserve"
   xmlns:inkscape="http://www.inkscape.org/namespaces/inkscape"
   xmlns:sodipodi="http://sodipodi.sourceforge.net/DTD/sodipodi-0.dtd"
   xmlns="http://www.w3.org/2000/svg"
   xmlns:svg="http://www.w3.org/2000/svg"><sodipodi:namedview
     id="namedview137"
     pagecolor="#1dc973"
     bordercolor="#000000"
     borderopacity="0.25"
     inkscape:showpageshadow="2"
     inkscape:pageopacity="0"
     inkscape:pagecheckerboard="0"
     inkscape:deskcolor="#d1d1d1"
     inkscape:document-units="px"
     showgrid="false"
     inkscape:zoom="4"
     inkscape:cx="114.5"
     inkscape:cy="18.5"
     inkscape:current-layer="layer1"
     showguides="true" /><defs
     id="defs132" /><g
     inkscape:label="Layer 1"
     inkscape:groupmode="layer"
     id="layer1"><g
       inkscape:label="Layer 1"
       id="layer1-1"
       transform="matrix(0.63793103,0,0,0.63793103,23.335417,0)"><g
         id="g963"><circle
           style="font-variation-settings:'wdth' 99.9, 'wght' 800;fill:none;stroke:#ffffff;stroke-width:4.5;stroke-dasharray:none;stroke-opacity:1"
           id="path959"
           cx="29"
           cy="29"
           r="26.75" /><path
           style="color:#000000;fill:#ffffff;stroke:none;stroke-width:0;stroke-dasharray:none"
           d="M 13.250001,14.375001 H 17.75 V 34.625 c 0,2.511927 1.988074,4.5 4.499997,4.5 H 35.75 c 2.511927,0 4.5,-1.988073 4.5,-4.5 v -11.25 c 0,-1.269285 -0.980714,-2.25 -2.25,-2.25 -1.26929,0 -2.25,0.980712 -2.25,2.25 v 11.25 h -4.499999 v -11.25 c 0,-1.269288 -0.980712,-2.25 -2.25,-2.25 -1.269289,0 -2.25,0.980712 -2.25,2.25 v 11.25 H 22.25 v -11.25 c 0,-3.701265 3.048735,-6.749999 6.750001,-6.749999 1.729077,0 3.300034,0.68328 4.499999,1.769676 1.199966,-1.086396 2.770921,-1.769676 4.5,-1.769676 3.701264,0 6.75,3.048736 6.75,6.749999 v 11.25 c 0,4.943902 -4.056098,9 -9,9 h -13.5 c -4.943904,0 -8.999999,-4.056098 -8.999999,-9 z"
           id="path984" /></g><g
         id="g1414"
         transform="matrix(0.97192,0,0,0.97192,8.633153,3.753802)"
         style="stroke-width:1.02889"><path
           id="path3535"
           style="font-size:185px;font-family:'Exo 2';-inkscape-font-specification:'Exo 2, @wght=550';font-variation-settings:'wght' 550;display:inline;fill:#ffffff;fill-opacity:1;stroke:none;stroke-width:0"
           d="m 237.60618,13.709329 v 6.101254 l -3.72586,0.193956 v 3.126357 h 3.72586 v 12.29022 c 0,1.855708 0.48511,3.28318 1.45579,4.282407 0.97069,0.970678 2.36981,1.456252 4.19696,1.456252 0.3997,0 0.91361,-0.0288 1.54172,-0.0859 0.62808,-0.0571 1.27025,-0.142602 1.92689,-0.256799 0.65663,-0.08565 1.22771,-0.199956 1.71306,-0.342701 l -0.51405,-3.340206 h -2.99752 c -0.97068,0 -1.65607,-0.18541 -2.05574,-0.556551 -0.3997,-0.39969 -0.59952,-1.056273 -0.59952,-1.969852 v -11.47687 h 6.38067 V 19.79069 h -6.38067 v -6.081361 z m -13.48968,5.524359 c -1.54166,0 -3.1118,0.356868 -4.71055,1.070601 -1.51403,0.648868 -3.01507,1.557167 -4.5035,2.7181 l -0.37842,-3.231699 h -3.85426 v 20.940935 h 4.66761 V 25.904604 c 1.42343,-0.809352 2.67241,-1.454916 3.72586,-1.917407 1.17053,-0.542438 2.32662,-0.813803 3.46861,-0.813803 0.97067,0 1.65607,0.243013 2.05574,0.728354 0.42824,0.456789 0.64245,1.29878 0.64245,2.526403 v 14.303474 h 4.66762 V 25.014847 c 0,-3.854162 -1.92699,-5.781159 -5.78116,-5.781159 z m -19.74185,0.556824 v 20.940972 h -4.625 V 19.790512 Z m -1.2419,-9.078704 q 1.4132,0 1.4132,1.413194 v 2.398149 q 0,1.413194 -1.4132,1.413194 h -2.09838 q -1.41319,0 -1.41319,-1.413194 v -2.398149 q 0,-1.413194 1.41319,-1.413194 z m -28.69208,8.52188 c -1.51312,0 -2.96893,0.342919 -4.36787,1.028104 -1.28884,0.617574 -2.61623,1.541907 -3.98083,2.765569 l -0.34452,-3.236671 h -3.76835 v 20.940935 h 4.66761 V 25.816442 c 0.83449,-0.573333 1.56683,-1.044956 2.18415,-1.401095 0.74229,-0.42824 1.39886,-0.741905 1.96986,-0.94175 0.59953,-0.199845 1.21335,-0.300203 1.84143,-0.300203 0.9707,0 1.69882,0.243013 2.18417,0.728354 0.48535,0.485338 0.72789,1.327328 0.72789,2.526403 v 14.303474 h 4.49625 V 25.881546 c 0.83315,-0.56996 1.57773,-1.059391 2.18417,-1.42325 0.71373,-0.456789 1.37032,-0.784854 1.96986,-0.984699 0.59954,-0.199845 1.22775,-0.300203 1.8844,-0.300203 1.05632,0 1.7984,0.256963 2.22664,0.770851 0.42824,0.513889 0.64245,1.341931 0.64245,2.483906 v 14.303474 h 4.62512 V 25.014847 c 0,-1.884257 -0.48558,-3.311729 -1.45625,-4.282407 -0.97069,-0.999227 -2.36935,-1.498752 -4.1965,-1.498752 -1.48459,0 -2.92646,0.342919 -4.32537,1.028104 -1.23283,0.590731 -2.51227,1.460694 -3.83753,2.605974 -0.24572,-0.885507 -0.65011,-1.612208 -1.21574,-2.177824 -0.94213,-0.970678 -2.31243,-1.456254 -4.11104,-1.456254 z m -37.47106,0.557002 6.33814,10.149016 -6.8522,10.791919 h 4.92487 l 5.61613,-9.250215 h 0.63657 l 5.6523,9.250215 h 4.88236 l -6.8522,-10.791919 6.33815,-10.149016 h -4.8819 l -5.05461,8.435963 h -0.81109 L 141.8515,19.79069 Z m -23.1676,0 v 15.716326 c 0,3.854165 1.9414,5.78116 5.82411,5.78116 1.57021,0 3.11154,-0.328516 4.62466,-0.985153 1.39039,-0.603377 2.81743,-1.474977 4.28014,-2.608687 l 0.38792,3.037289 h 3.6829 V 19.79069 h -4.66806 v 15.001085 c -1.28759,0.783811 -2.4082,1.400577 -3.3402,1.828794 -1.02778,0.45679 -2.06958,0.684949 -3.12591,0.684949 -1.08487,0 -1.87016,-0.24256 -2.3555,-0.7279 -0.45679,-0.485338 -0.671,-1.298979 -0.64245,-2.440954 V 19.79069 Z m -11.64822,-0.557002 c -1.54167,0 -3.111793,0.356868 -4.710557,1.070601 -1.514028,0.648868 -3.015069,1.557167 -4.503491,2.7181 L 92.561323,19.79069 h -3.854256 v 20.940935 h 4.667606 V 25.905056 c 1.423609,-0.809461 2.672308,-1.455324 3.725859,-1.917859 1.170523,-0.542438 2.326629,-0.813803 3.468608,-0.813803 0.97067,0 1.65606,0.243013 2.05575,0.728354 0.42824,0.456789 0.64245,1.29878 0.64245,2.526403 v 14.303474 h 4.66761 V 25.014847 c 0,-3.854162 -1.927,-5.781159 -5.78116,-5.781159 z m -19.741837,0.556824 v 20.940972 h -4.625 V 19.790512 Z m -1.241898,-9.078704 q 1.413194,0 1.413194,1.413194 v 2.398149 q 0,1.413194 -1.413194,1.413194 h -2.09838 q -1.413194,0 -1.413194,-1.413194 v -2.398149 q 0,-1.413194 1.413194,-1.413194 z m -12.076308,0.04282 -0.04282,23.853009 q 0,1.241898 0.685185,1.884259 0.72801,0.642362 2.055556,0.642362 h 1.884259 l 0.556713,3.340277 q -0.428241,0.214121 -1.241898,0.342593 -0.770833,0.171296 -1.627315,0.256944 -0.856481,0.08565 -1.413194,0.08565 -2.526621,0 -4.025463,-1.413194 -1.498843,-1.413194 -1.498843,-4.025463 V 10.754632 Z" /><path
           id="path3729"
           style="font-size:185px;font-family:'Exo 2';-inkscape-font-specification:'Exo 2,  @wght=550';font-variation-settings:'wght' 550;fill:#ffffff;fill-opacity:1;stroke:none;stroke-width:0"
           d="m 389.8515,19.277776 q 1.45602,0 3.08334,0.128472 1.62731,0.08565 3.2118,0.21412 1.62732,0.128472 2.91204,0.342593 l -0.34259,3.168981 q -2.01274,-0.08565 -4.06829,-0.128472 -2.01273,-0.04282 -3.98264,-0.04282 -1.79861,-0.04282 -2.82639,0.08565 -1.02778,0.08565 -1.49884,0.556713 -0.42824,0.471065 -0.42824,1.584491 0,1.413194 0.72801,1.841435 0.72801,0.428241 2.22685,0.813657 l 5.8669,1.327547 q 2.52662,0.642361 3.72569,1.927083 1.2419,1.284722 1.2419,3.939815 0,2.612268 -0.98495,3.939814 -0.94213,1.327547 -2.99769,1.798612 -2.01273,0.471064 -5.18171,0.471064 -1.19908,0 -3.59722,-0.128472 -2.35533,-0.08565 -5.18172,-0.513889 l 0.34259,-3.168981 q 0.94213,0.04282 2.09838,0.08565 1.15625,0.04282 2.4838,0.04282 1.32755,0 2.69792,0 2.26967,0 3.51157,-0.171296 1.28472,-0.171297 1.79861,-0.685185 0.51389,-0.556713 0.51389,-1.584491 0,-1.327546 -0.85648,-1.755787 -0.81366,-0.471065 -2.35532,-0.856482 l -5.73843,-1.327546 q -1.84144,-0.471065 -2.91204,-1.241898 -1.02777,-0.770833 -1.49884,-1.927083 -0.47106,-1.199074 -0.47106,-2.912037 0,-2.3125 0.85648,-3.597223 0.8993,-1.284722 2.74074,-1.755787 1.88426,-0.513889 4.88194,-0.471064 z m -32.5034,2.19e-4 c -1.5131,0 -2.96894,0.342466 -4.36785,1.027651 -1.28889,0.617592 -2.6162,1.542308 -3.98085,2.766023 l -0.34452,-3.237125 h -3.76879 v 20.940937 h 4.66805 V 25.866176 c 0.82581,-0.566796 1.57197,-1.053336 2.18417,-1.406523 0.74227,-0.428241 1.39886,-0.742357 1.96984,-0.942202 0.59953,-0.199844 1.21338,-0.29975 1.84145,-0.29975 0.97068,0 1.69836,0.242563 2.18371,0.727901 0.48535,0.485338 0.72835,1.327331 0.72835,2.526403 v 14.303476 h 4.49625 v -14.85008 c 0.83315,-0.569959 1.57774,-1.059392 2.18417,-1.423248 0.71373,-0.45679 1.3703,-0.784857 1.96984,-0.984702 0.59954,-0.199844 1.22778,-0.29975 1.8844,-0.29975 1.05634,0 1.79842,0.256963 2.22666,0.770852 0.42824,0.513887 0.64246,1.341477 0.64246,2.483452 v 14.303476 h 4.62509 V 25.059155 c 0,-1.884257 -0.48556,-3.311729 -1.45625,-4.282407 -0.97067,-0.999229 -2.36935,-1.498753 -4.1965,-1.498753 -1.48456,0 -2.92644,0.342466 -4.32535,1.027651 -1.23403,0.591305 -2.51452,1.463111 -3.84116,2.610044 -0.24572,-0.885553 -0.64648,-1.616255 -1.21211,-2.181894 -0.94213,-0.970678 -2.31245,-1.455801 -4.11106,-1.455801 z m -37.38516,0.556549 v 15.716329 c 0,3.854162 1.94095,5.781157 5.82366,5.781159 1.57023,-2e-6 3.11199,-0.328067 4.62511,-0.984701 1.39039,-0.603377 2.81743,-1.475431 4.28014,-2.609141 l 0.38792,3.037291 h 3.68291 V 19.834544 h -4.66805 V 34.83563 c -1.28766,0.783856 -2.40817,1.40056 -3.34021,1.828794 -1.02778,0.456789 -2.07005,0.684951 -3.12637,0.684951 -1.08488,0 -1.86972,-0.242563 -2.35504,-0.7279 -0.45681,-0.485341 -0.671,-1.298982 -0.64246,-2.440956 V 19.834544 Z m -4.58215,-0.556549 c -1.42748,0 -2.91209,0.356869 -4.45375,1.070602 -1.45028,0.644565 -2.88771,1.557896 -4.31271,2.733019 l -0.48375,-3.247072 h -3.63996 v 20.940937 h 4.6676 V 25.836787 c 1.50273,-0.665257 2.79541,-1.186926 3.85425,-1.548484 1.19908,-0.42824 2.36959,-0.642451 3.51156,-0.642451 h 1.37037 l 0.51405,-4.367857 z m -28.26399,-2.19e-4 q 3.76852,0 5.99537,1.070601 2.26968,1.070602 3.25463,3.511574 0.98496,2.440973 0.98496,6.466436 0,3.982638 -0.98496,6.423611 -0.98495,2.440972 -3.25463,3.511574 -2.22685,1.070602 -5.99537,1.070602 -3.68287,0 -5.95254,-1.070602 -2.26968,-1.070602 -3.29746,-3.511574 -0.98495,-2.440973 -0.98495,-6.423611 0,-4.025463 0.98495,-6.466436 1.02778,-2.440972 3.29746,-3.511574 2.26967,-1.070601 5.95254,-1.070601 z m 0,3.68287 q -2.01273,0 -3.2118,0.642361 -1.15625,0.642361 -1.62732,2.226852 -0.47106,1.584491 -0.47106,4.496528 0,2.869213 0.47106,4.453703 0.47107,1.584491 1.62732,2.226852 1.19907,0.642361 3.2118,0.642361 2.05556,0 3.21181,-0.642361 1.19907,-0.642361 1.67014,-2.226852 0.51389,-1.58449 0.51389,-4.453703 0,-2.912037 -0.51389,-4.496528 -0.47107,-1.584491 -1.67014,-2.226852 -1.15625,-0.642361 -3.21181,-0.642361 z M 269.61164,10.027778 c -1.57021,0 -2.82623,0.256963 -3.76835,0.770852 -0.91357,0.485338 -1.58456,1.199074 -2.01281,2.141203 -0.42824,0.913579 -0.64245,2.026936 -0.64245,3.340206 v 3.566262 l -3.72539,0.202093 v 3.126356 h 3.72539 v 17.600731 h 4.71102 V 23.17475 h 6.33771 v -3.340206 h -6.33771 v -2.997956 c 0,-1.170523 0.24257,-1.998113 0.72789,-2.483451 0.51389,-0.513889 1.3991,-0.770852 2.65526,-0.770852 h 4.1965 l 0.38567,-3.211806 c -0.57099,-0.08565 -1.25639,-0.157203 -2.05576,-0.214301 -0.79938,-0.0571 -1.58468,-0.08545 -2.35551,-0.08545 -0.74227,-0.02855 -1.35611,-0.04295 -1.84146,-0.04295 z" /></g></g></g></svg>
